G04*
G04 #@! TF.GenerationSoftware,Altium Limited,Altium Designer,24.6.1 (21)*
G04*
G04 Layer_Color=12040119*
%FSLAX25Y25*%
%MOIN*%
G70*
G04*
G04 #@! TF.SameCoordinates,EBD96B39-EC1D-4DCD-B27F-6C9CB96DE784*
G04*
G04*
G04 #@! TF.FilePolarity,Positive*
G04*
G01*
G75*
%ADD12R,0.03347X0.02756*%
%ADD13R,0.02756X0.03347*%
%ADD14R,0.02362X0.03347*%
D12*
X61000Y6752D02*
D03*
Y13248D02*
D03*
Y36752D02*
D03*
Y43248D02*
D03*
Y26752D02*
D03*
Y33248D02*
D03*
X34000Y26752D02*
D03*
Y33248D02*
D03*
X40000Y21752D02*
D03*
Y28248D02*
D03*
X34000Y23248D02*
D03*
Y16752D02*
D03*
X23000Y23248D02*
D03*
Y16752D02*
D03*
Y13248D02*
D03*
Y6752D02*
D03*
X61000Y16752D02*
D03*
Y23248D02*
D03*
X23000Y36752D02*
D03*
Y43248D02*
D03*
Y26752D02*
D03*
Y33248D02*
D03*
D13*
X52248Y13000D02*
D03*
X45752D02*
D03*
X52248Y37000D02*
D03*
X45752D02*
D03*
X34248Y40000D02*
D03*
X27752D02*
D03*
X34248Y10000D02*
D03*
X27752D02*
D03*
X18248Y15000D02*
D03*
X11752D02*
D03*
X18248Y35000D02*
D03*
X11752D02*
D03*
D14*
X52740Y20571D02*
D03*
X45260D02*
D03*
Y29429D02*
D03*
X49000D02*
D03*
X52740D02*
D03*
M02*
