G04*
G04 #@! TF.GenerationSoftware,Altium Limited,Altium Designer,24.6.1 (21)*
G04*
G04 Layer_Color=13813960*
%FSLAX25Y25*%
%MOIN*%
G70*
G04*
G04 #@! TF.SameCoordinates,EBD96B39-EC1D-4DCD-B27F-6C9CB96DE784*
G04*
G04*
G04 #@! TF.FilePolarity,Positive*
G04*
G01*
G75*
%ADD11C,0.00787*%
G36*
X48767Y14785D02*
X48828Y14780D01*
X48886Y14771D01*
X48939Y14760D01*
X48992Y14747D01*
X49039Y14733D01*
X49080Y14716D01*
X49122Y14699D01*
X49158Y14683D01*
X49188Y14666D01*
X49216Y14652D01*
X49238Y14638D01*
X49255Y14627D01*
X49269Y14619D01*
X49277Y14614D01*
X49280Y14611D01*
X49321Y14575D01*
X49357Y14536D01*
X49391Y14492D01*
X49418Y14445D01*
X49443Y14398D01*
X49465Y14348D01*
X49485Y14300D01*
X49501Y14253D01*
X49515Y14209D01*
X49526Y14168D01*
X49535Y14129D01*
X49540Y14096D01*
X49546Y14068D01*
X49549Y14046D01*
X49551Y14035D01*
Y14029D01*
X49064Y13982D01*
X49061Y14021D01*
X49055Y14057D01*
X49042Y14120D01*
X49025Y14173D01*
X49008Y14215D01*
X48989Y14248D01*
X48975Y14270D01*
X48964Y14281D01*
X48961Y14287D01*
X48925Y14317D01*
X48884Y14342D01*
X48842Y14359D01*
X48803Y14370D01*
X48767Y14375D01*
X48740Y14381D01*
X48715D01*
X48659Y14378D01*
X48612Y14367D01*
X48571Y14353D01*
X48535Y14336D01*
X48507Y14320D01*
X48488Y14306D01*
X48474Y14295D01*
X48471Y14292D01*
X48441Y14256D01*
X48418Y14215D01*
X48404Y14173D01*
X48393Y14134D01*
X48388Y14096D01*
X48382Y14068D01*
Y14057D01*
Y14049D01*
Y14043D01*
Y14040D01*
X48388Y13985D01*
X48399Y13929D01*
X48416Y13880D01*
X48432Y13835D01*
X48452Y13796D01*
X48468Y13766D01*
X48476Y13755D01*
X48479Y13747D01*
X48485Y13744D01*
Y13741D01*
X48501Y13719D01*
X48524Y13691D01*
X48551Y13661D01*
X48579Y13630D01*
X48645Y13561D01*
X48717Y13492D01*
X48751Y13458D01*
X48784Y13425D01*
X48812Y13397D01*
X48839Y13373D01*
X48862Y13353D01*
X48878Y13337D01*
X48889Y13326D01*
X48892Y13323D01*
X48967Y13253D01*
X49033Y13187D01*
X49097Y13123D01*
X49152Y13065D01*
X49202Y13013D01*
X49247Y12960D01*
X49288Y12915D01*
X49321Y12874D01*
X49352Y12835D01*
X49377Y12805D01*
X49399Y12774D01*
X49415Y12752D01*
X49427Y12735D01*
X49438Y12722D01*
X49441Y12713D01*
X49443Y12711D01*
X49490Y12625D01*
X49526Y12539D01*
X49557Y12456D01*
X49579Y12381D01*
X49587Y12348D01*
X49593Y12317D01*
X49598Y12290D01*
X49604Y12267D01*
X49607Y12248D01*
Y12234D01*
X49609Y12226D01*
Y12223D01*
X47892D01*
Y12677D01*
X48867D01*
X48834Y12724D01*
X48817Y12747D01*
X48803Y12769D01*
X48790Y12785D01*
X48778Y12799D01*
X48770Y12808D01*
X48767Y12810D01*
X48753Y12824D01*
X48737Y12844D01*
X48717Y12863D01*
X48695Y12885D01*
X48648Y12932D01*
X48598Y12979D01*
X48551Y13024D01*
X48529Y13043D01*
X48510Y13060D01*
X48496Y13073D01*
X48485Y13084D01*
X48476Y13090D01*
X48474Y13093D01*
X48432Y13132D01*
X48393Y13168D01*
X48357Y13204D01*
X48324Y13234D01*
X48296Y13264D01*
X48269Y13289D01*
X48247Y13314D01*
X48224Y13337D01*
X48194Y13373D01*
X48169Y13397D01*
X48158Y13414D01*
X48152Y13420D01*
X48105Y13483D01*
X48064Y13544D01*
X48030Y13600D01*
X48003Y13647D01*
X47983Y13688D01*
X47975Y13705D01*
X47967Y13719D01*
X47961Y13730D01*
X47958Y13741D01*
X47956Y13744D01*
Y13747D01*
X47934Y13805D01*
X47920Y13863D01*
X47909Y13918D01*
X47900Y13971D01*
X47895Y14013D01*
Y14032D01*
X47892Y14046D01*
Y14060D01*
Y14068D01*
Y14073D01*
Y14076D01*
X47895Y14132D01*
X47900Y14184D01*
X47911Y14234D01*
X47925Y14284D01*
X47942Y14328D01*
X47961Y14370D01*
X47981Y14409D01*
X48000Y14442D01*
X48022Y14475D01*
X48042Y14503D01*
X48061Y14528D01*
X48078Y14547D01*
X48092Y14561D01*
X48103Y14575D01*
X48108Y14580D01*
X48111Y14583D01*
X48152Y14619D01*
X48199Y14649D01*
X48247Y14677D01*
X48294Y14702D01*
X48344Y14722D01*
X48393Y14738D01*
X48441Y14752D01*
X48488Y14763D01*
X48532Y14771D01*
X48573Y14777D01*
X48610Y14783D01*
X48640Y14785D01*
X48668Y14788D01*
X48704D01*
X48767Y14785D01*
D02*
G37*
G36*
X51011Y14818D02*
X51105Y14807D01*
X51194Y14788D01*
X51277Y14766D01*
X51354Y14738D01*
X51424Y14710D01*
X51490Y14677D01*
X51548Y14644D01*
X51601Y14611D01*
X51648Y14580D01*
X51687Y14550D01*
X51720Y14522D01*
X51748Y14500D01*
X51765Y14483D01*
X51778Y14469D01*
X51781Y14467D01*
X51839Y14398D01*
X51889Y14323D01*
X51933Y14245D01*
X51969Y14165D01*
X52003Y14082D01*
X52028Y13999D01*
X52050Y13918D01*
X52066Y13838D01*
X52080Y13766D01*
X52091Y13697D01*
X52097Y13633D01*
X52102Y13580D01*
X52105Y13536D01*
X52108Y13519D01*
Y13503D01*
Y13492D01*
Y13483D01*
Y13478D01*
Y13475D01*
X52105Y13364D01*
X52094Y13262D01*
X52078Y13165D01*
X52058Y13073D01*
X52033Y12988D01*
X52005Y12910D01*
X51975Y12838D01*
X51945Y12774D01*
X51914Y12716D01*
X51884Y12666D01*
X51856Y12625D01*
X51831Y12589D01*
X51812Y12561D01*
X51795Y12542D01*
X51784Y12528D01*
X51781Y12525D01*
X51717Y12464D01*
X51651Y12411D01*
X51582Y12364D01*
X51512Y12325D01*
X51443Y12292D01*
X51374Y12265D01*
X51305Y12240D01*
X51241Y12223D01*
X51180Y12206D01*
X51122Y12198D01*
X51072Y12190D01*
X51030Y12184D01*
X50994Y12182D01*
X50967Y12179D01*
X50945D01*
X50870Y12182D01*
X50798Y12187D01*
X50728Y12198D01*
X50665Y12209D01*
X50604Y12226D01*
X50548Y12242D01*
X50496Y12262D01*
X50451Y12281D01*
X50407Y12298D01*
X50371Y12317D01*
X50341Y12334D01*
X50313Y12350D01*
X50294Y12361D01*
X50277Y12373D01*
X50269Y12378D01*
X50266Y12381D01*
X50216Y12422D01*
X50172Y12467D01*
X50130Y12514D01*
X50091Y12566D01*
X50058Y12616D01*
X50025Y12669D01*
X49997Y12722D01*
X49972Y12772D01*
X49950Y12819D01*
X49931Y12863D01*
X49917Y12904D01*
X49903Y12938D01*
X49892Y12968D01*
X49886Y12988D01*
X49881Y13001D01*
Y13007D01*
X50382Y13162D01*
X50396Y13112D01*
X50410Y13062D01*
X50427Y13018D01*
X50443Y12979D01*
X50463Y12941D01*
X50479Y12907D01*
X50499Y12877D01*
X50515Y12849D01*
X50532Y12827D01*
X50548Y12805D01*
X50562Y12788D01*
X50573Y12774D01*
X50585Y12763D01*
X50593Y12755D01*
X50595Y12752D01*
X50598Y12749D01*
X50626Y12727D01*
X50656Y12708D01*
X50715Y12675D01*
X50773Y12652D01*
X50828Y12636D01*
X50878Y12628D01*
X50898Y12622D01*
X50917D01*
X50931Y12619D01*
X50950D01*
X51000Y12622D01*
X51050Y12628D01*
X51097Y12639D01*
X51139Y12652D01*
X51180Y12666D01*
X51216Y12683D01*
X51252Y12702D01*
X51283Y12722D01*
X51310Y12741D01*
X51335Y12760D01*
X51354Y12777D01*
X51374Y12791D01*
X51385Y12805D01*
X51396Y12816D01*
X51402Y12821D01*
X51404Y12824D01*
X51435Y12866D01*
X51460Y12913D01*
X51485Y12963D01*
X51504Y13018D01*
X51521Y13076D01*
X51535Y13132D01*
X51554Y13245D01*
X51562Y13301D01*
X51568Y13350D01*
X51571Y13395D01*
X51573Y13436D01*
X51576Y13467D01*
Y13492D01*
Y13508D01*
Y13514D01*
X51573Y13597D01*
X51568Y13675D01*
X51560Y13744D01*
X51548Y13810D01*
X51535Y13871D01*
X51521Y13924D01*
X51504Y13974D01*
X51487Y14015D01*
X51474Y14054D01*
X51457Y14087D01*
X51443Y14115D01*
X51429Y14137D01*
X51418Y14154D01*
X51410Y14168D01*
X51404Y14173D01*
X51402Y14176D01*
X51368Y14212D01*
X51330Y14242D01*
X51294Y14270D01*
X51255Y14295D01*
X51216Y14314D01*
X51177Y14331D01*
X51139Y14345D01*
X51103Y14356D01*
X51069Y14364D01*
X51039Y14370D01*
X51011Y14375D01*
X50986Y14378D01*
X50967Y14381D01*
X50939D01*
X50864Y14375D01*
X50798Y14362D01*
X50740Y14345D01*
X50687Y14323D01*
X50645Y14300D01*
X50629Y14292D01*
X50615Y14284D01*
X50604Y14276D01*
X50595Y14270D01*
X50593Y14267D01*
X50590Y14265D01*
X50540Y14217D01*
X50499Y14168D01*
X50465Y14115D01*
X50440Y14065D01*
X50421Y14021D01*
X50413Y14001D01*
X50407Y13985D01*
X50404Y13971D01*
X50402Y13960D01*
X50399Y13954D01*
Y13951D01*
X49889Y14073D01*
X49906Y14129D01*
X49925Y14181D01*
X49947Y14229D01*
X49967Y14276D01*
X49989Y14317D01*
X50011Y14356D01*
X50033Y14389D01*
X50053Y14422D01*
X50075Y14450D01*
X50091Y14475D01*
X50108Y14494D01*
X50125Y14511D01*
X50136Y14525D01*
X50144Y14533D01*
X50150Y14539D01*
X50152Y14541D01*
X50210Y14591D01*
X50269Y14633D01*
X50332Y14672D01*
X50396Y14702D01*
X50460Y14730D01*
X50524Y14752D01*
X50585Y14771D01*
X50643Y14785D01*
X50698Y14799D01*
X50751Y14807D01*
X50798Y14813D01*
X50836Y14816D01*
X50870Y14818D01*
X50892Y14821D01*
X50914D01*
X51011Y14818D01*
D02*
G37*
G36*
X48508Y30244D02*
X48528Y30202D01*
X48575Y30125D01*
X48625Y30055D01*
X48677Y29994D01*
X48702Y29967D01*
X48724Y29945D01*
X48744Y29922D01*
X48763Y29906D01*
X48777Y29892D01*
X48788Y29884D01*
X48796Y29878D01*
X48799Y29875D01*
X48882Y29814D01*
X48960Y29765D01*
X49029Y29723D01*
X49090Y29693D01*
X49118Y29679D01*
X49143Y29668D01*
X49162Y29659D01*
X49182Y29651D01*
X49195Y29645D01*
X49206Y29643D01*
X49212Y29640D01*
X49215D01*
Y29194D01*
X49148Y29219D01*
X49084Y29244D01*
X49021Y29272D01*
X48963Y29302D01*
X48907Y29332D01*
X48855Y29363D01*
X48807Y29393D01*
X48763Y29424D01*
X48722Y29452D01*
X48688Y29479D01*
X48655Y29504D01*
X48630Y29524D01*
X48611Y29540D01*
X48594Y29554D01*
X48586Y29562D01*
X48583Y29565D01*
Y27723D01*
X48093D01*
Y30288D01*
X48492D01*
X48508Y30244D01*
D02*
G37*
G36*
X50810Y30318D02*
X50904Y30307D01*
X50993Y30288D01*
X51076Y30266D01*
X51154Y30238D01*
X51223Y30211D01*
X51289Y30177D01*
X51348Y30144D01*
X51400Y30111D01*
X51447Y30080D01*
X51486Y30050D01*
X51519Y30022D01*
X51547Y30000D01*
X51564Y29983D01*
X51578Y29969D01*
X51580Y29967D01*
X51639Y29897D01*
X51688Y29823D01*
X51733Y29745D01*
X51769Y29665D01*
X51802Y29582D01*
X51827Y29499D01*
X51849Y29418D01*
X51866Y29338D01*
X51879Y29266D01*
X51890Y29197D01*
X51896Y29133D01*
X51902Y29080D01*
X51904Y29036D01*
X51907Y29019D01*
Y29003D01*
Y28992D01*
Y28983D01*
Y28978D01*
Y28975D01*
X51904Y28864D01*
X51893Y28762D01*
X51877Y28665D01*
X51857Y28573D01*
X51832Y28488D01*
X51805Y28410D01*
X51774Y28338D01*
X51744Y28274D01*
X51713Y28216D01*
X51683Y28166D01*
X51655Y28125D01*
X51630Y28089D01*
X51611Y28061D01*
X51594Y28042D01*
X51583Y28028D01*
X51580Y28025D01*
X51517Y27964D01*
X51450Y27911D01*
X51381Y27864D01*
X51312Y27825D01*
X51242Y27792D01*
X51173Y27765D01*
X51104Y27740D01*
X51040Y27723D01*
X50979Y27706D01*
X50921Y27698D01*
X50871Y27690D01*
X50830Y27684D01*
X50794Y27681D01*
X50766Y27679D01*
X50744D01*
X50669Y27681D01*
X50597Y27687D01*
X50528Y27698D01*
X50464Y27709D01*
X50403Y27726D01*
X50348Y27742D01*
X50295Y27762D01*
X50251Y27781D01*
X50206Y27798D01*
X50170Y27817D01*
X50140Y27834D01*
X50112Y27850D01*
X50093Y27861D01*
X50076Y27873D01*
X50068Y27878D01*
X50065Y27881D01*
X50015Y27922D01*
X49971Y27967D01*
X49929Y28014D01*
X49891Y28067D01*
X49857Y28116D01*
X49824Y28169D01*
X49796Y28222D01*
X49771Y28271D01*
X49749Y28319D01*
X49730Y28363D01*
X49716Y28405D01*
X49702Y28438D01*
X49691Y28468D01*
X49686Y28488D01*
X49680Y28501D01*
Y28507D01*
X50181Y28662D01*
X50195Y28612D01*
X50209Y28562D01*
X50226Y28518D01*
X50242Y28479D01*
X50262Y28440D01*
X50278Y28407D01*
X50298Y28377D01*
X50314Y28349D01*
X50331Y28327D01*
X50348Y28305D01*
X50362Y28288D01*
X50373Y28274D01*
X50384Y28263D01*
X50392Y28255D01*
X50395Y28252D01*
X50397Y28249D01*
X50425Y28227D01*
X50456Y28208D01*
X50514Y28174D01*
X50572Y28152D01*
X50627Y28136D01*
X50677Y28127D01*
X50697Y28122D01*
X50716D01*
X50730Y28119D01*
X50749D01*
X50799Y28122D01*
X50849Y28127D01*
X50896Y28139D01*
X50938Y28152D01*
X50979Y28166D01*
X51015Y28183D01*
X51051Y28202D01*
X51082Y28222D01*
X51109Y28241D01*
X51134Y28260D01*
X51154Y28277D01*
X51173Y28291D01*
X51184Y28305D01*
X51195Y28316D01*
X51201Y28321D01*
X51204Y28324D01*
X51234Y28366D01*
X51259Y28413D01*
X51284Y28463D01*
X51303Y28518D01*
X51320Y28576D01*
X51334Y28632D01*
X51353Y28745D01*
X51362Y28801D01*
X51367Y28850D01*
X51370Y28895D01*
X51372Y28936D01*
X51375Y28967D01*
Y28992D01*
Y29008D01*
Y29014D01*
X51372Y29097D01*
X51367Y29175D01*
X51359Y29244D01*
X51348Y29310D01*
X51334Y29371D01*
X51320Y29424D01*
X51303Y29474D01*
X51287Y29515D01*
X51273Y29554D01*
X51256Y29587D01*
X51242Y29615D01*
X51228Y29637D01*
X51217Y29654D01*
X51209Y29668D01*
X51204Y29673D01*
X51201Y29676D01*
X51168Y29712D01*
X51129Y29742D01*
X51093Y29770D01*
X51054Y29795D01*
X51015Y29814D01*
X50976Y29831D01*
X50938Y29845D01*
X50902Y29856D01*
X50868Y29864D01*
X50838Y29870D01*
X50810Y29875D01*
X50785Y29878D01*
X50766Y29881D01*
X50738D01*
X50663Y29875D01*
X50597Y29862D01*
X50539Y29845D01*
X50486Y29823D01*
X50445Y29801D01*
X50428Y29792D01*
X50414Y29784D01*
X50403Y29776D01*
X50395Y29770D01*
X50392Y29767D01*
X50389Y29765D01*
X50339Y29717D01*
X50298Y29668D01*
X50265Y29615D01*
X50240Y29565D01*
X50220Y29521D01*
X50212Y29501D01*
X50206Y29485D01*
X50204Y29471D01*
X50201Y29460D01*
X50198Y29454D01*
Y29452D01*
X49688Y29573D01*
X49705Y29629D01*
X49724Y29681D01*
X49747Y29728D01*
X49766Y29776D01*
X49788Y29817D01*
X49810Y29856D01*
X49832Y29889D01*
X49852Y29922D01*
X49874Y29950D01*
X49891Y29975D01*
X49907Y29994D01*
X49924Y30011D01*
X49935Y30025D01*
X49943Y30033D01*
X49949Y30039D01*
X49951Y30042D01*
X50010Y30091D01*
X50068Y30133D01*
X50132Y30172D01*
X50195Y30202D01*
X50259Y30230D01*
X50323Y30252D01*
X50384Y30271D01*
X50442Y30285D01*
X50497Y30299D01*
X50550Y30307D01*
X50597Y30313D01*
X50636Y30316D01*
X50669Y30318D01*
X50691Y30321D01*
X50713D01*
X50810Y30318D01*
D02*
G37*
G36*
X39400Y6090D02*
X31600D01*
Y13910D01*
X39400D01*
Y6090D01*
D02*
G37*
G36*
X39577Y35638D02*
X39008D01*
Y36860D01*
X38949Y36818D01*
X38921Y36797D01*
X38893Y36780D01*
X38873Y36762D01*
X38855Y36749D01*
X38845Y36738D01*
X38842Y36735D01*
X38824Y36717D01*
X38800Y36697D01*
X38776Y36672D01*
X38748Y36645D01*
X38689Y36586D01*
X38630Y36523D01*
X38574Y36464D01*
X38550Y36436D01*
X38529Y36412D01*
X38512Y36395D01*
X38498Y36381D01*
X38491Y36370D01*
X38487Y36367D01*
X38439Y36315D01*
X38394Y36266D01*
X38349Y36221D01*
X38311Y36180D01*
X38272Y36145D01*
X38241Y36110D01*
X38210Y36082D01*
X38182Y36055D01*
X38137Y36016D01*
X38106Y35985D01*
X38085Y35971D01*
X38078Y35964D01*
X37998Y35905D01*
X37922Y35853D01*
X37852Y35812D01*
X37793Y35777D01*
X37742Y35753D01*
X37721Y35742D01*
X37703Y35732D01*
X37689Y35725D01*
X37675Y35721D01*
X37672Y35718D01*
X37669D01*
X37596Y35690D01*
X37523Y35673D01*
X37453Y35659D01*
X37387Y35649D01*
X37336Y35642D01*
X37311D01*
X37294Y35638D01*
X37277D01*
X37266D01*
X37259D01*
X37256D01*
X37186Y35642D01*
X37120Y35649D01*
X37058Y35662D01*
X36995Y35680D01*
X36940Y35701D01*
X36888Y35725D01*
X36839Y35749D01*
X36798Y35774D01*
X36756Y35801D01*
X36721Y35826D01*
X36690Y35850D01*
X36666Y35871D01*
X36648Y35888D01*
X36631Y35902D01*
X36624Y35909D01*
X36621Y35912D01*
X36576Y35964D01*
X36537Y36023D01*
X36503Y36082D01*
X36472Y36141D01*
X36447Y36204D01*
X36426Y36266D01*
X36409Y36325D01*
X36395Y36384D01*
X36385Y36440D01*
X36378Y36492D01*
X36371Y36537D01*
X36367Y36575D01*
X36364Y36610D01*
Y36655D01*
X36367Y36735D01*
X36374Y36811D01*
X36385Y36884D01*
X36399Y36950D01*
X36416Y37016D01*
X36433Y37075D01*
X36454Y37127D01*
X36475Y37179D01*
X36496Y37224D01*
X36517Y37262D01*
X36534Y37297D01*
X36551Y37325D01*
X36565Y37345D01*
X36576Y37363D01*
X36582Y37373D01*
X36586Y37377D01*
X36631Y37429D01*
X36680Y37474D01*
X36735Y37516D01*
X36794Y37550D01*
X36853Y37581D01*
X36916Y37609D01*
X36975Y37633D01*
X37034Y37654D01*
X37089Y37672D01*
X37141Y37685D01*
X37190Y37696D01*
X37231Y37703D01*
X37266Y37710D01*
X37294Y37713D01*
X37308Y37717D01*
X37315D01*
X37374Y37106D01*
X37325Y37103D01*
X37280Y37096D01*
X37200Y37078D01*
X37134Y37058D01*
X37082Y37037D01*
X37040Y37012D01*
X37013Y36995D01*
X36999Y36981D01*
X36992Y36978D01*
X36954Y36933D01*
X36923Y36880D01*
X36902Y36828D01*
X36888Y36780D01*
X36881Y36735D01*
X36874Y36700D01*
Y36669D01*
X36877Y36599D01*
X36891Y36540D01*
X36909Y36488D01*
X36930Y36443D01*
X36950Y36409D01*
X36968Y36384D01*
X36981Y36367D01*
X36985Y36364D01*
X37030Y36325D01*
X37082Y36298D01*
X37134Y36280D01*
X37183Y36266D01*
X37231Y36259D01*
X37266Y36252D01*
X37280D01*
X37290D01*
X37297D01*
X37301D01*
X37370Y36259D01*
X37440Y36273D01*
X37502Y36294D01*
X37558Y36315D01*
X37606Y36339D01*
X37644Y36360D01*
X37658Y36370D01*
X37669Y36374D01*
X37672Y36381D01*
X37675D01*
X37703Y36402D01*
X37738Y36429D01*
X37776Y36464D01*
X37814Y36499D01*
X37901Y36582D01*
X37988Y36672D01*
X38030Y36714D01*
X38071Y36756D01*
X38106Y36790D01*
X38137Y36825D01*
X38161Y36853D01*
X38182Y36874D01*
X38196Y36887D01*
X38199Y36891D01*
X38286Y36985D01*
X38370Y37068D01*
X38449Y37148D01*
X38522Y37217D01*
X38588Y37280D01*
X38654Y37335D01*
X38710Y37387D01*
X38762Y37429D01*
X38810Y37467D01*
X38848Y37498D01*
X38887Y37526D01*
X38914Y37547D01*
X38935Y37561D01*
X38952Y37574D01*
X38963Y37578D01*
X38966Y37581D01*
X39074Y37640D01*
X39182Y37685D01*
X39286Y37724D01*
X39379Y37751D01*
X39421Y37762D01*
X39459Y37769D01*
X39494Y37776D01*
X39522Y37783D01*
X39546Y37786D01*
X39563D01*
X39574Y37790D01*
X39577D01*
Y35638D01*
D02*
G37*
G36*
X38161Y35222D02*
X38314Y35211D01*
X38456Y35198D01*
X38585Y35180D01*
X38703Y35159D01*
X38807Y35135D01*
X38901Y35111D01*
X38984Y35083D01*
X39053Y35055D01*
X39116Y35031D01*
X39168Y35007D01*
X39209Y34986D01*
X39241Y34969D01*
X39261Y34951D01*
X39275Y34944D01*
X39279Y34941D01*
X39341Y34885D01*
X39397Y34826D01*
X39445Y34764D01*
X39487Y34701D01*
X39518Y34639D01*
X39549Y34576D01*
X39574Y34517D01*
X39591Y34458D01*
X39605Y34403D01*
X39619Y34351D01*
X39626Y34306D01*
X39629Y34264D01*
X39633Y34233D01*
X39636Y34209D01*
Y34188D01*
X39633Y34104D01*
X39622Y34025D01*
X39605Y33948D01*
X39584Y33879D01*
X39560Y33813D01*
X39532Y33754D01*
X39504Y33698D01*
X39473Y33650D01*
X39442Y33608D01*
X39414Y33570D01*
X39386Y33535D01*
X39362Y33511D01*
X39341Y33490D01*
X39324Y33473D01*
X39313Y33466D01*
X39310Y33463D01*
X39230Y33407D01*
X39140Y33358D01*
X39039Y33317D01*
X38939Y33279D01*
X38831Y33251D01*
X38720Y33223D01*
X38612Y33202D01*
X38505Y33185D01*
X38404Y33174D01*
X38311Y33164D01*
X38224Y33157D01*
X38151Y33150D01*
X38116D01*
X38089D01*
X38064Y33147D01*
X38040D01*
X38026D01*
X38012D01*
X38005D01*
X38002D01*
X37839Y33150D01*
X37686Y33161D01*
X37544Y33174D01*
X37415Y33195D01*
X37297Y33220D01*
X37190Y33244D01*
X37093Y33275D01*
X37009Y33303D01*
X36933Y33331D01*
X36871Y33358D01*
X36815Y33386D01*
X36773Y33411D01*
X36739Y33431D01*
X36714Y33445D01*
X36700Y33456D01*
X36697Y33459D01*
X36638Y33511D01*
X36586Y33567D01*
X36541Y33626D01*
X36503Y33685D01*
X36472Y33744D01*
X36444Y33806D01*
X36423Y33865D01*
X36406Y33921D01*
X36392Y33976D01*
X36381Y34028D01*
X36374Y34073D01*
X36367Y34111D01*
Y34143D01*
X36364Y34167D01*
Y34188D01*
X36367Y34271D01*
X36378Y34351D01*
X36395Y34427D01*
X36416Y34497D01*
X36440Y34563D01*
X36468Y34622D01*
X36499Y34677D01*
X36527Y34726D01*
X36558Y34767D01*
X36589Y34805D01*
X36617Y34837D01*
X36641Y34864D01*
X36662Y34885D01*
X36680Y34899D01*
X36690Y34909D01*
X36694Y34913D01*
X36773Y34969D01*
X36864Y35017D01*
X36961Y35059D01*
X37065Y35094D01*
X37172Y35125D01*
X37280Y35149D01*
X37387Y35170D01*
X37495Y35187D01*
X37596Y35198D01*
X37689Y35208D01*
X37773Y35215D01*
X37849Y35222D01*
X37880D01*
X37908D01*
X37932Y35225D01*
X37957D01*
X37971D01*
X37984D01*
X37991D01*
X37995D01*
X38161Y35222D01*
D02*
G37*
G36*
X39577Y30662D02*
X39008D01*
Y31884D01*
X38949Y31842D01*
X38921Y31821D01*
X38893Y31804D01*
X38873Y31787D01*
X38855Y31773D01*
X38845Y31762D01*
X38842Y31759D01*
X38824Y31741D01*
X38800Y31721D01*
X38776Y31696D01*
X38748Y31669D01*
X38689Y31610D01*
X38630Y31547D01*
X38574Y31488D01*
X38550Y31460D01*
X38529Y31436D01*
X38512Y31419D01*
X38498Y31405D01*
X38491Y31394D01*
X38487Y31391D01*
X38439Y31339D01*
X38394Y31290D01*
X38349Y31245D01*
X38311Y31204D01*
X38272Y31169D01*
X38241Y31134D01*
X38210Y31106D01*
X38182Y31079D01*
X38137Y31040D01*
X38106Y31009D01*
X38085Y30995D01*
X38078Y30988D01*
X37998Y30929D01*
X37922Y30877D01*
X37852Y30836D01*
X37793Y30801D01*
X37742Y30777D01*
X37721Y30766D01*
X37703Y30756D01*
X37689Y30749D01*
X37675Y30746D01*
X37672Y30742D01*
X37669D01*
X37596Y30714D01*
X37523Y30697D01*
X37453Y30683D01*
X37387Y30673D01*
X37336Y30666D01*
X37311D01*
X37294Y30662D01*
X37277D01*
X37266D01*
X37259D01*
X37256D01*
X37186Y30666D01*
X37120Y30673D01*
X37058Y30687D01*
X36995Y30704D01*
X36940Y30725D01*
X36888Y30749D01*
X36839Y30773D01*
X36798Y30798D01*
X36756Y30825D01*
X36721Y30850D01*
X36690Y30874D01*
X36666Y30895D01*
X36648Y30912D01*
X36631Y30926D01*
X36624Y30933D01*
X36621Y30936D01*
X36576Y30988D01*
X36537Y31047D01*
X36503Y31106D01*
X36472Y31165D01*
X36447Y31228D01*
X36426Y31290D01*
X36409Y31349D01*
X36395Y31408D01*
X36385Y31464D01*
X36378Y31516D01*
X36371Y31561D01*
X36367Y31599D01*
X36364Y31634D01*
Y31679D01*
X36367Y31759D01*
X36374Y31835D01*
X36385Y31908D01*
X36399Y31974D01*
X36416Y32040D01*
X36433Y32099D01*
X36454Y32151D01*
X36475Y32203D01*
X36496Y32248D01*
X36517Y32286D01*
X36534Y32321D01*
X36551Y32349D01*
X36565Y32370D01*
X36576Y32387D01*
X36582Y32397D01*
X36586Y32401D01*
X36631Y32453D01*
X36680Y32498D01*
X36735Y32539D01*
X36794Y32574D01*
X36853Y32605D01*
X36916Y32633D01*
X36975Y32658D01*
X37034Y32678D01*
X37089Y32696D01*
X37141Y32710D01*
X37190Y32720D01*
X37231Y32727D01*
X37266Y32734D01*
X37294Y32737D01*
X37308Y32741D01*
X37315D01*
X37374Y32130D01*
X37325Y32127D01*
X37280Y32120D01*
X37200Y32102D01*
X37134Y32081D01*
X37082Y32061D01*
X37040Y32036D01*
X37013Y32019D01*
X36999Y32005D01*
X36992Y32002D01*
X36954Y31957D01*
X36923Y31905D01*
X36902Y31852D01*
X36888Y31804D01*
X36881Y31759D01*
X36874Y31724D01*
Y31693D01*
X36877Y31624D01*
X36891Y31565D01*
X36909Y31512D01*
X36930Y31467D01*
X36950Y31433D01*
X36968Y31408D01*
X36981Y31391D01*
X36985Y31387D01*
X37030Y31349D01*
X37082Y31322D01*
X37134Y31304D01*
X37183Y31290D01*
X37231Y31283D01*
X37266Y31276D01*
X37280D01*
X37290D01*
X37297D01*
X37301D01*
X37370Y31283D01*
X37440Y31297D01*
X37502Y31318D01*
X37558Y31339D01*
X37606Y31363D01*
X37644Y31384D01*
X37658Y31394D01*
X37669Y31398D01*
X37672Y31405D01*
X37675D01*
X37703Y31426D01*
X37738Y31453D01*
X37776Y31488D01*
X37814Y31523D01*
X37901Y31606D01*
X37988Y31696D01*
X38030Y31738D01*
X38071Y31780D01*
X38106Y31814D01*
X38137Y31849D01*
X38161Y31877D01*
X38182Y31898D01*
X38196Y31912D01*
X38199Y31915D01*
X38286Y32009D01*
X38370Y32092D01*
X38449Y32172D01*
X38522Y32241D01*
X38588Y32304D01*
X38654Y32359D01*
X38710Y32411D01*
X38762Y32453D01*
X38810Y32491D01*
X38848Y32522D01*
X38887Y32550D01*
X38914Y32571D01*
X38935Y32585D01*
X38952Y32599D01*
X38963Y32602D01*
X38966Y32605D01*
X39074Y32664D01*
X39182Y32710D01*
X39286Y32748D01*
X39379Y32776D01*
X39421Y32786D01*
X39459Y32793D01*
X39494Y32800D01*
X39522Y32807D01*
X39546Y32810D01*
X39563D01*
X39574Y32814D01*
X39577D01*
Y30662D01*
D02*
G37*
G36*
X38932Y29045D02*
X39577D01*
Y28452D01*
X38932D01*
Y28053D01*
X38394D01*
Y28452D01*
X36364D01*
Y28969D01*
X38397Y30353D01*
X38932D01*
Y29045D01*
D02*
G37*
G36*
X38723Y26491D02*
X38109D01*
Y27699D01*
X38723D01*
Y26491D01*
D02*
G37*
G36*
X38161Y26269D02*
X38314Y26259D01*
X38456Y26245D01*
X38585Y26228D01*
X38703Y26207D01*
X38807Y26182D01*
X38901Y26158D01*
X38984Y26130D01*
X39053Y26103D01*
X39116Y26078D01*
X39168Y26054D01*
X39209Y26033D01*
X39241Y26016D01*
X39261Y25999D01*
X39275Y25992D01*
X39279Y25988D01*
X39341Y25933D01*
X39397Y25874D01*
X39445Y25811D01*
X39487Y25749D01*
X39518Y25686D01*
X39549Y25624D01*
X39574Y25565D01*
X39591Y25506D01*
X39605Y25450D01*
X39619Y25398D01*
X39626Y25353D01*
X39629Y25311D01*
X39633Y25280D01*
X39636Y25256D01*
Y25235D01*
X39633Y25152D01*
X39622Y25072D01*
X39605Y24996D01*
X39584Y24926D01*
X39560Y24860D01*
X39532Y24801D01*
X39504Y24746D01*
X39473Y24697D01*
X39442Y24656D01*
X39414Y24618D01*
X39386Y24583D01*
X39362Y24558D01*
X39341Y24538D01*
X39324Y24520D01*
X39313Y24513D01*
X39310Y24510D01*
X39230Y24454D01*
X39140Y24406D01*
X39039Y24364D01*
X38939Y24326D01*
X38831Y24298D01*
X38720Y24271D01*
X38612Y24250D01*
X38505Y24232D01*
X38404Y24222D01*
X38311Y24212D01*
X38224Y24205D01*
X38151Y24198D01*
X38116D01*
X38089D01*
X38064Y24194D01*
X38040D01*
X38026D01*
X38012D01*
X38005D01*
X38002D01*
X37839Y24198D01*
X37686Y24208D01*
X37544Y24222D01*
X37415Y24243D01*
X37297Y24267D01*
X37190Y24291D01*
X37093Y24323D01*
X37009Y24350D01*
X36933Y24378D01*
X36871Y24406D01*
X36815Y24434D01*
X36773Y24458D01*
X36739Y24479D01*
X36714Y24493D01*
X36700Y24503D01*
X36697Y24507D01*
X36638Y24558D01*
X36586Y24614D01*
X36541Y24673D01*
X36503Y24732D01*
X36472Y24791D01*
X36444Y24854D01*
X36423Y24913D01*
X36406Y24968D01*
X36392Y25023D01*
X36381Y25076D01*
X36374Y25121D01*
X36367Y25159D01*
Y25190D01*
X36364Y25214D01*
Y25235D01*
X36367Y25319D01*
X36378Y25398D01*
X36395Y25475D01*
X36416Y25544D01*
X36440Y25610D01*
X36468Y25669D01*
X36499Y25725D01*
X36527Y25773D01*
X36558Y25815D01*
X36589Y25853D01*
X36617Y25884D01*
X36641Y25912D01*
X36662Y25933D01*
X36680Y25947D01*
X36690Y25957D01*
X36694Y25960D01*
X36773Y26016D01*
X36864Y26065D01*
X36961Y26106D01*
X37065Y26141D01*
X37172Y26172D01*
X37280Y26196D01*
X37387Y26217D01*
X37495Y26234D01*
X37596Y26245D01*
X37689Y26255D01*
X37773Y26262D01*
X37849Y26269D01*
X37880D01*
X37908D01*
X37932Y26273D01*
X37957D01*
X37971D01*
X37984D01*
X37991D01*
X37995D01*
X38161Y26269D01*
D02*
G37*
G36*
X36985Y22386D02*
X37089Y22466D01*
X37193Y22539D01*
X37301Y22612D01*
X37408Y22678D01*
X37512Y22740D01*
X37617Y22796D01*
X37714Y22848D01*
X37807Y22896D01*
X37894Y22938D01*
X37974Y22976D01*
X38047Y23007D01*
X38106Y23032D01*
X38154Y23053D01*
X38193Y23070D01*
X38206Y23073D01*
X38217Y23077D01*
X38220Y23080D01*
X38224D01*
X38352Y23125D01*
X38481Y23167D01*
X38605Y23202D01*
X38727Y23230D01*
X38845Y23257D01*
X38956Y23278D01*
X39060Y23295D01*
X39161Y23313D01*
X39251Y23323D01*
X39331Y23334D01*
X39404Y23341D01*
X39463Y23344D01*
X39511Y23347D01*
X39546Y23351D01*
X39560D01*
X39570D01*
X39574D01*
X39577D01*
Y22758D01*
X39414Y22754D01*
X39248Y22737D01*
X39088Y22716D01*
X39011Y22705D01*
X38939Y22692D01*
X38869Y22678D01*
X38807Y22667D01*
X38755Y22654D01*
X38706Y22643D01*
X38668Y22636D01*
X38640Y22629D01*
X38623Y22622D01*
X38616D01*
X38418Y22563D01*
X38321Y22532D01*
X38227Y22497D01*
X38140Y22463D01*
X38054Y22431D01*
X37977Y22397D01*
X37901Y22366D01*
X37835Y22334D01*
X37776Y22303D01*
X37724Y22279D01*
X37679Y22258D01*
X37644Y22237D01*
X37617Y22223D01*
X37603Y22216D01*
X37596Y22213D01*
X37509Y22161D01*
X37426Y22112D01*
X37349Y22064D01*
X37280Y22015D01*
X37214Y21970D01*
X37152Y21925D01*
X37096Y21883D01*
X37047Y21845D01*
X37006Y21810D01*
X36968Y21779D01*
X36933Y21751D01*
X36909Y21727D01*
X36888Y21706D01*
X36871Y21692D01*
X36864Y21685D01*
X36860Y21682D01*
X36416D01*
Y23781D01*
X36985D01*
Y22386D01*
D02*
G37*
G36*
X38723Y20027D02*
X38109D01*
Y21234D01*
X38723D01*
Y20027D01*
D02*
G37*
G36*
X39577Y17733D02*
X39008D01*
Y18955D01*
X38949Y18913D01*
X38921Y18892D01*
X38893Y18875D01*
X38873Y18857D01*
X38855Y18843D01*
X38845Y18833D01*
X38842Y18830D01*
X38824Y18812D01*
X38800Y18791D01*
X38776Y18767D01*
X38748Y18739D01*
X38689Y18680D01*
X38630Y18618D01*
X38574Y18559D01*
X38550Y18531D01*
X38529Y18507D01*
X38512Y18489D01*
X38498Y18476D01*
X38491Y18465D01*
X38487Y18462D01*
X38439Y18410D01*
X38394Y18361D01*
X38349Y18316D01*
X38311Y18274D01*
X38272Y18240D01*
X38241Y18205D01*
X38210Y18177D01*
X38182Y18149D01*
X38137Y18111D01*
X38106Y18080D01*
X38085Y18066D01*
X38078Y18059D01*
X37998Y18000D01*
X37922Y17948D01*
X37852Y17907D01*
X37793Y17872D01*
X37742Y17848D01*
X37721Y17837D01*
X37703Y17827D01*
X37689Y17820D01*
X37675Y17816D01*
X37672Y17813D01*
X37669D01*
X37596Y17785D01*
X37523Y17768D01*
X37453Y17754D01*
X37387Y17743D01*
X37336Y17737D01*
X37311D01*
X37294Y17733D01*
X37277D01*
X37266D01*
X37259D01*
X37256D01*
X37186Y17737D01*
X37120Y17743D01*
X37058Y17757D01*
X36995Y17775D01*
X36940Y17796D01*
X36888Y17820D01*
X36839Y17844D01*
X36798Y17868D01*
X36756Y17896D01*
X36721Y17920D01*
X36690Y17945D01*
X36666Y17966D01*
X36648Y17983D01*
X36631Y17997D01*
X36624Y18004D01*
X36621Y18007D01*
X36576Y18059D01*
X36537Y18118D01*
X36503Y18177D01*
X36472Y18236D01*
X36447Y18299D01*
X36426Y18361D01*
X36409Y18420D01*
X36395Y18479D01*
X36385Y18535D01*
X36378Y18587D01*
X36371Y18632D01*
X36367Y18670D01*
X36364Y18705D01*
Y18750D01*
X36367Y18830D01*
X36374Y18906D01*
X36385Y18979D01*
X36399Y19045D01*
X36416Y19111D01*
X36433Y19170D01*
X36454Y19222D01*
X36475Y19274D01*
X36496Y19319D01*
X36517Y19357D01*
X36534Y19392D01*
X36551Y19420D01*
X36565Y19440D01*
X36576Y19458D01*
X36582Y19468D01*
X36586Y19471D01*
X36631Y19524D01*
X36680Y19569D01*
X36735Y19610D01*
X36794Y19645D01*
X36853Y19676D01*
X36916Y19704D01*
X36975Y19728D01*
X37034Y19749D01*
X37089Y19767D01*
X37141Y19780D01*
X37190Y19791D01*
X37231Y19798D01*
X37266Y19805D01*
X37294Y19808D01*
X37308Y19812D01*
X37315D01*
X37374Y19201D01*
X37325Y19197D01*
X37280Y19190D01*
X37200Y19173D01*
X37134Y19152D01*
X37082Y19131D01*
X37040Y19107D01*
X37013Y19090D01*
X36999Y19076D01*
X36992Y19072D01*
X36954Y19027D01*
X36923Y18975D01*
X36902Y18923D01*
X36888Y18875D01*
X36881Y18830D01*
X36874Y18795D01*
Y18764D01*
X36877Y18694D01*
X36891Y18635D01*
X36909Y18583D01*
X36930Y18538D01*
X36950Y18503D01*
X36968Y18479D01*
X36981Y18462D01*
X36985Y18458D01*
X37030Y18420D01*
X37082Y18392D01*
X37134Y18375D01*
X37183Y18361D01*
X37231Y18354D01*
X37266Y18347D01*
X37280D01*
X37290D01*
X37297D01*
X37301D01*
X37370Y18354D01*
X37440Y18368D01*
X37502Y18389D01*
X37558Y18410D01*
X37606Y18434D01*
X37644Y18455D01*
X37658Y18465D01*
X37669Y18469D01*
X37672Y18476D01*
X37675D01*
X37703Y18496D01*
X37738Y18524D01*
X37776Y18559D01*
X37814Y18594D01*
X37901Y18677D01*
X37988Y18767D01*
X38030Y18809D01*
X38071Y18850D01*
X38106Y18885D01*
X38137Y18920D01*
X38161Y18947D01*
X38182Y18968D01*
X38196Y18982D01*
X38199Y18986D01*
X38286Y19079D01*
X38370Y19163D01*
X38449Y19242D01*
X38522Y19312D01*
X38588Y19374D01*
X38654Y19430D01*
X38710Y19482D01*
X38762Y19524D01*
X38810Y19562D01*
X38848Y19593D01*
X38887Y19621D01*
X38914Y19642D01*
X38935Y19655D01*
X38952Y19669D01*
X38963Y19673D01*
X38966Y19676D01*
X39074Y19735D01*
X39182Y19780D01*
X39286Y19818D01*
X39379Y19846D01*
X39421Y19857D01*
X39459Y19864D01*
X39494Y19871D01*
X39522Y19877D01*
X39546Y19881D01*
X39563D01*
X39574Y19884D01*
X39577D01*
Y17733D01*
D02*
G37*
G36*
X38803Y17331D02*
X38876Y17313D01*
X38942Y17292D01*
X39005Y17271D01*
X39064Y17244D01*
X39116Y17216D01*
X39164Y17188D01*
X39209Y17161D01*
X39251Y17129D01*
X39286Y17105D01*
X39317Y17077D01*
X39341Y17056D01*
X39362Y17039D01*
X39376Y17025D01*
X39383Y17015D01*
X39386Y17011D01*
X39431Y16956D01*
X39470Y16897D01*
X39501Y16838D01*
X39532Y16775D01*
X39556Y16716D01*
X39574Y16657D01*
X39591Y16598D01*
X39605Y16543D01*
X39615Y16491D01*
X39622Y16442D01*
X39629Y16397D01*
X39633Y16362D01*
Y16331D01*
X39636Y16310D01*
Y16289D01*
X39633Y16206D01*
X39622Y16123D01*
X39608Y16047D01*
X39591Y15974D01*
X39567Y15908D01*
X39542Y15842D01*
X39515Y15783D01*
X39487Y15731D01*
X39463Y15682D01*
X39435Y15641D01*
X39411Y15606D01*
X39386Y15575D01*
X39369Y15550D01*
X39355Y15533D01*
X39345Y15523D01*
X39341Y15519D01*
X39282Y15464D01*
X39223Y15418D01*
X39164Y15377D01*
X39102Y15342D01*
X39043Y15311D01*
X38984Y15287D01*
X38925Y15266D01*
X38869Y15248D01*
X38817Y15235D01*
X38772Y15228D01*
X38730Y15221D01*
X38692Y15214D01*
X38664D01*
X38640Y15210D01*
X38626D01*
X38623D01*
X38571Y15214D01*
X38519Y15217D01*
X38422Y15235D01*
X38338Y15262D01*
X38265Y15294D01*
X38234Y15307D01*
X38206Y15325D01*
X38182Y15339D01*
X38161Y15349D01*
X38148Y15363D01*
X38137Y15370D01*
X38130Y15373D01*
X38127Y15377D01*
X38089Y15408D01*
X38054Y15443D01*
X37998Y15512D01*
X37950Y15585D01*
X37915Y15658D01*
X37891Y15717D01*
X37880Y15745D01*
X37873Y15769D01*
X37866Y15786D01*
X37863Y15800D01*
X37859Y15811D01*
Y15814D01*
X37811Y15734D01*
X37759Y15661D01*
X37703Y15599D01*
X37648Y15547D01*
X37592Y15502D01*
X37537Y15464D01*
X37481Y15436D01*
X37429Y15412D01*
X37381Y15391D01*
X37332Y15377D01*
X37290Y15367D01*
X37256Y15360D01*
X37228Y15356D01*
X37204Y15353D01*
X37190D01*
X37186D01*
X37131Y15356D01*
X37079Y15363D01*
X37027Y15373D01*
X36978Y15387D01*
X36888Y15426D01*
X36812Y15467D01*
X36777Y15488D01*
X36746Y15509D01*
X36718Y15530D01*
X36697Y15547D01*
X36680Y15561D01*
X36666Y15571D01*
X36659Y15578D01*
X36655Y15582D01*
X36603Y15634D01*
X36558Y15689D01*
X36520Y15748D01*
X36485Y15811D01*
X36458Y15870D01*
X36433Y15929D01*
X36416Y15988D01*
X36399Y16047D01*
X36388Y16099D01*
X36378Y16147D01*
X36374Y16192D01*
X36367Y16230D01*
Y16262D01*
X36364Y16286D01*
Y16307D01*
X36367Y16404D01*
X36378Y16494D01*
X36395Y16578D01*
X36413Y16647D01*
X36423Y16678D01*
X36433Y16706D01*
X36440Y16730D01*
X36447Y16751D01*
X36454Y16768D01*
X36461Y16779D01*
X36465Y16786D01*
Y16789D01*
X36506Y16865D01*
X36551Y16931D01*
X36596Y16987D01*
X36641Y17032D01*
X36680Y17070D01*
X36714Y17098D01*
X36735Y17112D01*
X36739Y17119D01*
X36742D01*
X36812Y17161D01*
X36888Y17195D01*
X36964Y17226D01*
X37040Y17251D01*
X37106Y17271D01*
X37134Y17278D01*
X37159Y17285D01*
X37179Y17289D01*
X37193Y17292D01*
X37204Y17296D01*
X37207D01*
X37301Y16730D01*
X37228Y16716D01*
X37162Y16699D01*
X37110Y16678D01*
X37065Y16654D01*
X37030Y16630D01*
X37006Y16612D01*
X36988Y16598D01*
X36985Y16595D01*
X36947Y16550D01*
X36919Y16505D01*
X36902Y16459D01*
X36888Y16418D01*
X36881Y16380D01*
X36874Y16352D01*
Y16324D01*
X36877Y16265D01*
X36888Y16213D01*
X36905Y16172D01*
X36923Y16133D01*
X36940Y16102D01*
X36957Y16081D01*
X36968Y16067D01*
X36971Y16064D01*
X37009Y16033D01*
X37051Y16008D01*
X37096Y15991D01*
X37134Y15977D01*
X37172Y15970D01*
X37200Y15967D01*
X37221D01*
X37225D01*
X37228D01*
X37297Y15974D01*
X37356Y15988D01*
X37408Y16008D01*
X37453Y16033D01*
X37488Y16060D01*
X37512Y16081D01*
X37526Y16095D01*
X37533Y16102D01*
X37568Y16158D01*
X37596Y16217D01*
X37617Y16279D01*
X37627Y16342D01*
X37634Y16397D01*
Y16421D01*
X37637Y16442D01*
Y16484D01*
X38137Y16550D01*
X38120Y16491D01*
X38109Y16435D01*
X38099Y16390D01*
X38095Y16349D01*
X38092Y16314D01*
X38089Y16289D01*
Y16269D01*
X38095Y16203D01*
X38109Y16144D01*
X38134Y16092D01*
X38158Y16047D01*
X38182Y16012D01*
X38206Y15984D01*
X38220Y15970D01*
X38227Y15963D01*
X38283Y15922D01*
X38342Y15890D01*
X38404Y15870D01*
X38463Y15852D01*
X38515Y15845D01*
X38536Y15842D01*
X38557D01*
X38574Y15838D01*
X38585D01*
X38592D01*
X38595D01*
X38682Y15845D01*
X38758Y15859D01*
X38824Y15880D01*
X38880Y15904D01*
X38925Y15929D01*
X38956Y15949D01*
X38977Y15963D01*
X38984Y15970D01*
X39032Y16022D01*
X39067Y16078D01*
X39091Y16130D01*
X39109Y16182D01*
X39119Y16227D01*
X39123Y16262D01*
X39126Y16276D01*
Y16293D01*
X39123Y16355D01*
X39109Y16414D01*
X39088Y16466D01*
X39067Y16512D01*
X39046Y16546D01*
X39025Y16574D01*
X39011Y16588D01*
X39008Y16595D01*
X38959Y16636D01*
X38901Y16671D01*
X38845Y16699D01*
X38786Y16716D01*
X38737Y16734D01*
X38696Y16741D01*
X38678Y16744D01*
X38668Y16748D01*
X38661D01*
X38658D01*
X38730Y17341D01*
X38803Y17331D01*
D02*
G37*
G36*
X32703Y37581D02*
X32672Y37501D01*
X32637Y37421D01*
X32599Y37348D01*
X32561Y37279D01*
X32523Y37213D01*
X32485Y37154D01*
X32447Y37099D01*
X32412Y37047D01*
X32377Y37005D01*
X32346Y36963D01*
X32322Y36932D01*
X32301Y36908D01*
X32283Y36887D01*
X32273Y36877D01*
X32270Y36873D01*
X34577D01*
Y36259D01*
X31364D01*
Y36759D01*
X31419Y36779D01*
X31471Y36804D01*
X31569Y36863D01*
X31655Y36925D01*
X31732Y36991D01*
X31766Y37022D01*
X31794Y37050D01*
X31822Y37074D01*
X31843Y37099D01*
X31860Y37116D01*
X31870Y37130D01*
X31877Y37140D01*
X31881Y37144D01*
X31957Y37248D01*
X32020Y37345D01*
X32072Y37432D01*
X32110Y37508D01*
X32127Y37543D01*
X32141Y37574D01*
X32152Y37598D01*
X32162Y37623D01*
X32169Y37640D01*
X32172Y37654D01*
X32176Y37661D01*
Y37664D01*
X32735D01*
X32703Y37581D01*
D02*
G37*
G36*
Y35093D02*
X32672Y35013D01*
X32637Y34933D01*
X32599Y34861D01*
X32561Y34791D01*
X32523Y34725D01*
X32485Y34666D01*
X32447Y34611D01*
X32412Y34559D01*
X32377Y34517D01*
X32346Y34475D01*
X32322Y34444D01*
X32301Y34420D01*
X32283Y34399D01*
X32273Y34389D01*
X32270Y34385D01*
X34577D01*
Y33771D01*
X31364D01*
Y34271D01*
X31419Y34291D01*
X31471Y34316D01*
X31569Y34375D01*
X31655Y34437D01*
X31732Y34503D01*
X31766Y34534D01*
X31794Y34562D01*
X31822Y34586D01*
X31843Y34611D01*
X31860Y34628D01*
X31870Y34642D01*
X31877Y34652D01*
X31881Y34656D01*
X31957Y34760D01*
X32020Y34857D01*
X32072Y34944D01*
X32110Y35020D01*
X32127Y35055D01*
X32141Y35086D01*
X32152Y35110D01*
X32162Y35135D01*
X32169Y35152D01*
X32172Y35166D01*
X32176Y35173D01*
Y35176D01*
X32735D01*
X32703Y35093D01*
D02*
G37*
G36*
X33724Y31585D02*
X33109D01*
Y32792D01*
X33724D01*
Y31585D01*
D02*
G37*
G36*
X32703Y31116D02*
X32672Y31037D01*
X32637Y30957D01*
X32599Y30884D01*
X32561Y30814D01*
X32523Y30749D01*
X32485Y30690D01*
X32447Y30634D01*
X32412Y30582D01*
X32377Y30540D01*
X32346Y30499D01*
X32322Y30468D01*
X32301Y30443D01*
X32283Y30422D01*
X32273Y30412D01*
X32270Y30408D01*
X34577D01*
Y29794D01*
X31364D01*
Y30294D01*
X31419Y30315D01*
X31471Y30339D01*
X31569Y30398D01*
X31655Y30461D01*
X31732Y30527D01*
X31766Y30558D01*
X31794Y30586D01*
X31822Y30610D01*
X31843Y30634D01*
X31860Y30651D01*
X31870Y30665D01*
X31877Y30676D01*
X31881Y30679D01*
X31957Y30783D01*
X32020Y30880D01*
X32072Y30967D01*
X32110Y31043D01*
X32127Y31078D01*
X32141Y31109D01*
X32152Y31134D01*
X32162Y31158D01*
X32169Y31175D01*
X32172Y31189D01*
X32176Y31196D01*
Y31200D01*
X32735D01*
X32703Y31116D01*
D02*
G37*
G36*
X33161Y28875D02*
X33314Y28864D01*
X33456Y28850D01*
X33585Y28833D01*
X33703Y28812D01*
X33807Y28788D01*
X33900Y28764D01*
X33984Y28736D01*
X34053Y28708D01*
X34116Y28684D01*
X34168Y28660D01*
X34209Y28639D01*
X34240Y28621D01*
X34261Y28604D01*
X34275Y28597D01*
X34279Y28594D01*
X34341Y28538D01*
X34397Y28479D01*
X34445Y28417D01*
X34487Y28354D01*
X34518Y28292D01*
X34549Y28229D01*
X34574Y28170D01*
X34591Y28111D01*
X34605Y28056D01*
X34619Y28004D01*
X34626Y27959D01*
X34629Y27917D01*
X34633Y27886D01*
X34636Y27861D01*
Y27841D01*
X34633Y27757D01*
X34622Y27678D01*
X34605Y27601D01*
X34584Y27532D01*
X34560Y27466D01*
X34532Y27407D01*
X34504Y27351D01*
X34473Y27303D01*
X34442Y27261D01*
X34414Y27223D01*
X34386Y27188D01*
X34362Y27164D01*
X34341Y27143D01*
X34324Y27126D01*
X34313Y27119D01*
X34310Y27115D01*
X34230Y27060D01*
X34140Y27011D01*
X34039Y26970D01*
X33939Y26932D01*
X33831Y26904D01*
X33720Y26876D01*
X33612Y26855D01*
X33505Y26838D01*
X33404Y26827D01*
X33311Y26817D01*
X33224Y26810D01*
X33151Y26803D01*
X33116D01*
X33088D01*
X33064Y26800D01*
X33040D01*
X33026D01*
X33012D01*
X33005D01*
X33002D01*
X32839Y26803D01*
X32686Y26814D01*
X32544Y26827D01*
X32415Y26848D01*
X32297Y26873D01*
X32190Y26897D01*
X32093Y26928D01*
X32009Y26956D01*
X31933Y26984D01*
X31870Y27011D01*
X31815Y27039D01*
X31773Y27063D01*
X31739Y27084D01*
X31714Y27098D01*
X31701Y27108D01*
X31697Y27112D01*
X31638Y27164D01*
X31586Y27220D01*
X31541Y27279D01*
X31503Y27338D01*
X31471Y27397D01*
X31444Y27459D01*
X31423Y27518D01*
X31405Y27573D01*
X31392Y27629D01*
X31381Y27681D01*
X31374Y27726D01*
X31367Y27764D01*
Y27796D01*
X31364Y27820D01*
Y27841D01*
X31367Y27924D01*
X31378Y28004D01*
X31395Y28080D01*
X31416Y28150D01*
X31440Y28216D01*
X31468Y28275D01*
X31499Y28330D01*
X31527Y28379D01*
X31558Y28420D01*
X31589Y28458D01*
X31617Y28490D01*
X31642Y28517D01*
X31662Y28538D01*
X31680Y28552D01*
X31690Y28563D01*
X31694Y28566D01*
X31773Y28621D01*
X31864Y28670D01*
X31961Y28712D01*
X32065Y28746D01*
X32172Y28778D01*
X32280Y28802D01*
X32388Y28823D01*
X32495Y28840D01*
X32596Y28850D01*
X32689Y28861D01*
X32773Y28868D01*
X32849Y28875D01*
X32880D01*
X32908D01*
X32932Y28878D01*
X32957D01*
X32970D01*
X32984D01*
X32991D01*
X32995D01*
X33161Y28875D01*
D02*
G37*
G36*
Y26387D02*
X33314Y26376D01*
X33456Y26362D01*
X33585Y26345D01*
X33703Y26324D01*
X33807Y26300D01*
X33900Y26276D01*
X33984Y26248D01*
X34053Y26220D01*
X34116Y26196D01*
X34168Y26172D01*
X34209Y26151D01*
X34240Y26133D01*
X34261Y26116D01*
X34275Y26109D01*
X34279Y26106D01*
X34341Y26050D01*
X34397Y25991D01*
X34445Y25929D01*
X34487Y25866D01*
X34518Y25804D01*
X34549Y25741D01*
X34574Y25682D01*
X34591Y25623D01*
X34605Y25568D01*
X34619Y25516D01*
X34626Y25471D01*
X34629Y25429D01*
X34633Y25398D01*
X34636Y25374D01*
Y25353D01*
X34633Y25269D01*
X34622Y25190D01*
X34605Y25113D01*
X34584Y25044D01*
X34560Y24978D01*
X34532Y24919D01*
X34504Y24863D01*
X34473Y24815D01*
X34442Y24773D01*
X34414Y24735D01*
X34386Y24700D01*
X34362Y24676D01*
X34341Y24655D01*
X34324Y24638D01*
X34313Y24631D01*
X34310Y24627D01*
X34230Y24572D01*
X34140Y24523D01*
X34039Y24482D01*
X33939Y24444D01*
X33831Y24416D01*
X33720Y24388D01*
X33612Y24367D01*
X33505Y24350D01*
X33404Y24340D01*
X33311Y24329D01*
X33224Y24322D01*
X33151Y24315D01*
X33116D01*
X33088D01*
X33064Y24312D01*
X33040D01*
X33026D01*
X33012D01*
X33005D01*
X33002D01*
X32839Y24315D01*
X32686Y24326D01*
X32544Y24340D01*
X32415Y24360D01*
X32297Y24385D01*
X32190Y24409D01*
X32093Y24440D01*
X32009Y24468D01*
X31933Y24496D01*
X31870Y24523D01*
X31815Y24551D01*
X31773Y24575D01*
X31739Y24596D01*
X31714Y24610D01*
X31701Y24621D01*
X31697Y24624D01*
X31638Y24676D01*
X31586Y24732D01*
X31541Y24791D01*
X31503Y24850D01*
X31471Y24908D01*
X31444Y24971D01*
X31423Y25030D01*
X31405Y25085D01*
X31392Y25141D01*
X31381Y25193D01*
X31374Y25238D01*
X31367Y25276D01*
Y25308D01*
X31364Y25332D01*
Y25353D01*
X31367Y25436D01*
X31378Y25516D01*
X31395Y25592D01*
X31416Y25662D01*
X31440Y25727D01*
X31468Y25787D01*
X31499Y25842D01*
X31527Y25891D01*
X31558Y25932D01*
X31589Y25970D01*
X31617Y26002D01*
X31642Y26029D01*
X31662Y26050D01*
X31680Y26064D01*
X31690Y26074D01*
X31694Y26078D01*
X31773Y26133D01*
X31864Y26182D01*
X31961Y26224D01*
X32065Y26258D01*
X32172Y26290D01*
X32280Y26314D01*
X32388Y26335D01*
X32495Y26352D01*
X32596Y26362D01*
X32689Y26373D01*
X32773Y26380D01*
X32849Y26387D01*
X32880D01*
X32908D01*
X32932Y26390D01*
X32957D01*
X32970D01*
X32984D01*
X32991D01*
X32995D01*
X33161Y26387D01*
D02*
G37*
G36*
X33803Y23913D02*
X33876Y23895D01*
X33942Y23875D01*
X34005Y23854D01*
X34064Y23826D01*
X34116Y23798D01*
X34164Y23770D01*
X34209Y23743D01*
X34251Y23711D01*
X34286Y23687D01*
X34317Y23659D01*
X34341Y23639D01*
X34362Y23621D01*
X34376Y23607D01*
X34383Y23597D01*
X34386Y23593D01*
X34431Y23538D01*
X34470Y23479D01*
X34501Y23420D01*
X34532Y23358D01*
X34556Y23299D01*
X34574Y23239D01*
X34591Y23180D01*
X34605Y23125D01*
X34615Y23073D01*
X34622Y23024D01*
X34629Y22979D01*
X34633Y22944D01*
Y22913D01*
X34636Y22893D01*
Y22872D01*
X34633Y22788D01*
X34622Y22705D01*
X34608Y22629D01*
X34591Y22556D01*
X34567Y22490D01*
X34542Y22424D01*
X34515Y22365D01*
X34487Y22313D01*
X34463Y22264D01*
X34435Y22223D01*
X34411Y22188D01*
X34386Y22157D01*
X34369Y22133D01*
X34355Y22115D01*
X34345Y22105D01*
X34341Y22101D01*
X34282Y22046D01*
X34223Y22001D01*
X34164Y21959D01*
X34102Y21924D01*
X34043Y21893D01*
X33984Y21869D01*
X33925Y21848D01*
X33869Y21831D01*
X33817Y21817D01*
X33772Y21810D01*
X33730Y21803D01*
X33692Y21796D01*
X33665D01*
X33640Y21792D01*
X33626D01*
X33623D01*
X33571Y21796D01*
X33519Y21799D01*
X33422Y21817D01*
X33338Y21845D01*
X33265Y21876D01*
X33234Y21890D01*
X33206Y21907D01*
X33182Y21921D01*
X33161Y21931D01*
X33147Y21945D01*
X33137Y21952D01*
X33130Y21956D01*
X33127Y21959D01*
X33088Y21990D01*
X33054Y22025D01*
X32998Y22094D01*
X32950Y22167D01*
X32915Y22240D01*
X32891Y22299D01*
X32880Y22327D01*
X32873Y22351D01*
X32866Y22368D01*
X32863Y22382D01*
X32860Y22393D01*
Y22396D01*
X32811Y22317D01*
X32759Y22244D01*
X32703Y22181D01*
X32648Y22129D01*
X32592Y22084D01*
X32537Y22046D01*
X32481Y22018D01*
X32429Y21994D01*
X32381Y21973D01*
X32332Y21959D01*
X32290Y21949D01*
X32256Y21942D01*
X32228Y21938D01*
X32204Y21935D01*
X32190D01*
X32186D01*
X32131Y21938D01*
X32079Y21945D01*
X32027Y21956D01*
X31978Y21970D01*
X31888Y22008D01*
X31811Y22049D01*
X31777Y22070D01*
X31746Y22091D01*
X31718Y22112D01*
X31697Y22129D01*
X31680Y22143D01*
X31666Y22153D01*
X31659Y22160D01*
X31655Y22164D01*
X31603Y22216D01*
X31558Y22271D01*
X31520Y22330D01*
X31485Y22393D01*
X31458Y22452D01*
X31433Y22511D01*
X31416Y22570D01*
X31399Y22629D01*
X31388Y22681D01*
X31378Y22729D01*
X31374Y22774D01*
X31367Y22813D01*
Y22844D01*
X31364Y22868D01*
Y22889D01*
X31367Y22986D01*
X31378Y23076D01*
X31395Y23160D01*
X31413Y23229D01*
X31423Y23260D01*
X31433Y23288D01*
X31440Y23312D01*
X31447Y23333D01*
X31454Y23350D01*
X31461Y23361D01*
X31464Y23368D01*
Y23371D01*
X31506Y23448D01*
X31551Y23514D01*
X31596Y23569D01*
X31642Y23614D01*
X31680Y23652D01*
X31714Y23680D01*
X31735Y23694D01*
X31739Y23701D01*
X31742D01*
X31811Y23743D01*
X31888Y23777D01*
X31964Y23809D01*
X32041Y23833D01*
X32107Y23854D01*
X32134Y23861D01*
X32158Y23867D01*
X32179Y23871D01*
X32193Y23875D01*
X32204Y23878D01*
X32207D01*
X32301Y23312D01*
X32228Y23299D01*
X32162Y23281D01*
X32110Y23260D01*
X32065Y23236D01*
X32030Y23212D01*
X32006Y23194D01*
X31988Y23180D01*
X31985Y23177D01*
X31947Y23132D01*
X31919Y23087D01*
X31902Y23042D01*
X31888Y23000D01*
X31881Y22962D01*
X31874Y22934D01*
Y22906D01*
X31877Y22847D01*
X31888Y22795D01*
X31905Y22754D01*
X31923Y22715D01*
X31940Y22684D01*
X31957Y22663D01*
X31968Y22650D01*
X31971Y22646D01*
X32009Y22615D01*
X32051Y22591D01*
X32096Y22573D01*
X32134Y22559D01*
X32172Y22552D01*
X32200Y22549D01*
X32221D01*
X32225D01*
X32228D01*
X32297Y22556D01*
X32356Y22570D01*
X32408Y22591D01*
X32454Y22615D01*
X32488Y22643D01*
X32513Y22663D01*
X32526Y22677D01*
X32533Y22684D01*
X32568Y22740D01*
X32596Y22799D01*
X32617Y22861D01*
X32627Y22924D01*
X32634Y22979D01*
Y23004D01*
X32637Y23024D01*
Y23066D01*
X33137Y23132D01*
X33120Y23073D01*
X33109Y23017D01*
X33099Y22972D01*
X33095Y22931D01*
X33092Y22896D01*
X33088Y22872D01*
Y22851D01*
X33095Y22785D01*
X33109Y22726D01*
X33134Y22674D01*
X33158Y22629D01*
X33182Y22594D01*
X33206Y22566D01*
X33220Y22552D01*
X33227Y22546D01*
X33283Y22504D01*
X33342Y22473D01*
X33404Y22452D01*
X33463Y22434D01*
X33515Y22427D01*
X33536Y22424D01*
X33557D01*
X33574Y22421D01*
X33585D01*
X33592D01*
X33595D01*
X33682Y22427D01*
X33758Y22441D01*
X33824Y22462D01*
X33880Y22487D01*
X33925Y22511D01*
X33956Y22532D01*
X33977Y22546D01*
X33984Y22552D01*
X34032Y22604D01*
X34067Y22660D01*
X34091Y22712D01*
X34109Y22764D01*
X34119Y22809D01*
X34122Y22844D01*
X34126Y22858D01*
Y22875D01*
X34122Y22938D01*
X34109Y22997D01*
X34088Y23049D01*
X34067Y23094D01*
X34046Y23128D01*
X34025Y23156D01*
X34012Y23170D01*
X34008Y23177D01*
X33959Y23219D01*
X33900Y23253D01*
X33845Y23281D01*
X33786Y23299D01*
X33737Y23316D01*
X33696Y23323D01*
X33678Y23326D01*
X33668Y23330D01*
X33661D01*
X33658D01*
X33730Y23923D01*
X33803Y23913D01*
D02*
G37*
G36*
X33161Y21411D02*
X33314Y21400D01*
X33456Y21386D01*
X33585Y21369D01*
X33703Y21348D01*
X33807Y21324D01*
X33900Y21300D01*
X33984Y21272D01*
X34053Y21244D01*
X34116Y21220D01*
X34168Y21196D01*
X34209Y21175D01*
X34240Y21158D01*
X34261Y21140D01*
X34275Y21133D01*
X34279Y21130D01*
X34341Y21074D01*
X34397Y21015D01*
X34445Y20953D01*
X34487Y20890D01*
X34518Y20828D01*
X34549Y20765D01*
X34574Y20706D01*
X34591Y20647D01*
X34605Y20592D01*
X34619Y20540D01*
X34626Y20495D01*
X34629Y20453D01*
X34633Y20422D01*
X34636Y20398D01*
Y20377D01*
X34633Y20293D01*
X34622Y20214D01*
X34605Y20137D01*
X34584Y20068D01*
X34560Y20002D01*
X34532Y19943D01*
X34504Y19887D01*
X34473Y19839D01*
X34442Y19797D01*
X34414Y19759D01*
X34386Y19724D01*
X34362Y19700D01*
X34341Y19679D01*
X34324Y19662D01*
X34313Y19655D01*
X34310Y19651D01*
X34230Y19596D01*
X34140Y19547D01*
X34039Y19506D01*
X33939Y19468D01*
X33831Y19440D01*
X33720Y19412D01*
X33612Y19391D01*
X33505Y19374D01*
X33404Y19364D01*
X33311Y19353D01*
X33224Y19346D01*
X33151Y19339D01*
X33116D01*
X33088D01*
X33064Y19336D01*
X33040D01*
X33026D01*
X33012D01*
X33005D01*
X33002D01*
X32839Y19339D01*
X32686Y19350D01*
X32544Y19364D01*
X32415Y19384D01*
X32297Y19409D01*
X32190Y19433D01*
X32093Y19464D01*
X32009Y19492D01*
X31933Y19520D01*
X31870Y19547D01*
X31815Y19575D01*
X31773Y19599D01*
X31739Y19620D01*
X31714Y19634D01*
X31701Y19645D01*
X31697Y19648D01*
X31638Y19700D01*
X31586Y19756D01*
X31541Y19815D01*
X31503Y19874D01*
X31471Y19933D01*
X31444Y19995D01*
X31423Y20054D01*
X31405Y20109D01*
X31392Y20165D01*
X31381Y20217D01*
X31374Y20262D01*
X31367Y20300D01*
Y20332D01*
X31364Y20356D01*
Y20377D01*
X31367Y20460D01*
X31378Y20540D01*
X31395Y20616D01*
X31416Y20686D01*
X31440Y20752D01*
X31468Y20810D01*
X31499Y20866D01*
X31527Y20915D01*
X31558Y20956D01*
X31589Y20994D01*
X31617Y21026D01*
X31642Y21053D01*
X31662Y21074D01*
X31680Y21088D01*
X31690Y21099D01*
X31694Y21102D01*
X31773Y21158D01*
X31864Y21206D01*
X31961Y21248D01*
X32065Y21282D01*
X32172Y21314D01*
X32280Y21338D01*
X32388Y21359D01*
X32495Y21376D01*
X32596Y21386D01*
X32689Y21397D01*
X32773Y21404D01*
X32849Y21411D01*
X32880D01*
X32908D01*
X32932Y21414D01*
X32957D01*
X32970D01*
X32984D01*
X32991D01*
X32995D01*
X33161Y21411D01*
D02*
G37*
G36*
X26732Y37488D02*
X26850Y37461D01*
X26954Y37433D01*
X27030Y37412D01*
X27093Y37391D01*
X27141Y37378D01*
X27169Y37364D01*
X27176D01*
X27412Y37301D01*
X27627Y37253D01*
X27835Y37197D01*
X28030Y37148D01*
X28210Y37100D01*
X28370Y37058D01*
X28529Y37017D01*
X28668Y36982D01*
X28800Y36947D01*
X28918Y36919D01*
X29029Y36885D01*
X29126Y36857D01*
X29216Y36836D01*
X29300Y36815D01*
X29369Y36794D01*
X29432Y36774D01*
X29494Y36760D01*
X29542Y36746D01*
X29619Y36718D01*
X29681Y36697D01*
X29716Y36690D01*
X29744Y36676D01*
X29751Y36670D01*
X29758D01*
Y36503D01*
X29744Y36468D01*
X29501Y36392D01*
X29272Y36329D01*
X29064Y36260D01*
X28862Y36205D01*
X28675Y36149D01*
X28495Y36094D01*
X28335Y36045D01*
X28182Y36003D01*
X28036Y35962D01*
X27905Y35927D01*
X27787Y35892D01*
X27676Y35858D01*
X27571Y35830D01*
X27481Y35809D01*
X27398Y35781D01*
X27322Y35761D01*
X27252Y35747D01*
X27197Y35733D01*
X27141Y35719D01*
X27093Y35705D01*
X27016Y35691D01*
X26961Y35677D01*
X26926Y35670D01*
X26905Y35663D01*
X26891D01*
Y35642D01*
X26947D01*
X27016Y35629D01*
X27093Y35615D01*
X27183Y35601D01*
X27384Y35552D01*
X27585Y35497D01*
X27683Y35476D01*
X27780Y35448D01*
X27863Y35420D01*
X27939Y35400D01*
X28002Y35386D01*
X28050Y35372D01*
X28078Y35358D01*
X28092D01*
X28245Y35323D01*
X28383Y35289D01*
X28515Y35254D01*
X28640Y35226D01*
X28758Y35198D01*
X28862Y35171D01*
X28967Y35143D01*
X29057Y35122D01*
X29140Y35101D01*
X29216Y35080D01*
X29348Y35046D01*
X29459Y35011D01*
X29549Y34990D01*
X29619Y34969D01*
X29667Y34949D01*
X29709Y34935D01*
X29730Y34928D01*
X29744Y34921D01*
X29751Y34914D01*
X29758D01*
Y34726D01*
X29737Y34719D01*
X29702Y34706D01*
X29653Y34692D01*
X29591Y34671D01*
X29515Y34643D01*
X29432Y34615D01*
X29334Y34588D01*
X29223Y34553D01*
X29112Y34518D01*
X28987Y34477D01*
X28724Y34400D01*
X28446Y34317D01*
X28155Y34227D01*
X27870Y34143D01*
X27592Y34060D01*
X27336Y33977D01*
X27218Y33942D01*
X27106Y33907D01*
X27002Y33880D01*
X26912Y33852D01*
X26836Y33831D01*
X26766Y33810D01*
X26711Y33790D01*
X26669Y33776D01*
X26642Y33769D01*
X26635D01*
X26614Y33776D01*
X26600Y33783D01*
X26593Y33796D01*
Y33991D01*
X26926Y34095D01*
X27245Y34192D01*
X27537Y34282D01*
X27814Y34365D01*
X28071Y34435D01*
X28300Y34504D01*
X28515Y34560D01*
X28710Y34615D01*
X28876Y34664D01*
X29029Y34699D01*
X29154Y34733D01*
X29258Y34754D01*
X29341Y34775D01*
X29397Y34789D01*
X29432Y34803D01*
X29445D01*
Y34817D01*
X29418D01*
X29383Y34824D01*
X29334Y34830D01*
X29286Y34837D01*
X29223Y34851D01*
X29154Y34865D01*
X29008Y34900D01*
X28835Y34942D01*
X28654Y34990D01*
X28460Y35039D01*
X28266Y35087D01*
X28078Y35136D01*
X27891Y35184D01*
X27724Y35233D01*
X27571Y35275D01*
X27509Y35289D01*
X27447Y35309D01*
X27391Y35323D01*
X27349Y35337D01*
X27315Y35344D01*
X27287Y35351D01*
X27273Y35358D01*
X27266D01*
X27148Y35386D01*
X27044Y35407D01*
X26954Y35434D01*
X26877Y35455D01*
X26808Y35469D01*
X26760Y35490D01*
X26711Y35504D01*
X26676Y35518D01*
X26649Y35531D01*
X26628Y35538D01*
X26600Y35552D01*
X26593Y35566D01*
Y35754D01*
X26801Y35816D01*
X27002Y35878D01*
X27197Y35934D01*
X27377Y35989D01*
X27551Y36038D01*
X27710Y36087D01*
X27863Y36128D01*
X28009Y36170D01*
X28148Y36212D01*
X28273Y36246D01*
X28390Y36281D01*
X28501Y36316D01*
X28606Y36343D01*
X28703Y36371D01*
X28793Y36392D01*
X28876Y36413D01*
X29022Y36454D01*
X29140Y36489D01*
X29230Y36510D01*
X29307Y36531D01*
X29362Y36545D01*
X29397Y36552D01*
X29418Y36559D01*
X29425D01*
Y36579D01*
X29230Y36621D01*
X29043Y36663D01*
X28862Y36704D01*
X28696Y36746D01*
X28536Y36781D01*
X28390Y36822D01*
X28252Y36857D01*
X28127Y36885D01*
X28016Y36919D01*
X27918Y36947D01*
X27828Y36968D01*
X27759Y36989D01*
X27703Y37010D01*
X27662Y37017D01*
X27634Y37031D01*
X27627D01*
X27447Y37072D01*
X27287Y37107D01*
X27148Y37141D01*
X27030Y37169D01*
X26926Y37197D01*
X26843Y37218D01*
X26773Y37239D01*
X26725Y37253D01*
X26676Y37266D01*
X26649Y37280D01*
X26628Y37287D01*
X26607Y37294D01*
X26593Y37308D01*
Y37516D01*
X26732Y37488D01*
D02*
G37*
G36*
X24573Y37655D02*
X24580Y37641D01*
X24587Y37634D01*
Y31201D01*
X24580Y31180D01*
X24566Y31173D01*
X24560Y31166D01*
X24553D01*
X23484D01*
X23463Y31173D01*
X23456Y31180D01*
X23449Y31194D01*
Y35719D01*
X23428D01*
X23213Y35490D01*
X23012Y35275D01*
X22825Y35080D01*
X22651Y34900D01*
X22498Y34740D01*
X22353Y34595D01*
X22228Y34463D01*
X22117Y34345D01*
X22019Y34247D01*
X21936Y34164D01*
X21867Y34095D01*
X21804Y34032D01*
X21763Y33991D01*
X21735Y33956D01*
X21714Y33942D01*
X21707Y33935D01*
X21478Y33706D01*
X21249Y33491D01*
X21027Y33297D01*
X20812Y33109D01*
X20597Y32936D01*
X20389Y32776D01*
X20180Y32624D01*
X19979Y32485D01*
X19792Y32360D01*
X19598Y32242D01*
X19417Y32138D01*
X19243Y32041D01*
X19070Y31957D01*
X18903Y31874D01*
X18751Y31805D01*
X18598Y31742D01*
X18452Y31687D01*
X18320Y31638D01*
X18189Y31596D01*
X18071Y31562D01*
X17960Y31534D01*
X17855Y31506D01*
X17765Y31485D01*
X17675Y31471D01*
X17599Y31458D01*
X17536Y31444D01*
X17474Y31437D01*
X17425D01*
X17391Y31430D01*
X17363D01*
X17349D01*
X17342D01*
X17099D01*
X16960Y31437D01*
X16822Y31451D01*
X16683Y31465D01*
X16551Y31492D01*
X16301Y31562D01*
X16183Y31596D01*
X16079Y31631D01*
X15975Y31673D01*
X15885Y31708D01*
X15808Y31742D01*
X15739Y31777D01*
X15690Y31805D01*
X15649Y31819D01*
X15621Y31832D01*
X15614Y31839D01*
X15489Y31923D01*
X15378Y32013D01*
X15267Y32110D01*
X15170Y32207D01*
X14989Y32408D01*
X14837Y32617D01*
X14705Y32825D01*
X14594Y33040D01*
X14503Y33248D01*
X14434Y33449D01*
X14379Y33637D01*
X14337Y33817D01*
X14309Y33977D01*
X14288Y34116D01*
X14281Y34171D01*
X14275Y34227D01*
Y34275D01*
X14267Y34310D01*
Y34650D01*
X14281Y34921D01*
X14309Y35184D01*
X14358Y35448D01*
X14427Y35698D01*
X14503Y35934D01*
X14587Y36163D01*
X14677Y36378D01*
X14774Y36572D01*
X14871Y36753D01*
X14962Y36919D01*
X15045Y37058D01*
X15121Y37176D01*
X15184Y37273D01*
X15239Y37350D01*
X15253Y37370D01*
X15267Y37391D01*
X15281Y37398D01*
Y37405D01*
X15302Y37398D01*
X15336Y37384D01*
X15385Y37364D01*
X15447Y37343D01*
X15524Y37308D01*
X15607Y37273D01*
X15780Y37197D01*
X15954Y37121D01*
X16037Y37086D01*
X16107Y37051D01*
X16169Y37031D01*
X16211Y37010D01*
X16239Y36996D01*
X16252Y36989D01*
Y36954D01*
X16107Y36753D01*
X15975Y36552D01*
X15864Y36357D01*
X15767Y36163D01*
X15683Y35976D01*
X15621Y35802D01*
X15565Y35636D01*
X15517Y35476D01*
X15482Y35337D01*
X15454Y35205D01*
X15440Y35094D01*
X15427Y34997D01*
X15420Y34921D01*
X15413Y34865D01*
Y34817D01*
X15420Y34643D01*
X15434Y34477D01*
X15461Y34324D01*
X15482Y34185D01*
X15510Y34067D01*
X15524Y34018D01*
X15538Y33977D01*
X15544Y33942D01*
X15551Y33921D01*
X15558Y33907D01*
Y33900D01*
X15655Y33706D01*
X15767Y33540D01*
X15891Y33394D01*
X16030Y33269D01*
X16176Y33165D01*
X16322Y33075D01*
X16467Y33005D01*
X16613Y32950D01*
X16752Y32901D01*
X16884Y32866D01*
X17009Y32846D01*
X17113Y32825D01*
X17196Y32818D01*
X17266Y32811D01*
X17307D01*
X17314D01*
X17321D01*
X17432D01*
X17550Y32818D01*
X17668Y32825D01*
X17911Y32866D01*
X18154Y32936D01*
X18390Y33019D01*
X18633Y33116D01*
X18862Y33234D01*
X19077Y33352D01*
X19285Y33477D01*
X19479Y33602D01*
X19660Y33720D01*
X19813Y33831D01*
X19951Y33935D01*
X20007Y33977D01*
X20055Y34018D01*
X20104Y34053D01*
X20139Y34088D01*
X20167Y34109D01*
X20187Y34130D01*
X20201Y34137D01*
X20208Y34143D01*
X20229Y34150D01*
X20271Y34185D01*
X20326Y34234D01*
X20396Y34296D01*
X20486Y34372D01*
X20583Y34470D01*
X20694Y34574D01*
X20819Y34692D01*
X20951Y34824D01*
X21090Y34962D01*
X21235Y35108D01*
X21388Y35254D01*
X21707Y35573D01*
X22033Y35899D01*
X22360Y36232D01*
X22672Y36552D01*
X22825Y36697D01*
X22970Y36843D01*
X23102Y36982D01*
X23227Y37114D01*
X23345Y37232D01*
X23449Y37336D01*
X23539Y37433D01*
X23623Y37509D01*
X23685Y37572D01*
X23727Y37620D01*
X23762Y37655D01*
X23768Y37662D01*
X24553D01*
X24573Y37655D01*
D02*
G37*
G36*
X29404Y33678D02*
X29480Y33637D01*
X29542Y33588D01*
X29605Y33547D01*
X29653Y33498D01*
X29688Y33449D01*
X29723Y33408D01*
X29751Y33359D01*
X29785Y33276D01*
X29806Y33213D01*
Y33186D01*
X29813Y33165D01*
Y32998D01*
X29806Y32929D01*
X29799Y32860D01*
X29758Y32728D01*
X29702Y32610D01*
X29633Y32506D01*
X29570Y32429D01*
X29515Y32367D01*
X29473Y32325D01*
X29466Y32311D01*
X29515D01*
X29556D01*
X29633Y32304D01*
X29681Y32291D01*
X29723Y32277D01*
X29744Y32270D01*
X29751Y32256D01*
X29758Y32249D01*
Y32103D01*
X29744Y32061D01*
X29681Y32068D01*
X29612Y32075D01*
X29459Y32082D01*
X29300Y32096D01*
X29147D01*
X29008Y32103D01*
X28946D01*
X28890D01*
X28848D01*
X28814D01*
X28793D01*
X28786D01*
X28245D01*
X28106Y32124D01*
X27981Y32152D01*
X27877Y32193D01*
X27787Y32242D01*
X27710Y32297D01*
X27648Y32353D01*
X27592Y32415D01*
X27551Y32478D01*
X27523Y32540D01*
X27495Y32596D01*
X27474Y32651D01*
X27467Y32700D01*
X27461Y32742D01*
X27454Y32769D01*
Y32985D01*
X27467Y33102D01*
X27488Y33206D01*
X27523Y33304D01*
X27558Y33387D01*
X27585Y33449D01*
X27613Y33505D01*
X27634Y33533D01*
X27641Y33547D01*
X27669Y33540D01*
X27703Y33533D01*
X27759Y33505D01*
X27801Y33484D01*
X27808Y33470D01*
X27814D01*
X27759Y33366D01*
X27717Y33269D01*
X27689Y33172D01*
X27669Y33089D01*
X27655Y33012D01*
X27648Y32957D01*
X27641Y32922D01*
Y32908D01*
X27648Y32804D01*
X27676Y32714D01*
X27710Y32638D01*
X27759Y32568D01*
X27814Y32513D01*
X27877Y32464D01*
X27939Y32429D01*
X28009Y32395D01*
X28141Y32353D01*
X28203Y32346D01*
X28259Y32332D01*
X28307D01*
X28342Y32325D01*
X28370D01*
X28377D01*
Y32617D01*
X28390Y32707D01*
X28397Y32804D01*
X28411Y32894D01*
X28425Y32971D01*
X28432Y33040D01*
X28446Y33082D01*
Y33095D01*
X28495Y33206D01*
X28543Y33297D01*
X28606Y33380D01*
X28661Y33449D01*
X28724Y33512D01*
X28786Y33560D01*
X28848Y33602D01*
X28911Y33637D01*
X28967Y33665D01*
X29022Y33678D01*
X29071Y33692D01*
X29112Y33706D01*
X29147D01*
X29175Y33713D01*
X29188D01*
X29195D01*
X29313D01*
X29404Y33678D01*
D02*
G37*
G36*
X27655Y31659D02*
X27773Y31617D01*
X27884Y31569D01*
X27988Y31534D01*
X28085Y31492D01*
X28182Y31458D01*
X28342Y31395D01*
X28481Y31347D01*
X28592Y31298D01*
X28689Y31256D01*
X28765Y31229D01*
X28828Y31201D01*
X28869Y31187D01*
X28904Y31166D01*
X28925Y31159D01*
X28939Y31152D01*
X28946Y31145D01*
X28953D01*
X29091Y31097D01*
X29216Y31048D01*
X29327Y31014D01*
X29418Y30979D01*
X29494Y30944D01*
X29563Y30916D01*
X29612Y30896D01*
X29653Y30875D01*
X29688Y30861D01*
X29716Y30847D01*
X29730Y30833D01*
X29744Y30826D01*
X29758Y30812D01*
Y30639D01*
X29744Y30632D01*
X29716Y30618D01*
X29681Y30604D01*
X29640Y30583D01*
X29584Y30562D01*
X29522Y30535D01*
X29452Y30507D01*
X29376Y30472D01*
X29202Y30403D01*
X29015Y30326D01*
X28814Y30243D01*
X28613Y30160D01*
X28411Y30077D01*
X28210Y30000D01*
X28030Y29924D01*
X27863Y29855D01*
X27794Y29827D01*
X27731Y29799D01*
X27669Y29778D01*
X27620Y29757D01*
X27585Y29743D01*
X27551Y29730D01*
X27537Y29723D01*
X27530D01*
X27509Y29757D01*
Y29945D01*
X27516Y29952D01*
X27537Y29959D01*
X27565Y29972D01*
X27599Y29986D01*
X27648Y30007D01*
X27696Y30028D01*
X27759Y30056D01*
X27828Y30084D01*
X27974Y30139D01*
X28141Y30209D01*
X28321Y30278D01*
X28501Y30347D01*
X28682Y30417D01*
X28862Y30479D01*
X29029Y30542D01*
X29175Y30597D01*
X29237Y30625D01*
X29300Y30646D01*
X29355Y30667D01*
X29397Y30680D01*
X29432Y30694D01*
X29459Y30708D01*
X29473Y30715D01*
X29480D01*
Y30736D01*
X29300Y30798D01*
X29133Y30861D01*
X28973Y30916D01*
X28828Y30972D01*
X28696Y31020D01*
X28564Y31069D01*
X28446Y31111D01*
X28342Y31152D01*
X28238Y31187D01*
X28148Y31222D01*
X28064Y31256D01*
X27988Y31284D01*
X27918Y31312D01*
X27863Y31333D01*
X27752Y31374D01*
X27676Y31409D01*
X27613Y31437D01*
X27571Y31451D01*
X27537Y31465D01*
X27523Y31479D01*
X27516Y31485D01*
X27509D01*
Y31673D01*
X27530Y31708D01*
X27655Y31659D01*
D02*
G37*
G36*
X28793Y29494D02*
X28848Y29487D01*
X28897Y29480D01*
X28939Y29473D01*
X28967Y29466D01*
X28987Y29459D01*
X28994D01*
X29133Y29410D01*
X29258Y29348D01*
X29369Y29278D01*
X29459Y29209D01*
X29536Y29133D01*
X29605Y29056D01*
X29653Y28980D01*
X29695Y28904D01*
X29730Y28834D01*
X29758Y28765D01*
X29772Y28703D01*
X29785Y28654D01*
X29792Y28605D01*
X29799Y28571D01*
Y28335D01*
X29792Y28224D01*
X29778Y28113D01*
X29758Y28008D01*
X29730Y27918D01*
X29709Y27849D01*
X29688Y27786D01*
X29674Y27752D01*
X29667Y27738D01*
X29598Y27745D01*
X29536Y27766D01*
X29494Y27786D01*
X29487Y27793D01*
X29480D01*
X29515Y27891D01*
X29542Y27988D01*
X29563Y28078D01*
X29577Y28161D01*
X29584Y28231D01*
X29591Y28286D01*
Y28508D01*
X29563Y28640D01*
X29522Y28758D01*
X29466Y28855D01*
X29404Y28938D01*
X29334Y29015D01*
X29258Y29077D01*
X29182Y29126D01*
X29105Y29160D01*
X29029Y29195D01*
X28960Y29216D01*
X28890Y29237D01*
X28828Y29244D01*
X28779Y29251D01*
X28744Y29258D01*
X28717D01*
X28710D01*
X28620D01*
Y27641D01*
X28613Y27620D01*
X28599Y27613D01*
X28585Y27606D01*
X28578D01*
X28390D01*
X28300Y27613D01*
X28217Y27620D01*
X28182Y27627D01*
X28155Y27634D01*
X28141Y27641D01*
X28134D01*
X28016Y27682D01*
X27912Y27738D01*
X27821Y27786D01*
X27738Y27849D01*
X27676Y27911D01*
X27620Y27974D01*
X27571Y28036D01*
X27537Y28099D01*
X27509Y28154D01*
X27488Y28210D01*
X27474Y28258D01*
X27461Y28300D01*
Y28342D01*
X27454Y28369D01*
Y28564D01*
X27461Y28633D01*
X27474Y28709D01*
X27481Y28737D01*
X27488Y28765D01*
X27495Y28779D01*
Y28786D01*
X27558Y28911D01*
X27627Y29022D01*
X27710Y29119D01*
X27801Y29202D01*
X27898Y29265D01*
X27995Y29327D01*
X28099Y29376D01*
X28196Y29410D01*
X28286Y29438D01*
X28377Y29466D01*
X28460Y29480D01*
X28529Y29487D01*
X28592Y29494D01*
X28633Y29501D01*
X28668D01*
X28675D01*
X28793Y29494D01*
D02*
G37*
G36*
X27662Y27058D02*
X27780D01*
X27891D01*
X27995Y27051D01*
X28092D01*
X28182D01*
X28259D01*
X28328Y27044D01*
X28390D01*
X28446D01*
X28495D01*
X28529D01*
X28557D01*
X28585D01*
X28592D01*
X28599D01*
X29723D01*
X29744Y27037D01*
X29751Y27023D01*
X29758Y27016D01*
Y26856D01*
X29751Y26836D01*
X29737Y26829D01*
X29730Y26822D01*
X29723D01*
X28522D01*
X28481D01*
X28432Y26815D01*
X28328Y26808D01*
X28279D01*
X28238Y26801D01*
X28210D01*
X28203D01*
X28106Y26759D01*
X28016Y26711D01*
X27939Y26655D01*
X27877Y26600D01*
X27821Y26544D01*
X27780Y26489D01*
X27738Y26426D01*
X27710Y26371D01*
X27669Y26267D01*
X27648Y26183D01*
Y26155D01*
X27641Y26128D01*
Y26107D01*
X27655Y26017D01*
X27676Y25933D01*
X27696Y25871D01*
X27717Y25822D01*
X27738Y25781D01*
X27759Y25753D01*
X27766Y25739D01*
X27773Y25732D01*
X27808Y25690D01*
X27849Y25649D01*
X27912Y25621D01*
X27974Y25593D01*
X28127Y25552D01*
X28286Y25517D01*
X28439Y25503D01*
X28508Y25496D01*
X28571D01*
X28620Y25489D01*
X28661D01*
X28689D01*
X28696D01*
X29723D01*
X29744Y25482D01*
X29751Y25468D01*
X29758Y25462D01*
Y25302D01*
X29751Y25281D01*
X29737Y25274D01*
X29730Y25267D01*
X29723D01*
X28300D01*
X28259D01*
X28210Y25274D01*
X28120Y25281D01*
X28078Y25288D01*
X28043Y25295D01*
X28023Y25302D01*
X28016D01*
X27918Y25350D01*
X27828Y25399D01*
X27752Y25448D01*
X27689Y25503D01*
X27634Y25559D01*
X27592Y25614D01*
X27551Y25663D01*
X27523Y25718D01*
X27481Y25809D01*
X27461Y25885D01*
Y25913D01*
X27454Y25933D01*
Y26128D01*
X27461Y26204D01*
X27474Y26280D01*
X27495Y26357D01*
X27523Y26419D01*
X27592Y26537D01*
X27669Y26641D01*
X27745Y26718D01*
X27814Y26773D01*
X27842Y26794D01*
X27863Y26808D01*
X27877Y26822D01*
X27884D01*
Y26836D01*
X27551D01*
X27530Y26843D01*
X27516Y26856D01*
X27509Y26870D01*
Y27023D01*
X27530Y27065D01*
X27662Y27058D01*
D02*
G37*
G36*
X17585Y30125D02*
X17703Y30097D01*
X17800Y30070D01*
X17890Y30049D01*
X17967Y30028D01*
X18036Y30014D01*
X18091Y30000D01*
X18133Y29986D01*
X18168Y29972D01*
X18196Y29966D01*
X18237Y29952D01*
X18251Y29945D01*
X18258D01*
X18237Y29841D01*
X18216Y29730D01*
X18182Y29487D01*
X18161Y29244D01*
X18140Y29008D01*
Y28897D01*
X18133Y28793D01*
Y28703D01*
X18126Y28619D01*
Y28432D01*
X18362Y28439D01*
X18626Y28446D01*
X18903Y28466D01*
X19195Y28487D01*
X19792Y28543D01*
X20090Y28578D01*
X20375Y28605D01*
X20645Y28640D01*
X20902Y28675D01*
X21020Y28689D01*
X21131Y28703D01*
X21235Y28716D01*
X21326Y28730D01*
X21416Y28744D01*
X21492Y28751D01*
X21562Y28765D01*
X21617Y28772D01*
X21659Y28779D01*
X21693D01*
X21714Y28786D01*
X21721D01*
X22047Y28841D01*
X22360Y28904D01*
X22651Y28959D01*
X22922Y29022D01*
X23178Y29077D01*
X23407Y29140D01*
X23623Y29188D01*
X23817Y29244D01*
X23990Y29292D01*
X24143Y29341D01*
X24275Y29376D01*
X24379Y29410D01*
X24462Y29438D01*
X24525Y29459D01*
X24560Y29473D01*
X24573Y29480D01*
X24587Y29445D01*
Y28168D01*
X24532Y28140D01*
X24469Y28113D01*
X24324Y28050D01*
X24164Y27995D01*
X24004Y27946D01*
X23866Y27897D01*
X23803Y27877D01*
X23748Y27863D01*
X23699Y27849D01*
X23664Y27835D01*
X23643Y27828D01*
X23637D01*
X23317Y27759D01*
X23005Y27696D01*
X22707Y27641D01*
X22415Y27585D01*
X22131Y27537D01*
X21853Y27488D01*
X21582Y27446D01*
X21326Y27405D01*
X21076Y27370D01*
X20840Y27335D01*
X20611Y27308D01*
X20389Y27280D01*
X20174Y27252D01*
X19972Y27231D01*
X19785Y27210D01*
X19598Y27190D01*
X19431Y27176D01*
X19264Y27162D01*
X19119Y27148D01*
X18973Y27141D01*
X18848Y27127D01*
X18730Y27120D01*
X18619Y27113D01*
X18522D01*
X18431Y27106D01*
X18355D01*
X18293Y27099D01*
X18244D01*
X18203D01*
X18168D01*
X18154D01*
X18147D01*
X18126D01*
Y24608D01*
X22811D01*
X23054D01*
X23283Y24594D01*
X23484Y24587D01*
X23664Y24566D01*
X23831Y24552D01*
X23977Y24532D01*
X24102Y24511D01*
X24213Y24483D01*
X24310Y24462D01*
X24386Y24441D01*
X24449Y24420D01*
X24504Y24400D01*
X24539Y24386D01*
X24566Y24372D01*
X24580Y24365D01*
X24587D01*
Y23053D01*
X24414Y23088D01*
X24233Y23123D01*
X24039Y23151D01*
X23838Y23171D01*
X23428Y23213D01*
X23227Y23227D01*
X23033Y23234D01*
X22852Y23241D01*
X22679Y23248D01*
X22526Y23255D01*
X22394D01*
X22290Y23261D01*
X22242D01*
X22207D01*
X22179D01*
X22158D01*
X22144D01*
X22138D01*
X18126D01*
Y22248D01*
X18112Y22234D01*
X18078Y22228D01*
X18029Y22214D01*
X17960Y22193D01*
X17883Y22179D01*
X17793Y22165D01*
X17599Y22130D01*
X17411Y22103D01*
X17321Y22096D01*
X17245Y22082D01*
X17175Y22075D01*
X17120Y22068D01*
X17092Y22061D01*
X17078D01*
X17057Y22068D01*
X17051Y22075D01*
X17043Y22089D01*
Y28244D01*
X17051Y28480D01*
X17064Y28703D01*
X17078Y28911D01*
X17106Y29098D01*
X17141Y29272D01*
X17175Y29424D01*
X17210Y29570D01*
X17245Y29695D01*
X17286Y29799D01*
X17321Y29896D01*
X17356Y29972D01*
X17391Y30042D01*
X17418Y30090D01*
X17432Y30125D01*
X17446Y30146D01*
X17453Y30153D01*
X17585Y30125D01*
D02*
G37*
G36*
X29043Y24545D02*
X29133Y24532D01*
X29168D01*
X29195Y24525D01*
X29209Y24518D01*
X29216D01*
X29320Y24483D01*
X29411Y24441D01*
X29494Y24393D01*
X29563Y24337D01*
X29619Y24282D01*
X29667Y24226D01*
X29709Y24171D01*
X29737Y24115D01*
X29765Y24060D01*
X29778Y24004D01*
X29792Y23963D01*
X29806Y23921D01*
Y23886D01*
X29813Y23858D01*
Y23713D01*
X29806Y23636D01*
X29792Y23567D01*
X29772Y23497D01*
X29744Y23428D01*
X29674Y23310D01*
X29598Y23206D01*
X29522Y23116D01*
X29452Y23053D01*
X29425Y23032D01*
X29404Y23012D01*
X29390Y22998D01*
X29723D01*
X29744Y22991D01*
X29751Y22977D01*
X29758Y22970D01*
Y22810D01*
X29744Y22776D01*
X29612D01*
X29494Y22783D01*
X29383D01*
X29279D01*
X29182D01*
X29091D01*
X29015Y22790D01*
X28946D01*
X28883D01*
X28828D01*
X28779D01*
X28744D01*
X28710D01*
X28689D01*
X28682D01*
X28675D01*
X27551D01*
X27530Y22796D01*
X27516Y22810D01*
X27509Y22824D01*
Y22977D01*
X27516Y22998D01*
X27530Y23012D01*
X27544Y23019D01*
X27551D01*
X28710D01*
X28814D01*
X28897Y23026D01*
X28967Y23032D01*
X29022D01*
X29057Y23039D01*
X29084Y23046D01*
X29098Y23053D01*
X29105D01*
X29195Y23095D01*
X29272Y23137D01*
X29341Y23185D01*
X29397Y23241D01*
X29445Y23296D01*
X29487Y23352D01*
X29522Y23414D01*
X29549Y23470D01*
X29584Y23574D01*
X29598Y23622D01*
X29605Y23664D01*
Y23699D01*
X29612Y23727D01*
Y23747D01*
X29605Y23824D01*
X29598Y23872D01*
X29591Y23914D01*
X29577Y23942D01*
X29570Y23956D01*
X29563Y23963D01*
X29556Y23969D01*
X29536Y24032D01*
X29501Y24087D01*
X29445Y24136D01*
X29369Y24178D01*
X29286Y24212D01*
X29195Y24240D01*
X29001Y24282D01*
X28800Y24309D01*
X28710Y24316D01*
X28633Y24323D01*
X28564Y24330D01*
X28515D01*
X28481D01*
X28467D01*
X27551D01*
X27530Y24337D01*
X27516Y24344D01*
X27509Y24358D01*
Y24518D01*
X27516Y24532D01*
X27530Y24545D01*
X27544Y24552D01*
X27551D01*
X28953D01*
X29043Y24545D01*
D02*
G37*
G36*
X27662Y22054D02*
X27780D01*
X27891D01*
X27995Y22047D01*
X28092D01*
X28182D01*
X28259D01*
X28328Y22040D01*
X28390D01*
X28446D01*
X28495D01*
X28529D01*
X28557D01*
X28585D01*
X28592D01*
X28599D01*
X29723D01*
X29744Y22033D01*
X29751Y22019D01*
X29758Y22012D01*
Y21853D01*
X29751Y21832D01*
X29737Y21825D01*
X29730Y21818D01*
X29723D01*
X28578D01*
X28460Y21811D01*
X28349Y21804D01*
X28300D01*
X28259Y21797D01*
X28231D01*
X28224D01*
X28120Y21756D01*
X28030Y21714D01*
X27953Y21665D01*
X27884Y21610D01*
X27828Y21561D01*
X27780Y21506D01*
X27745Y21457D01*
X27710Y21402D01*
X27669Y21304D01*
X27648Y21228D01*
Y21200D01*
X27641Y21180D01*
Y21159D01*
X27662Y21061D01*
X27689Y20971D01*
X27696Y20937D01*
X27710Y20909D01*
X27717Y20888D01*
Y20881D01*
X27752Y20832D01*
X27794Y20791D01*
X27849Y20749D01*
X27912Y20721D01*
X28057Y20673D01*
X28210Y20638D01*
X28356Y20617D01*
X28425Y20610D01*
X28481D01*
X28529Y20604D01*
X28564D01*
X28592D01*
X28599D01*
X29723D01*
X29744Y20597D01*
X29751Y20583D01*
X29758Y20569D01*
Y20416D01*
X29751Y20388D01*
X29737Y20381D01*
X29730Y20374D01*
X29723D01*
X28300D01*
X28182Y20347D01*
X28085Y20305D01*
X27995Y20263D01*
X27918Y20215D01*
X27856Y20166D01*
X27801Y20111D01*
X27759Y20055D01*
X27724Y20000D01*
X27696Y19951D01*
X27676Y19903D01*
X27648Y19819D01*
Y19785D01*
X27641Y19757D01*
Y19736D01*
X27662Y19625D01*
X27696Y19521D01*
X27710Y19479D01*
X27724Y19444D01*
X27731Y19424D01*
X27738Y19417D01*
X27773Y19368D01*
X27828Y19333D01*
X27891Y19299D01*
X27960Y19271D01*
X28043Y19243D01*
X28127Y19222D01*
X28300Y19195D01*
X28474Y19174D01*
X28550Y19167D01*
X28613D01*
X28668Y19160D01*
X28717D01*
X28744D01*
X28751D01*
X29723D01*
X29744Y19153D01*
X29751Y19139D01*
X29758Y19125D01*
Y18973D01*
X29751Y18945D01*
X29737Y18938D01*
X29730Y18931D01*
X29723D01*
X28300D01*
X28203Y18938D01*
X28120Y18952D01*
X28085Y18959D01*
X28057Y18966D01*
X28043Y18973D01*
X28036D01*
X27932Y19014D01*
X27842Y19056D01*
X27766Y19105D01*
X27696Y19153D01*
X27641Y19202D01*
X27592Y19257D01*
X27558Y19306D01*
X27523Y19354D01*
X27481Y19444D01*
X27461Y19521D01*
Y19549D01*
X27454Y19569D01*
Y19757D01*
X27461Y19833D01*
X27474Y19903D01*
X27495Y19972D01*
X27530Y20034D01*
X27599Y20152D01*
X27689Y20250D01*
X27773Y20326D01*
X27849Y20381D01*
X27884Y20402D01*
X27905Y20416D01*
X27918Y20430D01*
X27926D01*
Y20451D01*
X27842Y20493D01*
X27773Y20534D01*
X27703Y20583D01*
X27655Y20624D01*
X27606Y20673D01*
X27571Y20721D01*
X27509Y20812D01*
X27481Y20888D01*
X27461Y20957D01*
X27454Y20999D01*
Y21159D01*
X27461Y21235D01*
X27474Y21311D01*
X27495Y21374D01*
X27523Y21443D01*
X27592Y21554D01*
X27669Y21644D01*
X27745Y21721D01*
X27814Y21776D01*
X27842Y21790D01*
X27863Y21804D01*
X27877Y21818D01*
X27884D01*
Y21839D01*
X27551D01*
X27530Y21846D01*
X27516Y21853D01*
X27509Y21867D01*
Y22026D01*
X27530Y22061D01*
X27662Y22054D01*
D02*
G37*
G36*
X24587Y21707D02*
Y20319D01*
X24580Y20312D01*
X24566Y20305D01*
X24518Y20284D01*
X24449Y20256D01*
X24358Y20222D01*
X24247Y20180D01*
X24129Y20139D01*
X24004Y20090D01*
X23873Y20041D01*
X23748Y19993D01*
X23623Y19951D01*
X23505Y19909D01*
X23401Y19868D01*
X23310Y19840D01*
X23241Y19812D01*
X23220Y19805D01*
X23199Y19798D01*
X23192Y19792D01*
X23186D01*
X22852Y19673D01*
X22533Y19556D01*
X22228Y19452D01*
X21943Y19347D01*
X21666Y19257D01*
X21409Y19167D01*
X21166Y19084D01*
X20937Y19000D01*
X20715Y18931D01*
X20514Y18862D01*
X20319Y18792D01*
X20139Y18737D01*
X19972Y18681D01*
X19820Y18632D01*
X19674Y18584D01*
X19542Y18542D01*
X19417Y18508D01*
X19306Y18473D01*
X19202Y18438D01*
X19112Y18410D01*
X19028Y18390D01*
X18952Y18362D01*
X18890Y18348D01*
X18827Y18327D01*
X18779Y18320D01*
X18737Y18306D01*
X18709Y18299D01*
X18681Y18293D01*
X18647Y18279D01*
X18633D01*
Y18202D01*
X19008Y18091D01*
X19375Y17980D01*
X19729Y17869D01*
X20076Y17758D01*
X20403Y17654D01*
X20708Y17550D01*
X20999Y17446D01*
X21263Y17356D01*
X21513Y17265D01*
X21624Y17231D01*
X21728Y17189D01*
X21825Y17154D01*
X21922Y17120D01*
X22006Y17092D01*
X22082Y17057D01*
X22151Y17036D01*
X22207Y17009D01*
X22262Y16995D01*
X22304Y16974D01*
X22339Y16960D01*
X22360Y16953D01*
X22374Y16946D01*
X22380D01*
X22582Y16877D01*
X22769Y16814D01*
X22942Y16759D01*
X23109Y16703D01*
X23262Y16648D01*
X23401Y16599D01*
X23532Y16551D01*
X23657Y16509D01*
X23768Y16467D01*
X23873Y16433D01*
X23963Y16398D01*
X24046Y16370D01*
X24122Y16342D01*
X24192Y16315D01*
X24254Y16287D01*
X24310Y16266D01*
X24400Y16231D01*
X24469Y16204D01*
X24518Y16183D01*
X24553Y16162D01*
X24573Y16155D01*
X24580Y16148D01*
X24587Y16141D01*
Y14753D01*
X24573Y14718D01*
X24213Y14850D01*
X23866Y14982D01*
X23526Y15107D01*
X23199Y15232D01*
X22880Y15350D01*
X22568Y15468D01*
X22262Y15579D01*
X21971Y15690D01*
X21693Y15794D01*
X21416Y15898D01*
X21152Y16002D01*
X20895Y16099D01*
X20645Y16190D01*
X20410Y16280D01*
X20174Y16370D01*
X19951Y16453D01*
X19736Y16530D01*
X19528Y16613D01*
X19334Y16689D01*
X19139Y16759D01*
X18952Y16828D01*
X18772Y16897D01*
X18605Y16960D01*
X18439Y17022D01*
X18133Y17140D01*
X17849Y17252D01*
X17592Y17349D01*
X17363Y17439D01*
X17155Y17515D01*
X16960Y17592D01*
X16794Y17654D01*
X16648Y17709D01*
X16516Y17765D01*
X16405Y17807D01*
X16308Y17848D01*
X16225Y17876D01*
X16155Y17904D01*
X16100Y17925D01*
X16058Y17945D01*
X16023Y17959D01*
X16003Y17966D01*
X15989Y17973D01*
X15975Y17980D01*
X15732Y18077D01*
X15510Y18174D01*
X15302Y18279D01*
X15100Y18383D01*
X14920Y18487D01*
X14746Y18591D01*
X14594Y18702D01*
X14448Y18813D01*
X14309Y18924D01*
X14191Y19028D01*
X14080Y19139D01*
X13976Y19250D01*
X13886Y19354D01*
X13803Y19465D01*
X13726Y19563D01*
X13664Y19667D01*
X13601Y19764D01*
X13553Y19861D01*
X13469Y20034D01*
X13414Y20194D01*
X13372Y20333D01*
X13358Y20395D01*
X13344Y20444D01*
X13338Y20493D01*
Y20534D01*
X13331Y20562D01*
Y20604D01*
X13386Y21089D01*
X13400Y21103D01*
X13435Y21110D01*
X13483Y21124D01*
X13553Y21138D01*
X13636Y21152D01*
X13726Y21166D01*
X13921Y21193D01*
X14115Y21214D01*
X14205Y21228D01*
X14288Y21235D01*
X14358Y21242D01*
X14406Y21249D01*
X14441Y21256D01*
X14455D01*
X14476D01*
Y20937D01*
X14490Y20812D01*
X14517Y20687D01*
X14566Y20562D01*
X14622Y20451D01*
X14698Y20333D01*
X14774Y20229D01*
X14864Y20132D01*
X14948Y20034D01*
X15038Y19951D01*
X15128Y19875D01*
X15204Y19805D01*
X15281Y19750D01*
X15336Y19708D01*
X15385Y19673D01*
X15413Y19653D01*
X15427Y19646D01*
X15676Y19521D01*
X15905Y19410D01*
X16114Y19313D01*
X16294Y19229D01*
X16461Y19160D01*
X16606Y19105D01*
X16731Y19056D01*
X16835Y19021D01*
X16926Y18993D01*
X17002Y18966D01*
X17064Y18952D01*
X17113Y18945D01*
X17148Y18938D01*
X17168Y18931D01*
X17182D01*
X17189D01*
X17321D01*
X17342Y18938D01*
X17377Y18952D01*
X17411Y18966D01*
X17460Y18980D01*
X17522Y19000D01*
X17585Y19028D01*
X17661Y19056D01*
X17738Y19084D01*
X17828Y19118D01*
X17918Y19153D01*
X18126Y19229D01*
X18355Y19320D01*
X18612Y19417D01*
X18883Y19521D01*
X19167Y19632D01*
X19466Y19750D01*
X19778Y19868D01*
X20097Y19993D01*
X20423Y20118D01*
X21083Y20374D01*
X21742Y20631D01*
X22061Y20756D01*
X22374Y20881D01*
X22679Y20999D01*
X22963Y21110D01*
X23241Y21221D01*
X23491Y21318D01*
X23727Y21408D01*
X23935Y21492D01*
X24032Y21527D01*
X24122Y21561D01*
X24199Y21596D01*
X24275Y21624D01*
X24344Y21651D01*
X24400Y21672D01*
X24455Y21693D01*
X24497Y21714D01*
X24532Y21721D01*
X24553Y21735D01*
X24566Y21742D01*
X24573D01*
X24587Y21707D01*
D02*
G37*
G36*
X29758Y18202D02*
Y18070D01*
X29751Y18064D01*
X29744Y18050D01*
X29702Y18036D01*
X29640Y18029D01*
X29570Y18022D01*
X29501Y18015D01*
X29438D01*
X29397D01*
X29390D01*
X29383D01*
Y17994D01*
X29459Y17945D01*
X29522Y17890D01*
X29584Y17834D01*
X29633Y17779D01*
X29674Y17717D01*
X29709Y17661D01*
X29758Y17550D01*
X29792Y17453D01*
X29806Y17369D01*
X29813Y17342D01*
Y17043D01*
X29758Y16891D01*
X29688Y16766D01*
X29612Y16648D01*
X29529Y16551D01*
X29445Y16474D01*
X29348Y16405D01*
X29258Y16349D01*
X29168Y16301D01*
X29084Y16266D01*
X29001Y16238D01*
X28925Y16224D01*
X28862Y16210D01*
X28807Y16204D01*
X28765Y16197D01*
X28738D01*
X28730D01*
X28390D01*
X28224Y16245D01*
X28078Y16301D01*
X27953Y16363D01*
X27849Y16433D01*
X27759Y16502D01*
X27683Y16578D01*
X27620Y16655D01*
X27571Y16731D01*
X27530Y16800D01*
X27502Y16870D01*
X27481Y16932D01*
X27467Y16988D01*
X27461Y17036D01*
X27454Y17071D01*
Y17231D01*
X27461Y17314D01*
X27474Y17397D01*
X27495Y17474D01*
X27523Y17543D01*
X27599Y17675D01*
X27676Y17786D01*
X27759Y17876D01*
X27835Y17939D01*
X27863Y17959D01*
X27884Y17980D01*
X27898Y17987D01*
X27905Y17994D01*
X26461D01*
X26440Y18001D01*
X26433Y18015D01*
X26426Y18029D01*
Y18181D01*
X26433Y18202D01*
X26440Y18216D01*
X26454Y18223D01*
X26461D01*
X28675D01*
X28744D01*
X28828D01*
X28994D01*
X29175Y18230D01*
X29341D01*
X29425D01*
X29501D01*
X29570Y18237D01*
X29626D01*
X29674D01*
X29709D01*
X29737D01*
X29744D01*
X29758Y18202D01*
D02*
G37*
G36*
X16030Y16231D02*
X16044Y16217D01*
X16051Y16204D01*
Y14885D01*
X16044Y14864D01*
X16030Y14857D01*
X16016Y14850D01*
X16010D01*
X15281D01*
X15260Y14857D01*
X15246Y14864D01*
X15239Y14878D01*
Y16197D01*
X15246Y16217D01*
X15260Y16231D01*
X15274Y16238D01*
X15281D01*
X16010D01*
X16030Y16231D01*
D02*
G37*
G36*
X11478Y37343D02*
X11491Y37329D01*
X11498Y37315D01*
Y14420D01*
X11512D01*
X11540Y14434D01*
X11575Y14441D01*
X11623Y14462D01*
X11721Y14503D01*
X11832Y14552D01*
X11943Y14600D01*
X11991Y14621D01*
X12040Y14642D01*
X12075Y14656D01*
X12102Y14670D01*
X12123Y14684D01*
X12130D01*
X12151D01*
Y14663D01*
X11193Y12338D01*
X11179D01*
X11172Y12345D01*
X11165Y12366D01*
X11145Y12400D01*
X11124Y12442D01*
X11103Y12498D01*
X11075Y12560D01*
X11040Y12629D01*
X11013Y12713D01*
X10936Y12886D01*
X10853Y13081D01*
X10763Y13289D01*
X10673Y13497D01*
X10582Y13712D01*
X10492Y13920D01*
X10409Y14115D01*
X10340Y14288D01*
X10305Y14364D01*
X10277Y14434D01*
X10249Y14489D01*
X10228Y14545D01*
X10208Y14586D01*
X10201Y14614D01*
X10187Y14635D01*
Y14642D01*
X10201Y14684D01*
X10312Y14635D01*
X10402Y14593D01*
X10485Y14559D01*
X10555Y14531D01*
X10617Y14503D01*
X10673Y14482D01*
X10714Y14469D01*
X10749Y14455D01*
X10777Y14441D01*
X10797Y14434D01*
X10825Y14427D01*
X10839Y14420D01*
Y37308D01*
X10846Y37329D01*
X10860Y37343D01*
X10874Y37350D01*
X10881D01*
X11457D01*
X11478Y37343D01*
D02*
G37*
G36*
X28793Y15815D02*
X28848Y15808D01*
X28897Y15801D01*
X28939D01*
X28967Y15794D01*
X28987Y15787D01*
X28994D01*
X29133Y15739D01*
X29258Y15676D01*
X29369Y15607D01*
X29459Y15537D01*
X29536Y15461D01*
X29605Y15385D01*
X29653Y15308D01*
X29695Y15232D01*
X29730Y15163D01*
X29758Y15093D01*
X29772Y15031D01*
X29785Y14982D01*
X29792Y14933D01*
X29799Y14899D01*
Y14663D01*
X29792Y14552D01*
X29778Y14441D01*
X29758Y14337D01*
X29730Y14246D01*
X29709Y14170D01*
X29688Y14108D01*
X29674Y14073D01*
X29667Y14059D01*
X29598Y14066D01*
X29536Y14087D01*
X29494Y14115D01*
X29487Y14121D01*
X29480D01*
X29515Y14219D01*
X29542Y14316D01*
X29563Y14406D01*
X29577Y14489D01*
X29584Y14559D01*
X29591Y14614D01*
Y14829D01*
X29563Y14961D01*
X29522Y15079D01*
X29466Y15176D01*
X29404Y15260D01*
X29334Y15336D01*
X29258Y15398D01*
X29182Y15447D01*
X29105Y15482D01*
X29029Y15517D01*
X28960Y15537D01*
X28890Y15558D01*
X28828Y15565D01*
X28779Y15572D01*
X28744Y15579D01*
X28717D01*
X28710D01*
X28620D01*
Y13969D01*
X28613Y13948D01*
X28599Y13941D01*
X28585Y13934D01*
X28578D01*
X28390D01*
X28300Y13941D01*
X28217Y13948D01*
X28182Y13955D01*
X28155Y13962D01*
X28141Y13969D01*
X28134D01*
X28016Y14010D01*
X27912Y14066D01*
X27821Y14115D01*
X27738Y14177D01*
X27676Y14240D01*
X27620Y14302D01*
X27571Y14364D01*
X27537Y14427D01*
X27509Y14482D01*
X27488Y14538D01*
X27474Y14586D01*
X27461Y14628D01*
Y14670D01*
X27454Y14698D01*
Y14885D01*
X27461Y14961D01*
X27474Y15038D01*
X27481Y15065D01*
X27488Y15093D01*
X27495Y15107D01*
Y15114D01*
X27558Y15239D01*
X27627Y15350D01*
X27710Y15440D01*
X27801Y15523D01*
X27898Y15593D01*
X27995Y15648D01*
X28099Y15697D01*
X28196Y15732D01*
X28286Y15759D01*
X28377Y15787D01*
X28460Y15801D01*
X28529Y15808D01*
X28592Y15815D01*
X28633Y15822D01*
X28668D01*
X28675D01*
X28793Y15815D01*
D02*
G37*
G36*
X13699Y14288D02*
X13844Y14260D01*
X13962Y14246D01*
X14066Y14226D01*
X14156Y14212D01*
X14233Y14198D01*
X14288Y14184D01*
X14337Y14170D01*
X14379Y14163D01*
X14406Y14156D01*
X14427Y14149D01*
X14441Y14142D01*
X14455Y14135D01*
X14080Y13497D01*
Y13483D01*
X17398D01*
X17418Y13476D01*
X17425Y13462D01*
X17432Y13448D01*
Y12622D01*
X17425Y12595D01*
X17411Y12588D01*
X17404Y12581D01*
X17398D01*
X13011D01*
X12991Y12588D01*
X12984Y12602D01*
X12977Y12616D01*
Y13317D01*
X12984Y13337D01*
X12998Y13379D01*
X13025Y13434D01*
X13067Y13504D01*
X13109Y13580D01*
X13157Y13664D01*
X13254Y13837D01*
X13358Y14010D01*
X13407Y14094D01*
X13449Y14163D01*
X13483Y14226D01*
X13511Y14267D01*
X13532Y14295D01*
X13539Y14309D01*
X13699Y14288D01*
D02*
G37*
G36*
X27703Y13365D02*
X27863D01*
X28016D01*
X28155Y13358D01*
X28279D01*
X28397D01*
X28501D01*
X28592Y13351D01*
X28675D01*
X28744D01*
X28807D01*
X28855D01*
X28890D01*
X28918D01*
X28932D01*
X28939D01*
X29723D01*
X29744Y13344D01*
X29751Y13330D01*
X29758Y13323D01*
Y13164D01*
X29751Y13143D01*
X29737Y13136D01*
X29730Y13129D01*
X29723D01*
X28765D01*
X28578Y13122D01*
X28404Y13101D01*
X28266Y13074D01*
X28141Y13032D01*
X28036Y12983D01*
X27946Y12928D01*
X27877Y12872D01*
X27814Y12817D01*
X27773Y12761D01*
X27738Y12699D01*
X27717Y12650D01*
X27696Y12602D01*
X27689Y12560D01*
X27683Y12532D01*
Y12435D01*
X27676Y12407D01*
X27662Y12400D01*
X27648Y12393D01*
X27641D01*
X27495D01*
X27474Y12400D01*
X27461Y12414D01*
X27454Y12428D01*
Y12525D01*
X27461Y12602D01*
X27474Y12664D01*
X27495Y12733D01*
X27530Y12789D01*
X27599Y12893D01*
X27689Y12976D01*
X27773Y13046D01*
X27849Y13094D01*
X27884Y13108D01*
X27905Y13122D01*
X27918Y13129D01*
X27926D01*
Y13143D01*
X27551D01*
X27530Y13150D01*
X27516Y13164D01*
X27509Y13178D01*
Y13330D01*
X27530Y13372D01*
X27703Y13365D01*
D02*
G37*
%LPC*%
G36*
X37900Y12410D02*
X33100Y10543D01*
Y9514D01*
X37900Y7590D01*
Y12410D01*
D02*
G37*
%LPD*%
G36*
X35997Y9373D02*
X34218Y10039D01*
X35997Y10689D01*
Y9373D01*
D02*
G37*
G36*
X37900Y8645D02*
X36808Y9067D01*
Y10985D01*
X37900Y11386D01*
Y8645D01*
D02*
G37*
%LPC*%
G36*
X38092Y34583D02*
X38054D01*
X38026D01*
X38009D01*
X38002D01*
X37901D01*
X37807Y34580D01*
X37717Y34576D01*
X37641Y34573D01*
X37568Y34569D01*
X37502Y34563D01*
X37443Y34559D01*
X37391Y34552D01*
X37346Y34545D01*
X37304Y34542D01*
X37273Y34535D01*
X37245Y34531D01*
X37225Y34528D01*
X37211Y34524D01*
X37204Y34521D01*
X37200D01*
X37138Y34500D01*
X37082Y34479D01*
X37040Y34455D01*
X37006Y34434D01*
X36978Y34417D01*
X36961Y34400D01*
X36950Y34389D01*
X36947Y34386D01*
X36923Y34351D01*
X36905Y34320D01*
X36891Y34285D01*
X36884Y34254D01*
X36877Y34226D01*
X36874Y34205D01*
Y34188D01*
X36877Y34146D01*
X36884Y34111D01*
X36898Y34077D01*
X36909Y34045D01*
X36923Y34025D01*
X36936Y34004D01*
X36943Y33994D01*
X36947Y33990D01*
X36978Y33959D01*
X37020Y33931D01*
X37065Y33907D01*
X37113Y33886D01*
X37159Y33869D01*
X37193Y33858D01*
X37207Y33855D01*
X37218Y33851D01*
X37225Y33848D01*
X37228D01*
X37273Y33837D01*
X37322Y33827D01*
X37377Y33820D01*
X37440Y33813D01*
X37565Y33803D01*
X37693Y33796D01*
X37755Y33792D01*
X37811D01*
X37866Y33789D01*
X37911D01*
X37950D01*
X37977D01*
X37995D01*
X38002D01*
X38102D01*
X38199Y33792D01*
X38286Y33796D01*
X38366Y33799D01*
X38439Y33803D01*
X38505Y33810D01*
X38564Y33816D01*
X38616Y33820D01*
X38661Y33827D01*
X38699Y33834D01*
X38730Y33841D01*
X38758Y33844D01*
X38779Y33848D01*
X38793Y33851D01*
X38800Y33855D01*
X38803D01*
X38866Y33876D01*
X38921Y33896D01*
X38963Y33917D01*
X38998Y33941D01*
X39025Y33959D01*
X39043Y33976D01*
X39053Y33986D01*
X39057Y33990D01*
X39081Y34025D01*
X39098Y34056D01*
X39109Y34091D01*
X39116Y34122D01*
X39123Y34150D01*
X39126Y34170D01*
Y34188D01*
X39123Y34229D01*
X39116Y34264D01*
X39105Y34299D01*
X39091Y34327D01*
X39077Y34351D01*
X39067Y34372D01*
X39060Y34382D01*
X39057Y34386D01*
X39025Y34417D01*
X38984Y34445D01*
X38939Y34469D01*
X38890Y34490D01*
X38848Y34507D01*
X38814Y34517D01*
X38800Y34521D01*
X38789Y34524D01*
X38783Y34528D01*
X38779D01*
X38734Y34538D01*
X38685Y34545D01*
X38630Y34552D01*
X38567Y34559D01*
X38439Y34569D01*
X38311Y34576D01*
X38248Y34580D01*
X38193D01*
X38140D01*
X38092Y34583D01*
D02*
G37*
G36*
X38394Y29777D02*
X37304Y29045D01*
X38394D01*
Y29777D01*
D02*
G37*
G36*
X38092Y25631D02*
X38054D01*
X38026D01*
X38009D01*
X38002D01*
X37901D01*
X37807Y25627D01*
X37717Y25624D01*
X37641Y25620D01*
X37568Y25617D01*
X37502Y25610D01*
X37443Y25607D01*
X37391Y25600D01*
X37346Y25593D01*
X37304Y25589D01*
X37273Y25582D01*
X37245Y25579D01*
X37225Y25575D01*
X37211Y25572D01*
X37204Y25568D01*
X37200D01*
X37138Y25548D01*
X37082Y25527D01*
X37040Y25502D01*
X37006Y25482D01*
X36978Y25464D01*
X36961Y25447D01*
X36950Y25436D01*
X36947Y25433D01*
X36923Y25398D01*
X36905Y25367D01*
X36891Y25332D01*
X36884Y25301D01*
X36877Y25273D01*
X36874Y25253D01*
Y25235D01*
X36877Y25194D01*
X36884Y25159D01*
X36898Y25124D01*
X36909Y25093D01*
X36923Y25072D01*
X36936Y25051D01*
X36943Y25041D01*
X36947Y25037D01*
X36978Y25006D01*
X37020Y24978D01*
X37065Y24954D01*
X37113Y24933D01*
X37159Y24916D01*
X37193Y24905D01*
X37207Y24902D01*
X37218Y24899D01*
X37225Y24895D01*
X37228D01*
X37273Y24885D01*
X37322Y24874D01*
X37377Y24867D01*
X37440Y24860D01*
X37565Y24850D01*
X37693Y24843D01*
X37755Y24840D01*
X37811D01*
X37866Y24836D01*
X37911D01*
X37950D01*
X37977D01*
X37995D01*
X38002D01*
X38102D01*
X38199Y24840D01*
X38286Y24843D01*
X38366Y24847D01*
X38439Y24850D01*
X38505Y24857D01*
X38564Y24864D01*
X38616Y24867D01*
X38661Y24874D01*
X38699Y24881D01*
X38730Y24888D01*
X38758Y24892D01*
X38779Y24895D01*
X38793Y24899D01*
X38800Y24902D01*
X38803D01*
X38866Y24923D01*
X38921Y24944D01*
X38963Y24964D01*
X38998Y24989D01*
X39025Y25006D01*
X39043Y25023D01*
X39053Y25034D01*
X39057Y25037D01*
X39081Y25072D01*
X39098Y25103D01*
X39109Y25138D01*
X39116Y25169D01*
X39123Y25197D01*
X39126Y25218D01*
Y25235D01*
X39123Y25277D01*
X39116Y25311D01*
X39105Y25346D01*
X39091Y25374D01*
X39077Y25398D01*
X39067Y25419D01*
X39060Y25429D01*
X39057Y25433D01*
X39025Y25464D01*
X38984Y25492D01*
X38939Y25516D01*
X38890Y25537D01*
X38848Y25554D01*
X38814Y25565D01*
X38800Y25568D01*
X38789Y25572D01*
X38783Y25575D01*
X38779D01*
X38734Y25586D01*
X38685Y25593D01*
X38630Y25600D01*
X38567Y25607D01*
X38439Y25617D01*
X38311Y25624D01*
X38248Y25627D01*
X38193D01*
X38140D01*
X38092Y25631D01*
D02*
G37*
G36*
X33092Y28236D02*
X33054D01*
X33026D01*
X33009D01*
X33002D01*
X32901D01*
X32807Y28233D01*
X32717Y28229D01*
X32641Y28226D01*
X32568Y28222D01*
X32502Y28216D01*
X32443Y28212D01*
X32391Y28205D01*
X32346Y28198D01*
X32304Y28195D01*
X32273Y28188D01*
X32245Y28184D01*
X32225Y28181D01*
X32211Y28177D01*
X32204Y28174D01*
X32200D01*
X32138Y28153D01*
X32082Y28132D01*
X32041Y28108D01*
X32006Y28087D01*
X31978Y28070D01*
X31961Y28052D01*
X31950Y28042D01*
X31947Y28038D01*
X31923Y28004D01*
X31905Y27973D01*
X31891Y27938D01*
X31884Y27907D01*
X31877Y27879D01*
X31874Y27858D01*
Y27841D01*
X31877Y27799D01*
X31884Y27764D01*
X31898Y27730D01*
X31909Y27698D01*
X31923Y27678D01*
X31936Y27657D01*
X31943Y27646D01*
X31947Y27643D01*
X31978Y27612D01*
X32020Y27584D01*
X32065Y27560D01*
X32113Y27539D01*
X32158Y27521D01*
X32193Y27511D01*
X32207Y27508D01*
X32217Y27504D01*
X32225Y27501D01*
X32228D01*
X32273Y27490D01*
X32322Y27480D01*
X32377Y27473D01*
X32440Y27466D01*
X32564Y27455D01*
X32693Y27449D01*
X32755Y27445D01*
X32811D01*
X32866Y27442D01*
X32912D01*
X32950D01*
X32977D01*
X32995D01*
X33002D01*
X33102D01*
X33200Y27445D01*
X33286Y27449D01*
X33366Y27452D01*
X33439Y27455D01*
X33505Y27463D01*
X33564Y27469D01*
X33616Y27473D01*
X33661Y27480D01*
X33699Y27487D01*
X33730Y27494D01*
X33758Y27497D01*
X33779Y27501D01*
X33793Y27504D01*
X33800Y27508D01*
X33803D01*
X33866Y27528D01*
X33921Y27549D01*
X33963Y27570D01*
X33998Y27594D01*
X34025Y27612D01*
X34043Y27629D01*
X34053Y27639D01*
X34057Y27643D01*
X34081Y27678D01*
X34098Y27709D01*
X34109Y27744D01*
X34116Y27775D01*
X34122Y27803D01*
X34126Y27823D01*
Y27841D01*
X34122Y27882D01*
X34116Y27917D01*
X34105Y27952D01*
X34091Y27979D01*
X34077Y28004D01*
X34067Y28025D01*
X34060Y28035D01*
X34057Y28038D01*
X34025Y28070D01*
X33984Y28098D01*
X33939Y28122D01*
X33890Y28143D01*
X33848Y28160D01*
X33814Y28170D01*
X33800Y28174D01*
X33789Y28177D01*
X33783Y28181D01*
X33779D01*
X33734Y28191D01*
X33685Y28198D01*
X33630Y28205D01*
X33567Y28212D01*
X33439Y28222D01*
X33311Y28229D01*
X33248Y28233D01*
X33193D01*
X33141D01*
X33092Y28236D01*
D02*
G37*
G36*
Y25748D02*
X33054D01*
X33026D01*
X33009D01*
X33002D01*
X32901D01*
X32807Y25745D01*
X32717Y25741D01*
X32641Y25738D01*
X32568Y25734D01*
X32502Y25727D01*
X32443Y25724D01*
X32391Y25717D01*
X32346Y25710D01*
X32304Y25707D01*
X32273Y25700D01*
X32245Y25696D01*
X32225Y25693D01*
X32211Y25689D01*
X32204Y25686D01*
X32200D01*
X32138Y25665D01*
X32082Y25644D01*
X32041Y25620D01*
X32006Y25599D01*
X31978Y25582D01*
X31961Y25564D01*
X31950Y25554D01*
X31947Y25550D01*
X31923Y25516D01*
X31905Y25485D01*
X31891Y25450D01*
X31884Y25419D01*
X31877Y25391D01*
X31874Y25370D01*
Y25353D01*
X31877Y25311D01*
X31884Y25276D01*
X31898Y25242D01*
X31909Y25210D01*
X31923Y25190D01*
X31936Y25169D01*
X31943Y25158D01*
X31947Y25155D01*
X31978Y25124D01*
X32020Y25096D01*
X32065Y25072D01*
X32113Y25051D01*
X32158Y25034D01*
X32193Y25023D01*
X32207Y25020D01*
X32217Y25016D01*
X32225Y25013D01*
X32228D01*
X32273Y25002D01*
X32322Y24992D01*
X32377Y24985D01*
X32440Y24978D01*
X32564Y24968D01*
X32693Y24961D01*
X32755Y24957D01*
X32811D01*
X32866Y24954D01*
X32912D01*
X32950D01*
X32977D01*
X32995D01*
X33002D01*
X33102D01*
X33200Y24957D01*
X33286Y24961D01*
X33366Y24964D01*
X33439Y24968D01*
X33505Y24974D01*
X33564Y24981D01*
X33616Y24985D01*
X33661Y24992D01*
X33699Y24999D01*
X33730Y25006D01*
X33758Y25009D01*
X33779Y25013D01*
X33793Y25016D01*
X33800Y25020D01*
X33803D01*
X33866Y25040D01*
X33921Y25061D01*
X33963Y25082D01*
X33998Y25106D01*
X34025Y25124D01*
X34043Y25141D01*
X34053Y25151D01*
X34057Y25155D01*
X34081Y25190D01*
X34098Y25221D01*
X34109Y25256D01*
X34116Y25287D01*
X34122Y25315D01*
X34126Y25335D01*
Y25353D01*
X34122Y25394D01*
X34116Y25429D01*
X34105Y25464D01*
X34091Y25491D01*
X34077Y25516D01*
X34067Y25537D01*
X34060Y25547D01*
X34057Y25550D01*
X34025Y25582D01*
X33984Y25609D01*
X33939Y25634D01*
X33890Y25655D01*
X33848Y25672D01*
X33814Y25682D01*
X33800Y25686D01*
X33789Y25689D01*
X33783Y25693D01*
X33779D01*
X33734Y25703D01*
X33685Y25710D01*
X33630Y25717D01*
X33567Y25724D01*
X33439Y25734D01*
X33311Y25741D01*
X33248Y25745D01*
X33193D01*
X33141D01*
X33092Y25748D01*
D02*
G37*
G36*
Y20772D02*
X33054D01*
X33026D01*
X33009D01*
X33002D01*
X32901D01*
X32807Y20769D01*
X32717Y20765D01*
X32641Y20762D01*
X32568Y20758D01*
X32502Y20752D01*
X32443Y20748D01*
X32391Y20741D01*
X32346Y20734D01*
X32304Y20731D01*
X32273Y20724D01*
X32245Y20720D01*
X32225Y20717D01*
X32211Y20713D01*
X32204Y20710D01*
X32200D01*
X32138Y20689D01*
X32082Y20668D01*
X32041Y20644D01*
X32006Y20623D01*
X31978Y20606D01*
X31961Y20588D01*
X31950Y20578D01*
X31947Y20574D01*
X31923Y20540D01*
X31905Y20509D01*
X31891Y20474D01*
X31884Y20443D01*
X31877Y20415D01*
X31874Y20394D01*
Y20377D01*
X31877Y20335D01*
X31884Y20300D01*
X31898Y20266D01*
X31909Y20234D01*
X31923Y20214D01*
X31936Y20193D01*
X31943Y20182D01*
X31947Y20179D01*
X31978Y20148D01*
X32020Y20120D01*
X32065Y20096D01*
X32113Y20075D01*
X32158Y20057D01*
X32193Y20047D01*
X32207Y20044D01*
X32217Y20040D01*
X32225Y20037D01*
X32228D01*
X32273Y20026D01*
X32322Y20016D01*
X32377Y20009D01*
X32440Y20002D01*
X32564Y19992D01*
X32693Y19985D01*
X32755Y19981D01*
X32811D01*
X32866Y19978D01*
X32912D01*
X32950D01*
X32977D01*
X32995D01*
X33002D01*
X33102D01*
X33200Y19981D01*
X33286Y19985D01*
X33366Y19988D01*
X33439Y19992D01*
X33505Y19998D01*
X33564Y20005D01*
X33616Y20009D01*
X33661Y20016D01*
X33699Y20023D01*
X33730Y20030D01*
X33758Y20033D01*
X33779Y20037D01*
X33793Y20040D01*
X33800Y20044D01*
X33803D01*
X33866Y20064D01*
X33921Y20085D01*
X33963Y20106D01*
X33998Y20130D01*
X34025Y20148D01*
X34043Y20165D01*
X34053Y20176D01*
X34057Y20179D01*
X34081Y20214D01*
X34098Y20245D01*
X34109Y20280D01*
X34116Y20311D01*
X34122Y20339D01*
X34126Y20359D01*
Y20377D01*
X34122Y20418D01*
X34116Y20453D01*
X34105Y20488D01*
X34091Y20516D01*
X34077Y20540D01*
X34067Y20561D01*
X34060Y20571D01*
X34057Y20574D01*
X34025Y20606D01*
X33984Y20633D01*
X33939Y20658D01*
X33890Y20679D01*
X33848Y20696D01*
X33814Y20706D01*
X33800Y20710D01*
X33789Y20713D01*
X33783Y20717D01*
X33779D01*
X33734Y20727D01*
X33685Y20734D01*
X33630Y20741D01*
X33567Y20748D01*
X33439Y20758D01*
X33311Y20765D01*
X33248Y20769D01*
X33193D01*
X33141D01*
X33092Y20772D01*
D02*
G37*
G36*
X29168Y33470D02*
X29161D01*
X29057Y33456D01*
X28967Y33422D01*
X28883Y33366D01*
X28814Y33297D01*
X28758Y33206D01*
X28710Y33116D01*
X28668Y33012D01*
X28640Y32908D01*
X28613Y32804D01*
X28599Y32700D01*
X28585Y32610D01*
X28571Y32520D01*
Y32450D01*
X28564Y32395D01*
Y32325D01*
X28973D01*
X29078Y32332D01*
X29168Y32353D01*
X29244Y32388D01*
X29313Y32436D01*
X29376Y32485D01*
X29432Y32547D01*
X29473Y32610D01*
X29515Y32672D01*
X29570Y32797D01*
X29591Y32860D01*
X29605Y32908D01*
X29612Y32957D01*
X29619Y32991D01*
X29626Y33012D01*
Y33019D01*
X29619Y33089D01*
X29605Y33151D01*
X29584Y33206D01*
X29549Y33255D01*
X29480Y33332D01*
X29390Y33387D01*
X29307Y33429D01*
X29230Y33456D01*
X29202Y33463D01*
X29182D01*
X29168Y33470D01*
D02*
G37*
G36*
X28432Y29237D02*
X28356D01*
X28231Y29202D01*
X28120Y29154D01*
X28023Y29105D01*
X27939Y29050D01*
X27870Y28994D01*
X27814Y28931D01*
X27766Y28869D01*
X27731Y28807D01*
X27703Y28751D01*
X27676Y28695D01*
X27662Y28640D01*
X27655Y28598D01*
X27648Y28564D01*
X27641Y28529D01*
Y28508D01*
X27648Y28494D01*
X27655Y28473D01*
X27662Y28432D01*
Y28376D01*
X27689Y28286D01*
X27731Y28203D01*
X27773Y28133D01*
X27828Y28071D01*
X27884Y28022D01*
X27946Y27981D01*
X28009Y27939D01*
X28071Y27911D01*
X28189Y27877D01*
X28245Y27863D01*
X28293Y27856D01*
X28335Y27849D01*
X28363D01*
X28383D01*
X28390D01*
X28432D01*
Y29237D01*
D02*
G37*
G36*
X28758Y17994D02*
X28724D01*
X28703D01*
X28696D01*
X28599D01*
X28508D01*
X28418Y17987D01*
X28377D01*
X28349Y17980D01*
X28328D01*
X28321D01*
X28203Y17939D01*
X28099Y17890D01*
X28009Y17834D01*
X27926Y17772D01*
X27863Y17709D01*
X27808Y17647D01*
X27759Y17585D01*
X27724Y17522D01*
X27696Y17460D01*
X27676Y17397D01*
X27662Y17349D01*
X27648Y17300D01*
Y17265D01*
X27641Y17238D01*
Y17210D01*
X27648Y17189D01*
X27655Y17161D01*
X27669Y17092D01*
X27676Y17057D01*
Y17029D01*
X27683Y17009D01*
Y17002D01*
X27731Y16897D01*
X27794Y16814D01*
X27856Y16731D01*
X27926Y16669D01*
X28002Y16613D01*
X28085Y16564D01*
X28161Y16530D01*
X28238Y16495D01*
X28383Y16453D01*
X28453Y16446D01*
X28508Y16433D01*
X28550D01*
X28592Y16426D01*
X28613D01*
X28620D01*
X28953Y16460D01*
X29071Y16502D01*
X29175Y16551D01*
X29265Y16606D01*
X29341Y16669D01*
X29404Y16731D01*
X29459Y16793D01*
X29508Y16863D01*
X29542Y16925D01*
X29570Y16988D01*
X29591Y17050D01*
X29605Y17106D01*
X29612Y17147D01*
X29619Y17189D01*
X29626Y17217D01*
Y17244D01*
X29605Y17356D01*
X29598Y17397D01*
X29591Y17439D01*
X29584Y17467D01*
X29577Y17487D01*
X29570Y17501D01*
Y17508D01*
X29529Y17592D01*
X29480Y17668D01*
X29425Y17730D01*
X29362Y17786D01*
X29293Y17834D01*
X29216Y17876D01*
X29140Y17911D01*
X29071Y17932D01*
X28925Y17966D01*
X28862Y17980D01*
X28807Y17987D01*
X28758Y17994D01*
D02*
G37*
G36*
X28432Y15558D02*
X28356D01*
X28231Y15523D01*
X28120Y15475D01*
X28023Y15426D01*
X27939Y15371D01*
X27870Y15315D01*
X27814Y15253D01*
X27766Y15190D01*
X27731Y15128D01*
X27703Y15072D01*
X27676Y15017D01*
X27662Y14961D01*
X27655Y14920D01*
X27648Y14885D01*
X27641Y14850D01*
Y14829D01*
X27648Y14816D01*
X27655Y14802D01*
X27662Y14753D01*
Y14698D01*
X27689Y14607D01*
X27731Y14524D01*
X27773Y14455D01*
X27828Y14399D01*
X27884Y14344D01*
X27946Y14302D01*
X28009Y14267D01*
X28071Y14240D01*
X28189Y14205D01*
X28245Y14191D01*
X28293Y14184D01*
X28335Y14177D01*
X28363D01*
X28383D01*
X28390D01*
X28432D01*
Y15558D01*
D02*
G37*
%LPD*%
D11*
X48606Y23622D02*
X49394D01*
X48606Y26378D02*
X49394D01*
M02*
