G04*
G04 #@! TF.GenerationSoftware,Altium Limited,Altium Designer,24.6.1 (21)*
G04*
G04 Layer_Color=15132400*
%FSLAX25Y25*%
%MOIN*%
G70*
G04*
G04 #@! TF.SameCoordinates,EBD96B39-EC1D-4DCD-B27F-6C9CB96DE784*
G04*
G04*
G04 #@! TF.FilePolarity,Positive*
G04*
G01*
G75*
%ADD10C,0.00984*%
%ADD11C,0.00787*%
G36*
X6027Y19456D02*
X3973D01*
Y20500D01*
X6027D01*
Y19456D01*
D02*
G37*
G36*
X7683Y26500D02*
X3000D01*
Y31179D01*
X7683D01*
Y26500D01*
D02*
G37*
G36*
X72575Y8057D02*
X66985D01*
Y14030D01*
X72575D01*
Y8057D01*
D02*
G37*
G36*
X72923Y28500D02*
X67200D01*
Y34473D01*
X72923D01*
Y28500D01*
D02*
G37*
G36*
X74081Y36100D02*
X65600D01*
Y41940D01*
X74081D01*
Y36100D01*
D02*
G37*
G36*
X58583Y11038D02*
X58580D01*
X58571Y11041D01*
X58558D01*
X58538Y11043D01*
X58516Y11049D01*
X58488Y11055D01*
X58458Y11060D01*
X58425Y11068D01*
X58350Y11090D01*
X58267Y11121D01*
X58181Y11157D01*
X58095Y11204D01*
X58092Y11207D01*
X58084Y11210D01*
X58070Y11221D01*
X58053Y11232D01*
X58031Y11248D01*
X58001Y11271D01*
X57970Y11295D01*
X57932Y11326D01*
X57890Y11359D01*
X57846Y11401D01*
X57793Y11445D01*
X57740Y11495D01*
X57682Y11550D01*
X57619Y11614D01*
X57552Y11681D01*
X57483Y11755D01*
X57480Y11758D01*
X57469Y11769D01*
X57452Y11786D01*
X57433Y11808D01*
X57408Y11836D01*
X57380Y11863D01*
X57347Y11897D01*
X57314Y11930D01*
X57245Y12002D01*
X57175Y12068D01*
X57145Y12096D01*
X57114Y12124D01*
X57087Y12146D01*
X57064Y12162D01*
X57062D01*
X57059Y12168D01*
X57051Y12171D01*
X57040Y12179D01*
X57009Y12196D01*
X56970Y12215D01*
X56926Y12232D01*
X56876Y12248D01*
X56821Y12259D01*
X56765Y12265D01*
X56763D01*
X56757D01*
X56749D01*
X56738D01*
X56710Y12259D01*
X56671Y12254D01*
X56632Y12243D01*
X56591Y12229D01*
X56549Y12207D01*
X56513Y12176D01*
X56511Y12174D01*
X56499Y12160D01*
X56486Y12140D01*
X56469Y12113D01*
X56452Y12077D01*
X56438Y12035D01*
X56427Y11988D01*
X56425Y11933D01*
Y11908D01*
X56430Y11880D01*
X56436Y11844D01*
X56447Y11805D01*
X56463Y11764D01*
X56488Y11722D01*
X56519Y11686D01*
X56524Y11683D01*
X56536Y11672D01*
X56558Y11658D01*
X56591Y11639D01*
X56632Y11622D01*
X56685Y11606D01*
X56749Y11592D01*
X56785Y11586D01*
X56824Y11584D01*
X56776Y11096D01*
X56771D01*
X56760Y11099D01*
X56738Y11102D01*
X56710Y11107D01*
X56677Y11113D01*
X56638Y11121D01*
X56596Y11132D01*
X56552Y11146D01*
X56505Y11163D01*
X56458Y11182D01*
X56408Y11204D01*
X56361Y11229D01*
X56314Y11257D01*
X56270Y11290D01*
X56231Y11326D01*
X56195Y11367D01*
X56192Y11370D01*
X56186Y11379D01*
X56178Y11393D01*
X56167Y11409D01*
X56153Y11431D01*
X56139Y11459D01*
X56123Y11489D01*
X56106Y11525D01*
X56090Y11567D01*
X56073Y11609D01*
X56059Y11656D01*
X56045Y11708D01*
X56034Y11761D01*
X56026Y11819D01*
X56020Y11880D01*
X56018Y11944D01*
Y11980D01*
X56020Y12007D01*
X56023Y12038D01*
X56029Y12074D01*
X56034Y12115D01*
X56042Y12160D01*
X56054Y12207D01*
X56067Y12254D01*
X56084Y12304D01*
X56103Y12354D01*
X56128Y12401D01*
X56156Y12448D01*
X56186Y12495D01*
X56222Y12537D01*
X56225Y12539D01*
X56231Y12545D01*
X56245Y12556D01*
X56258Y12570D01*
X56278Y12586D01*
X56303Y12606D01*
X56331Y12625D01*
X56364Y12647D01*
X56397Y12667D01*
X56436Y12686D01*
X56477Y12706D01*
X56522Y12722D01*
X56572Y12736D01*
X56621Y12747D01*
X56674Y12753D01*
X56729Y12755D01*
X56732D01*
X56738D01*
X56746D01*
X56760D01*
X56774Y12753D01*
X56793D01*
X56835Y12747D01*
X56887Y12739D01*
X56943Y12728D01*
X57001Y12714D01*
X57059Y12692D01*
X57062D01*
X57064Y12689D01*
X57076Y12686D01*
X57087Y12680D01*
X57101Y12672D01*
X57117Y12664D01*
X57159Y12644D01*
X57206Y12617D01*
X57261Y12584D01*
X57322Y12542D01*
X57386Y12495D01*
X57391Y12489D01*
X57408Y12478D01*
X57433Y12453D01*
X57469Y12423D01*
X57491Y12401D01*
X57516Y12379D01*
X57541Y12351D01*
X57572Y12323D01*
X57602Y12290D01*
X57638Y12254D01*
X57674Y12215D01*
X57713Y12174D01*
X57715Y12171D01*
X57721Y12162D01*
X57732Y12151D01*
X57746Y12138D01*
X57763Y12118D01*
X57782Y12096D01*
X57826Y12049D01*
X57873Y11999D01*
X57920Y11952D01*
X57943Y11930D01*
X57962Y11910D01*
X57981Y11894D01*
X57995Y11880D01*
X57998Y11877D01*
X58006Y11869D01*
X58020Y11858D01*
X58037Y11844D01*
X58059Y11830D01*
X58081Y11813D01*
X58128Y11780D01*
Y12755D01*
X58583D01*
Y11038D01*
D02*
G37*
G36*
Y9877D02*
X56740D01*
X56743Y9875D01*
X56752Y9866D01*
X56765Y9850D01*
X56782Y9830D01*
X56801Y9805D01*
X56826Y9772D01*
X56854Y9739D01*
X56882Y9697D01*
X56912Y9653D01*
X56943Y9606D01*
X56973Y9553D01*
X57004Y9498D01*
X57034Y9440D01*
X57062Y9376D01*
X57087Y9312D01*
X57112Y9246D01*
X56666D01*
Y9249D01*
X56663Y9254D01*
X56660Y9265D01*
X56655Y9279D01*
X56646Y9298D01*
X56638Y9318D01*
X56627Y9343D01*
X56613Y9370D01*
X56583Y9431D01*
X56541Y9501D01*
X56491Y9578D01*
X56430Y9661D01*
X56427Y9664D01*
X56422Y9672D01*
X56414Y9683D01*
X56400Y9697D01*
X56383Y9717D01*
X56361Y9736D01*
X56339Y9758D01*
X56311Y9783D01*
X56250Y9836D01*
X56181Y9886D01*
X56103Y9933D01*
X56062Y9952D01*
X56018Y9969D01*
Y10368D01*
X58583D01*
Y9877D01*
D02*
G37*
G36*
Y8326D02*
X58026Y7952D01*
X58023Y7949D01*
X58012Y7944D01*
X57998Y7933D01*
X57979Y7919D01*
X57954Y7905D01*
X57929Y7886D01*
X57868Y7844D01*
X57804Y7797D01*
X57743Y7753D01*
X57715Y7730D01*
X57691Y7711D01*
X57668Y7694D01*
X57652Y7678D01*
X57649Y7675D01*
X57638Y7667D01*
X57627Y7650D01*
X57610Y7631D01*
X57591Y7609D01*
X57574Y7581D01*
X57558Y7553D01*
X57547Y7523D01*
X57544Y7520D01*
X57541Y7506D01*
X57535Y7487D01*
X57530Y7459D01*
X57524Y7423D01*
X57522Y7379D01*
X57516Y7326D01*
Y7160D01*
X58583D01*
Y6645D01*
X56026D01*
Y7797D01*
X56029Y7830D01*
Y7869D01*
X56031Y7913D01*
X56034Y7958D01*
X56042Y8057D01*
X56056Y8154D01*
X56062Y8201D01*
X56073Y8248D01*
X56084Y8290D01*
X56095Y8326D01*
Y8329D01*
X56098Y8334D01*
X56103Y8343D01*
X56109Y8357D01*
X56117Y8373D01*
X56125Y8390D01*
X56151Y8434D01*
X56186Y8481D01*
X56228Y8528D01*
X56281Y8578D01*
X56342Y8623D01*
X56344D01*
X56350Y8628D01*
X56358Y8634D01*
X56372Y8639D01*
X56389Y8650D01*
X56408Y8659D01*
X56433Y8670D01*
X56458Y8681D01*
X56516Y8700D01*
X56585Y8719D01*
X56660Y8731D01*
X56743Y8736D01*
X56746D01*
X56757D01*
X56771D01*
X56790Y8733D01*
X56815Y8731D01*
X56843Y8728D01*
X56876Y8722D01*
X56909Y8714D01*
X56987Y8694D01*
X57026Y8681D01*
X57064Y8664D01*
X57106Y8645D01*
X57145Y8623D01*
X57184Y8597D01*
X57220Y8567D01*
X57222Y8564D01*
X57228Y8559D01*
X57236Y8550D01*
X57250Y8537D01*
X57264Y8517D01*
X57281Y8495D01*
X57300Y8470D01*
X57319Y8440D01*
X57341Y8406D01*
X57361Y8370D01*
X57380Y8329D01*
X57400Y8282D01*
X57416Y8232D01*
X57433Y8179D01*
X57447Y8121D01*
X57458Y8060D01*
Y8063D01*
X57463Y8068D01*
X57466Y8077D01*
X57474Y8088D01*
X57494Y8118D01*
X57522Y8157D01*
X57552Y8201D01*
X57588Y8248D01*
X57630Y8296D01*
X57671Y8337D01*
X57677Y8343D01*
X57685Y8348D01*
X57693Y8357D01*
X57707Y8368D01*
X57724Y8382D01*
X57743Y8398D01*
X57765Y8415D01*
X57793Y8434D01*
X57823Y8456D01*
X57857Y8481D01*
X57896Y8506D01*
X57937Y8534D01*
X57984Y8564D01*
X58031Y8597D01*
X58087Y8631D01*
X58583Y8944D01*
Y8326D01*
D02*
G37*
G36*
X58482Y40971D02*
X56640D01*
X56643Y40968D01*
X56652Y40960D01*
X56665Y40944D01*
X56682Y40924D01*
X56701Y40899D01*
X56726Y40866D01*
X56754Y40833D01*
X56782Y40791D01*
X56812Y40747D01*
X56843Y40700D01*
X56873Y40647D01*
X56904Y40592D01*
X56934Y40534D01*
X56962Y40470D01*
X56987Y40406D01*
X57012Y40340D01*
X56566D01*
Y40342D01*
X56563Y40348D01*
X56560Y40359D01*
X56555Y40373D01*
X56546Y40392D01*
X56538Y40412D01*
X56527Y40437D01*
X56513Y40464D01*
X56483Y40525D01*
X56441Y40594D01*
X56391Y40672D01*
X56330Y40755D01*
X56327Y40758D01*
X56322Y40766D01*
X56314Y40777D01*
X56300Y40791D01*
X56283Y40810D01*
X56261Y40830D01*
X56239Y40852D01*
X56211Y40877D01*
X56150Y40930D01*
X56081Y40979D01*
X56003Y41027D01*
X55962Y41046D01*
X55918Y41063D01*
Y41462D01*
X58482D01*
Y40971D01*
D02*
G37*
G36*
Y39420D02*
X57926Y39046D01*
X57923Y39043D01*
X57912Y39038D01*
X57898Y39027D01*
X57879Y39013D01*
X57854Y38999D01*
X57829Y38980D01*
X57768Y38938D01*
X57704Y38891D01*
X57643Y38847D01*
X57616Y38824D01*
X57591Y38805D01*
X57568Y38788D01*
X57552Y38772D01*
X57549Y38769D01*
X57538Y38761D01*
X57527Y38744D01*
X57510Y38725D01*
X57491Y38702D01*
X57474Y38675D01*
X57458Y38647D01*
X57446Y38617D01*
X57444Y38614D01*
X57441Y38600D01*
X57435Y38581D01*
X57430Y38553D01*
X57424Y38517D01*
X57422Y38473D01*
X57416Y38420D01*
Y38254D01*
X58482D01*
Y37739D01*
X55926D01*
Y38891D01*
X55929Y38924D01*
Y38963D01*
X55931Y39007D01*
X55934Y39051D01*
X55942Y39151D01*
X55956Y39248D01*
X55962Y39295D01*
X55973Y39342D01*
X55984Y39384D01*
X55995Y39420D01*
Y39423D01*
X55998Y39428D01*
X56003Y39437D01*
X56009Y39450D01*
X56017Y39467D01*
X56025Y39484D01*
X56050Y39528D01*
X56086Y39575D01*
X56128Y39622D01*
X56181Y39672D01*
X56242Y39716D01*
X56244D01*
X56250Y39722D01*
X56258Y39727D01*
X56272Y39733D01*
X56289Y39744D01*
X56308Y39752D01*
X56333Y39763D01*
X56358Y39775D01*
X56416Y39794D01*
X56485Y39813D01*
X56560Y39824D01*
X56643Y39830D01*
X56646D01*
X56657D01*
X56671D01*
X56690Y39827D01*
X56715Y39824D01*
X56743Y39822D01*
X56776Y39816D01*
X56809Y39808D01*
X56887Y39788D01*
X56926Y39775D01*
X56964Y39758D01*
X57006Y39739D01*
X57045Y39716D01*
X57084Y39691D01*
X57120Y39661D01*
X57122Y39658D01*
X57128Y39653D01*
X57136Y39644D01*
X57150Y39630D01*
X57164Y39611D01*
X57181Y39589D01*
X57200Y39564D01*
X57219Y39533D01*
X57241Y39500D01*
X57261Y39464D01*
X57280Y39423D01*
X57300Y39376D01*
X57316Y39326D01*
X57333Y39273D01*
X57347Y39215D01*
X57358Y39154D01*
Y39157D01*
X57363Y39162D01*
X57366Y39171D01*
X57375Y39182D01*
X57394Y39212D01*
X57422Y39251D01*
X57452Y39295D01*
X57488Y39342D01*
X57530Y39390D01*
X57571Y39431D01*
X57577Y39437D01*
X57585Y39442D01*
X57593Y39450D01*
X57607Y39461D01*
X57624Y39475D01*
X57643Y39492D01*
X57665Y39509D01*
X57693Y39528D01*
X57723Y39550D01*
X57757Y39575D01*
X57796Y39600D01*
X57837Y39628D01*
X57884Y39658D01*
X57931Y39691D01*
X57987Y39725D01*
X58482Y40038D01*
Y39420D01*
D02*
G37*
G36*
X65130Y31973D02*
X65153D01*
X65183Y31968D01*
X65216Y31962D01*
X65252Y31957D01*
X65294Y31946D01*
X65338Y31932D01*
X65385Y31915D01*
X65432Y31896D01*
X65479Y31871D01*
X65529Y31843D01*
X65576Y31810D01*
X65623Y31774D01*
X65671Y31730D01*
X65673Y31727D01*
X65682Y31719D01*
X65693Y31705D01*
X65707Y31685D01*
X65726Y31660D01*
X65745Y31633D01*
X65768Y31599D01*
X65787Y31561D01*
X65809Y31519D01*
X65831Y31472D01*
X65851Y31419D01*
X65870Y31367D01*
X65884Y31309D01*
X65895Y31248D01*
X65903Y31181D01*
X65906Y31115D01*
Y31098D01*
X65903Y31081D01*
Y31056D01*
X65900Y31029D01*
X65895Y30993D01*
X65889Y30954D01*
X65881Y30912D01*
X65870Y30868D01*
X65856Y30821D01*
X65842Y30774D01*
X65823Y30727D01*
X65798Y30677D01*
X65773Y30630D01*
X65743Y30583D01*
X65707Y30538D01*
X65704Y30536D01*
X65698Y30527D01*
X65687Y30516D01*
X65671Y30503D01*
X65651Y30486D01*
X65626Y30464D01*
X65599Y30444D01*
X65565Y30419D01*
X65529Y30397D01*
X65491Y30375D01*
X65449Y30353D01*
X65402Y30331D01*
X65352Y30314D01*
X65299Y30297D01*
X65241Y30284D01*
X65183Y30275D01*
X65125Y30749D01*
X65128D01*
X65133D01*
X65141Y30752D01*
X65155Y30755D01*
X65189Y30760D01*
X65227Y30774D01*
X65275Y30788D01*
X65319Y30810D01*
X65366Y30838D01*
X65405Y30871D01*
X65407Y30876D01*
X65418Y30887D01*
X65435Y30910D01*
X65452Y30937D01*
X65468Y30973D01*
X65485Y31015D01*
X65496Y31062D01*
X65499Y31112D01*
Y31126D01*
X65496Y31137D01*
X65493Y31165D01*
X65485Y31201D01*
X65471Y31242D01*
X65452Y31284D01*
X65424Y31328D01*
X65385Y31370D01*
X65380Y31375D01*
X65363Y31386D01*
X65338Y31403D01*
X65302Y31422D01*
X65258Y31442D01*
X65205Y31458D01*
X65144Y31469D01*
X65075Y31475D01*
X65072D01*
X65067D01*
X65058D01*
X65045Y31472D01*
X65028D01*
X65011Y31469D01*
X64970Y31464D01*
X64923Y31450D01*
X64873Y31433D01*
X64826Y31408D01*
X64781Y31375D01*
X64776Y31370D01*
X64765Y31358D01*
X64745Y31336D01*
X64726Y31309D01*
X64707Y31273D01*
X64687Y31231D01*
X64676Y31184D01*
X64671Y31131D01*
Y31115D01*
X64673Y31095D01*
X64676Y31068D01*
X64679Y31034D01*
X64687Y30998D01*
X64696Y30954D01*
X64709Y30907D01*
X64310Y30959D01*
Y30993D01*
X64308Y31009D01*
Y31029D01*
X64302Y31073D01*
X64294Y31123D01*
X64277Y31173D01*
X64255Y31220D01*
X64227Y31264D01*
X64222Y31270D01*
X64211Y31281D01*
X64191Y31297D01*
X64164Y31320D01*
X64128Y31339D01*
X64086Y31356D01*
X64039Y31367D01*
X63984Y31372D01*
X63981D01*
X63978D01*
X63961D01*
X63939Y31370D01*
X63909Y31364D01*
X63878Y31353D01*
X63842Y31339D01*
X63809Y31320D01*
X63779Y31295D01*
X63776Y31292D01*
X63768Y31281D01*
X63754Y31264D01*
X63740Y31239D01*
X63726Y31209D01*
X63712Y31176D01*
X63704Y31134D01*
X63701Y31087D01*
Y31065D01*
X63707Y31043D01*
X63712Y31012D01*
X63723Y30979D01*
X63737Y30943D01*
X63759Y30907D01*
X63790Y30871D01*
X63793Y30868D01*
X63806Y30857D01*
X63826Y30843D01*
X63854Y30824D01*
X63889Y30804D01*
X63931Y30788D01*
X63984Y30774D01*
X64042Y30763D01*
X63967Y30311D01*
X63964D01*
X63956Y30314D01*
X63945Y30317D01*
X63928Y30320D01*
X63909Y30325D01*
X63887Y30331D01*
X63834Y30347D01*
X63773Y30367D01*
X63712Y30392D01*
X63651Y30419D01*
X63596Y30453D01*
X63593D01*
X63590Y30458D01*
X63574Y30469D01*
X63546Y30491D01*
X63516Y30522D01*
X63480Y30558D01*
X63443Y30602D01*
X63407Y30655D01*
X63374Y30716D01*
Y30718D01*
X63371Y30724D01*
X63366Y30732D01*
X63360Y30746D01*
X63355Y30763D01*
X63349Y30782D01*
X63341Y30804D01*
X63333Y30829D01*
X63319Y30885D01*
X63305Y30951D01*
X63297Y31023D01*
X63294Y31101D01*
Y31117D01*
X63297Y31137D01*
Y31162D01*
X63302Y31192D01*
X63305Y31228D01*
X63313Y31267D01*
X63322Y31309D01*
X63336Y31356D01*
X63349Y31403D01*
X63369Y31450D01*
X63391Y31497D01*
X63419Y31547D01*
X63449Y31594D01*
X63485Y31638D01*
X63527Y31680D01*
X63529Y31683D01*
X63535Y31688D01*
X63546Y31696D01*
X63560Y31707D01*
X63577Y31721D01*
X63599Y31738D01*
X63624Y31754D01*
X63651Y31771D01*
X63712Y31804D01*
X63784Y31835D01*
X63823Y31846D01*
X63865Y31854D01*
X63906Y31860D01*
X63950Y31863D01*
X63953D01*
X63964D01*
X63984Y31860D01*
X64006Y31857D01*
X64034Y31852D01*
X64067Y31843D01*
X64106Y31832D01*
X64144Y31815D01*
X64186Y31796D01*
X64230Y31774D01*
X64275Y31743D01*
X64319Y31707D01*
X64363Y31666D01*
X64407Y31616D01*
X64449Y31558D01*
X64488Y31494D01*
Y31497D01*
X64491Y31505D01*
X64493Y31516D01*
X64499Y31530D01*
X64504Y31550D01*
X64513Y31572D01*
X64532Y31619D01*
X64560Y31677D01*
X64599Y31735D01*
X64643Y31791D01*
X64671Y31818D01*
X64701Y31843D01*
X64704Y31846D01*
X64709Y31849D01*
X64718Y31854D01*
X64729Y31865D01*
X64745Y31874D01*
X64765Y31885D01*
X64787Y31899D01*
X64812Y31910D01*
X64870Y31935D01*
X64937Y31957D01*
X65014Y31971D01*
X65056Y31973D01*
X65097Y31976D01*
X65100D01*
X65111D01*
X65130Y31973D01*
D02*
G37*
G36*
X65859Y29505D02*
X65302Y29131D01*
X65299Y29129D01*
X65288Y29123D01*
X65275Y29112D01*
X65255Y29098D01*
X65230Y29084D01*
X65205Y29065D01*
X65144Y29023D01*
X65081Y28976D01*
X65020Y28932D01*
X64992Y28910D01*
X64967Y28890D01*
X64945Y28874D01*
X64928Y28857D01*
X64925Y28854D01*
X64914Y28846D01*
X64903Y28829D01*
X64887Y28810D01*
X64867Y28788D01*
X64851Y28760D01*
X64834Y28732D01*
X64823Y28702D01*
X64820Y28699D01*
X64817Y28685D01*
X64812Y28666D01*
X64806Y28638D01*
X64801Y28602D01*
X64798Y28558D01*
X64793Y28505D01*
Y28339D01*
X65859D01*
Y27824D01*
X63302D01*
Y28976D01*
X63305Y29009D01*
Y29048D01*
X63308Y29092D01*
X63311Y29137D01*
X63319Y29237D01*
X63333Y29333D01*
X63338Y29381D01*
X63349Y29428D01*
X63360Y29469D01*
X63371Y29505D01*
Y29508D01*
X63374Y29514D01*
X63380Y29522D01*
X63385Y29536D01*
X63394Y29552D01*
X63402Y29569D01*
X63427Y29613D01*
X63463Y29660D01*
X63504Y29708D01*
X63557Y29757D01*
X63618Y29802D01*
X63621D01*
X63626Y29807D01*
X63635Y29813D01*
X63648Y29818D01*
X63665Y29829D01*
X63684Y29838D01*
X63709Y29849D01*
X63734Y29860D01*
X63793Y29879D01*
X63862Y29899D01*
X63937Y29910D01*
X64020Y29915D01*
X64022D01*
X64034D01*
X64047D01*
X64067Y29912D01*
X64092Y29910D01*
X64119Y29907D01*
X64153Y29901D01*
X64186Y29893D01*
X64263Y29874D01*
X64302Y29860D01*
X64341Y29843D01*
X64383Y29824D01*
X64421Y29802D01*
X64460Y29777D01*
X64496Y29746D01*
X64499Y29743D01*
X64504Y29738D01*
X64513Y29730D01*
X64527Y29716D01*
X64540Y29696D01*
X64557Y29674D01*
X64576Y29649D01*
X64596Y29619D01*
X64618Y29586D01*
X64637Y29550D01*
X64657Y29508D01*
X64676Y29461D01*
X64693Y29411D01*
X64709Y29359D01*
X64723Y29300D01*
X64734Y29239D01*
Y29242D01*
X64740Y29248D01*
X64743Y29256D01*
X64751Y29267D01*
X64770Y29298D01*
X64798Y29336D01*
X64828Y29381D01*
X64864Y29428D01*
X64906Y29475D01*
X64948Y29516D01*
X64953Y29522D01*
X64961Y29527D01*
X64970Y29536D01*
X64984Y29547D01*
X65000Y29561D01*
X65020Y29577D01*
X65042Y29594D01*
X65070Y29613D01*
X65100Y29636D01*
X65133Y29660D01*
X65172Y29685D01*
X65214Y29713D01*
X65261Y29743D01*
X65308Y29777D01*
X65363Y29810D01*
X65859Y30123D01*
Y29505D01*
D02*
G37*
G36*
X52254Y7818D02*
X51764D01*
Y9659D01*
X51761Y9657D01*
X51753Y9648D01*
X51736Y9635D01*
X51717Y9618D01*
X51692Y9599D01*
X51659Y9574D01*
X51626Y9546D01*
X51584Y9518D01*
X51540Y9488D01*
X51493Y9457D01*
X51440Y9427D01*
X51385Y9396D01*
X51327Y9366D01*
X51263Y9338D01*
X51199Y9313D01*
X51133Y9288D01*
Y9734D01*
X51135D01*
X51141Y9737D01*
X51152Y9740D01*
X51166Y9745D01*
X51185Y9754D01*
X51205Y9762D01*
X51230Y9773D01*
X51257Y9787D01*
X51318Y9817D01*
X51388Y9859D01*
X51465Y9909D01*
X51548Y9970D01*
X51551Y9973D01*
X51559Y9978D01*
X51570Y9986D01*
X51584Y10000D01*
X51604Y10017D01*
X51623Y10039D01*
X51645Y10061D01*
X51670Y10089D01*
X51723Y10150D01*
X51772Y10219D01*
X51820Y10297D01*
X51839Y10338D01*
X51856Y10383D01*
X52254D01*
Y7818D01*
D02*
G37*
G36*
X50268D02*
X49778D01*
Y9659D01*
X49775Y9657D01*
X49767Y9648D01*
X49750Y9635D01*
X49731Y9618D01*
X49706Y9599D01*
X49673Y9574D01*
X49640Y9546D01*
X49598Y9518D01*
X49554Y9488D01*
X49507Y9457D01*
X49454Y9427D01*
X49399Y9396D01*
X49340Y9366D01*
X49277Y9338D01*
X49213Y9313D01*
X49147Y9288D01*
Y9734D01*
X49149D01*
X49155Y9737D01*
X49166Y9740D01*
X49180Y9745D01*
X49199Y9754D01*
X49219Y9762D01*
X49244Y9773D01*
X49271Y9787D01*
X49332Y9817D01*
X49401Y9859D01*
X49479Y9909D01*
X49562Y9970D01*
X49565Y9973D01*
X49573Y9978D01*
X49584Y9986D01*
X49598Y10000D01*
X49617Y10017D01*
X49637Y10039D01*
X49659Y10061D01*
X49684Y10089D01*
X49737Y10150D01*
X49786Y10219D01*
X49834Y10297D01*
X49853Y10338D01*
X49869Y10383D01*
X50268D01*
Y7818D01*
D02*
G37*
G36*
X47731Y10371D02*
X47770D01*
X47814Y10369D01*
X47859Y10366D01*
X47958Y10358D01*
X48055Y10344D01*
X48102Y10338D01*
X48149Y10327D01*
X48191Y10316D01*
X48227Y10305D01*
X48230D01*
X48235Y10302D01*
X48243Y10297D01*
X48257Y10291D01*
X48274Y10283D01*
X48291Y10274D01*
X48335Y10250D01*
X48382Y10214D01*
X48429Y10172D01*
X48479Y10119D01*
X48523Y10058D01*
Y10056D01*
X48529Y10050D01*
X48534Y10042D01*
X48540Y10028D01*
X48551Y10011D01*
X48559Y9992D01*
X48570Y9967D01*
X48581Y9942D01*
X48601Y9884D01*
X48620Y9815D01*
X48631Y9740D01*
X48637Y9657D01*
Y9654D01*
Y9643D01*
Y9629D01*
X48634Y9610D01*
X48631Y9585D01*
X48629Y9557D01*
X48623Y9524D01*
X48615Y9491D01*
X48595Y9413D01*
X48581Y9374D01*
X48565Y9336D01*
X48546Y9294D01*
X48523Y9255D01*
X48498Y9216D01*
X48468Y9180D01*
X48465Y9178D01*
X48460Y9172D01*
X48451Y9164D01*
X48437Y9150D01*
X48418Y9136D01*
X48396Y9119D01*
X48371Y9100D01*
X48340Y9081D01*
X48307Y9059D01*
X48271Y9039D01*
X48230Y9020D01*
X48183Y9000D01*
X48133Y8984D01*
X48080Y8967D01*
X48022Y8953D01*
X47961Y8942D01*
X47964D01*
X47969Y8937D01*
X47978Y8934D01*
X47989Y8925D01*
X48019Y8906D01*
X48058Y8878D01*
X48102Y8848D01*
X48149Y8812D01*
X48196Y8770D01*
X48238Y8729D01*
X48243Y8723D01*
X48249Y8715D01*
X48257Y8707D01*
X48268Y8693D01*
X48282Y8676D01*
X48299Y8657D01*
X48316Y8635D01*
X48335Y8607D01*
X48357Y8576D01*
X48382Y8543D01*
X48407Y8504D01*
X48435Y8463D01*
X48465Y8416D01*
X48498Y8369D01*
X48532Y8313D01*
X48845Y7818D01*
X48227D01*
X47853Y8374D01*
X47850Y8377D01*
X47845Y8388D01*
X47834Y8402D01*
X47820Y8421D01*
X47806Y8446D01*
X47787Y8471D01*
X47745Y8532D01*
X47698Y8596D01*
X47653Y8657D01*
X47631Y8685D01*
X47612Y8709D01*
X47595Y8732D01*
X47579Y8748D01*
X47576Y8751D01*
X47568Y8762D01*
X47551Y8773D01*
X47532Y8790D01*
X47510Y8809D01*
X47482Y8826D01*
X47454Y8842D01*
X47424Y8854D01*
X47421Y8856D01*
X47407Y8859D01*
X47388Y8864D01*
X47360Y8870D01*
X47324Y8876D01*
X47280Y8878D01*
X47227Y8884D01*
X47061D01*
Y7818D01*
X46545D01*
Y10374D01*
X47698D01*
X47731Y10371D01*
D02*
G37*
G36*
X43173Y33452D02*
Y33446D01*
Y33432D01*
Y33407D01*
Y33377D01*
Y33338D01*
X43170Y33296D01*
Y33249D01*
X43168Y33197D01*
X43162Y33091D01*
X43154Y32983D01*
X43148Y32931D01*
X43143Y32884D01*
X43137Y32839D01*
X43129Y32801D01*
Y32798D01*
X43126Y32792D01*
X43123Y32781D01*
X43121Y32770D01*
X43115Y32754D01*
X43109Y32734D01*
X43093Y32690D01*
X43073Y32637D01*
X43046Y32585D01*
X43012Y32532D01*
X42974Y32479D01*
Y32476D01*
X42968Y32474D01*
X42954Y32457D01*
X42929Y32435D01*
X42896Y32405D01*
X42852Y32371D01*
X42802Y32338D01*
X42741Y32302D01*
X42674Y32272D01*
X42672D01*
X42666Y32269D01*
X42655Y32263D01*
X42641Y32260D01*
X42622Y32255D01*
X42600Y32247D01*
X42572Y32241D01*
X42542Y32233D01*
X42508Y32224D01*
X42472Y32219D01*
X42431Y32213D01*
X42389Y32205D01*
X42342Y32202D01*
X42292Y32197D01*
X42240Y32194D01*
X42148D01*
X42123Y32197D01*
X42093D01*
X42060Y32199D01*
X42021Y32202D01*
X41979Y32205D01*
X41888Y32213D01*
X41796Y32230D01*
X41708Y32249D01*
X41666Y32263D01*
X41630Y32277D01*
X41627D01*
X41622Y32280D01*
X41611Y32285D01*
X41600Y32294D01*
X41583Y32302D01*
X41564Y32310D01*
X41522Y32338D01*
X41475Y32368D01*
X41425Y32405D01*
X41375Y32449D01*
X41331Y32496D01*
Y32499D01*
X41326Y32501D01*
X41320Y32510D01*
X41315Y32521D01*
X41295Y32546D01*
X41273Y32582D01*
X41248Y32626D01*
X41223Y32673D01*
X41204Y32726D01*
X41187Y32781D01*
Y32784D01*
X41184Y32792D01*
X41181Y32803D01*
X41179Y32823D01*
X41176Y32845D01*
X41170Y32873D01*
X41168Y32906D01*
X41162Y32945D01*
X41157Y32986D01*
X41154Y33036D01*
X41148Y33089D01*
X41146Y33147D01*
X41143Y33211D01*
X41140Y33277D01*
X41137Y33352D01*
Y33429D01*
Y34798D01*
X41652D01*
Y33410D01*
Y33407D01*
Y33396D01*
Y33380D01*
Y33357D01*
Y33330D01*
Y33299D01*
X41655Y33266D01*
Y33233D01*
Y33158D01*
X41661Y33089D01*
Y33055D01*
X41664Y33028D01*
X41666Y33003D01*
X41669Y32981D01*
Y32978D01*
X41672Y32975D01*
Y32967D01*
X41677Y32956D01*
X41686Y32925D01*
X41702Y32889D01*
X41722Y32850D01*
X41749Y32809D01*
X41785Y32767D01*
X41827Y32729D01*
X41830D01*
X41833Y32726D01*
X41841Y32720D01*
X41849Y32715D01*
X41877Y32698D01*
X41916Y32682D01*
X41965Y32665D01*
X42024Y32648D01*
X42090Y32637D01*
X42168Y32634D01*
X42190D01*
X42204Y32637D01*
X42223D01*
X42242Y32640D01*
X42292Y32645D01*
X42345Y32656D01*
X42400Y32673D01*
X42453Y32693D01*
X42500Y32723D01*
X42506Y32726D01*
X42517Y32740D01*
X42536Y32759D01*
X42558Y32784D01*
X42580Y32814D01*
X42603Y32853D01*
X42622Y32895D01*
X42633Y32942D01*
Y32945D01*
Y32947D01*
X42636Y32956D01*
Y32967D01*
X42638Y32983D01*
X42641Y33000D01*
X42644Y33022D01*
X42647Y33047D01*
Y33075D01*
X42650Y33108D01*
X42652Y33144D01*
X42655Y33183D01*
Y33227D01*
X42658Y33274D01*
Y33324D01*
Y33380D01*
Y34798D01*
X43173D01*
Y33452D01*
D02*
G37*
G36*
X44863Y32241D02*
X44372D01*
Y34083D01*
X44370Y34080D01*
X44361Y34072D01*
X44345Y34058D01*
X44326Y34042D01*
X44300Y34022D01*
X44267Y33997D01*
X44234Y33970D01*
X44192Y33942D01*
X44148Y33911D01*
X44101Y33881D01*
X44049Y33850D01*
X43993Y33820D01*
X43935Y33790D01*
X43871Y33762D01*
X43808Y33737D01*
X43741Y33712D01*
Y34158D01*
X43744D01*
X43749Y34161D01*
X43760Y34163D01*
X43774Y34169D01*
X43794Y34177D01*
X43813Y34186D01*
X43838Y34197D01*
X43866Y34211D01*
X43927Y34241D01*
X43996Y34282D01*
X44073Y34332D01*
X44157Y34393D01*
X44159Y34396D01*
X44168Y34402D01*
X44179Y34410D01*
X44192Y34424D01*
X44212Y34440D01*
X44231Y34463D01*
X44253Y34485D01*
X44278Y34512D01*
X44331Y34573D01*
X44381Y34643D01*
X44428Y34720D01*
X44447Y34762D01*
X44464Y34806D01*
X44863D01*
Y32241D01*
D02*
G37*
G36*
X50814Y42389D02*
X50845Y42386D01*
X50881Y42381D01*
X50922Y42375D01*
X50967Y42367D01*
X51014Y42356D01*
X51061Y42342D01*
X51111Y42325D01*
X51161Y42306D01*
X51208Y42281D01*
X51255Y42253D01*
X51302Y42223D01*
X51343Y42187D01*
X51346Y42184D01*
X51352Y42179D01*
X51363Y42165D01*
X51377Y42151D01*
X51393Y42132D01*
X51413Y42107D01*
X51432Y42079D01*
X51454Y42046D01*
X51474Y42012D01*
X51493Y41974D01*
X51512Y41932D01*
X51529Y41888D01*
X51543Y41838D01*
X51554Y41788D01*
X51560Y41735D01*
X51562Y41680D01*
Y41677D01*
Y41672D01*
Y41663D01*
Y41649D01*
X51560Y41636D01*
Y41616D01*
X51554Y41575D01*
X51546Y41522D01*
X51535Y41467D01*
X51521Y41409D01*
X51499Y41350D01*
Y41348D01*
X51496Y41345D01*
X51493Y41334D01*
X51487Y41323D01*
X51479Y41309D01*
X51471Y41292D01*
X51451Y41251D01*
X51424Y41204D01*
X51390Y41148D01*
X51349Y41087D01*
X51302Y41023D01*
X51296Y41018D01*
X51285Y41001D01*
X51260Y40976D01*
X51230Y40940D01*
X51208Y40918D01*
X51186Y40893D01*
X51158Y40868D01*
X51130Y40838D01*
X51097Y40807D01*
X51061Y40771D01*
X51022Y40735D01*
X50981Y40697D01*
X50978Y40694D01*
X50969Y40688D01*
X50958Y40677D01*
X50945Y40663D01*
X50925Y40647D01*
X50903Y40627D01*
X50856Y40583D01*
X50806Y40536D01*
X50759Y40489D01*
X50737Y40467D01*
X50717Y40447D01*
X50701Y40428D01*
X50687Y40414D01*
X50684Y40411D01*
X50676Y40403D01*
X50665Y40389D01*
X50651Y40373D01*
X50637Y40350D01*
X50621Y40328D01*
X50587Y40281D01*
X51562D01*
Y39827D01*
X49845D01*
Y39830D01*
X49848Y39838D01*
Y39852D01*
X49850Y39871D01*
X49856Y39893D01*
X49861Y39921D01*
X49867Y39952D01*
X49875Y39985D01*
X49898Y40060D01*
X49928Y40143D01*
X49964Y40229D01*
X50011Y40314D01*
X50014Y40317D01*
X50017Y40325D01*
X50028Y40339D01*
X50039Y40356D01*
X50055Y40378D01*
X50078Y40409D01*
X50103Y40439D01*
X50133Y40478D01*
X50166Y40519D01*
X50208Y40564D01*
X50252Y40616D01*
X50302Y40669D01*
X50357Y40727D01*
X50421Y40791D01*
X50488Y40857D01*
X50562Y40927D01*
X50565Y40929D01*
X50576Y40940D01*
X50593Y40957D01*
X50615Y40976D01*
X50643Y41001D01*
X50670Y41029D01*
X50704Y41062D01*
X50737Y41096D01*
X50809Y41165D01*
X50875Y41234D01*
X50903Y41265D01*
X50931Y41295D01*
X50953Y41323D01*
X50969Y41345D01*
Y41348D01*
X50975Y41350D01*
X50978Y41359D01*
X50986Y41370D01*
X51003Y41400D01*
X51022Y41439D01*
X51039Y41483D01*
X51055Y41533D01*
X51066Y41589D01*
X51072Y41644D01*
Y41647D01*
Y41652D01*
Y41661D01*
Y41672D01*
X51066Y41699D01*
X51061Y41738D01*
X51050Y41777D01*
X51036Y41818D01*
X51014Y41860D01*
X50983Y41896D01*
X50981Y41899D01*
X50967Y41910D01*
X50947Y41924D01*
X50920Y41940D01*
X50884Y41957D01*
X50842Y41971D01*
X50795Y41982D01*
X50740Y41985D01*
X50715D01*
X50687Y41979D01*
X50651Y41974D01*
X50612Y41963D01*
X50571Y41946D01*
X50529Y41921D01*
X50493Y41890D01*
X50490Y41885D01*
X50479Y41874D01*
X50465Y41852D01*
X50446Y41818D01*
X50429Y41777D01*
X50413Y41724D01*
X50399Y41661D01*
X50393Y41625D01*
X50391Y41586D01*
X49903Y41633D01*
Y41638D01*
X49906Y41649D01*
X49909Y41672D01*
X49914Y41699D01*
X49920Y41733D01*
X49928Y41771D01*
X49939Y41813D01*
X49953Y41857D01*
X49970Y41904D01*
X49989Y41951D01*
X50011Y42001D01*
X50036Y42048D01*
X50064Y42096D01*
X50097Y42140D01*
X50133Y42179D01*
X50174Y42215D01*
X50177Y42217D01*
X50186Y42223D01*
X50199Y42231D01*
X50216Y42242D01*
X50238Y42256D01*
X50266Y42270D01*
X50296Y42287D01*
X50332Y42303D01*
X50374Y42320D01*
X50415Y42336D01*
X50463Y42350D01*
X50515Y42364D01*
X50568Y42375D01*
X50626Y42384D01*
X50687Y42389D01*
X50751Y42392D01*
X50787D01*
X50814Y42389D01*
D02*
G37*
G36*
X48623Y42381D02*
X48662D01*
X48706Y42378D01*
X48751Y42375D01*
X48850Y42367D01*
X48947Y42353D01*
X48994Y42348D01*
X49042Y42336D01*
X49083Y42325D01*
X49119Y42314D01*
X49122D01*
X49127Y42311D01*
X49136Y42306D01*
X49150Y42301D01*
X49166Y42292D01*
X49183Y42284D01*
X49227Y42259D01*
X49274Y42223D01*
X49321Y42181D01*
X49371Y42129D01*
X49415Y42068D01*
Y42065D01*
X49421Y42059D01*
X49427Y42051D01*
X49432Y42037D01*
X49443Y42021D01*
X49452Y42001D01*
X49463Y41976D01*
X49474Y41951D01*
X49493Y41893D01*
X49512Y41824D01*
X49524Y41749D01*
X49529Y41666D01*
Y41663D01*
Y41652D01*
Y41638D01*
X49526Y41619D01*
X49524Y41594D01*
X49521Y41566D01*
X49515Y41533D01*
X49507Y41500D01*
X49488Y41422D01*
X49474Y41384D01*
X49457Y41345D01*
X49438Y41303D01*
X49415Y41265D01*
X49391Y41226D01*
X49360Y41190D01*
X49357Y41187D01*
X49352Y41181D01*
X49343Y41173D01*
X49330Y41159D01*
X49310Y41145D01*
X49288Y41129D01*
X49263Y41109D01*
X49233Y41090D01*
X49200Y41068D01*
X49163Y41048D01*
X49122Y41029D01*
X49075Y41010D01*
X49025Y40993D01*
X48972Y40976D01*
X48914Y40963D01*
X48853Y40951D01*
X48856D01*
X48862Y40946D01*
X48870Y40943D01*
X48881Y40935D01*
X48911Y40916D01*
X48950Y40888D01*
X48994Y40857D01*
X49042Y40821D01*
X49089Y40780D01*
X49130Y40738D01*
X49136Y40733D01*
X49141Y40724D01*
X49150Y40716D01*
X49161Y40702D01*
X49174Y40686D01*
X49191Y40666D01*
X49208Y40644D01*
X49227Y40616D01*
X49249Y40586D01*
X49274Y40553D01*
X49299Y40514D01*
X49327Y40472D01*
X49357Y40425D01*
X49391Y40378D01*
X49424Y40323D01*
X49737Y39827D01*
X49119D01*
X48745Y40384D01*
X48742Y40386D01*
X48737Y40398D01*
X48726Y40411D01*
X48712Y40431D01*
X48698Y40456D01*
X48679Y40481D01*
X48637Y40541D01*
X48590Y40605D01*
X48546Y40666D01*
X48524Y40694D01*
X48504Y40719D01*
X48488Y40741D01*
X48471Y40758D01*
X48468Y40760D01*
X48460Y40771D01*
X48443Y40782D01*
X48424Y40799D01*
X48402Y40819D01*
X48374Y40835D01*
X48346Y40852D01*
X48316Y40863D01*
X48313Y40866D01*
X48299Y40868D01*
X48280Y40874D01*
X48252Y40879D01*
X48216Y40885D01*
X48172Y40888D01*
X48119Y40893D01*
X47953D01*
Y39827D01*
X47438D01*
Y42384D01*
X48590D01*
X48623Y42381D01*
D02*
G37*
G36*
X30544Y32069D02*
X30569D01*
X30600Y32066D01*
X30633Y32061D01*
X30672Y32053D01*
X30713Y32044D01*
X30760Y32030D01*
X30805Y32017D01*
X30854Y31997D01*
X30902Y31975D01*
X30949Y31950D01*
X30996Y31920D01*
X31040Y31884D01*
X31084Y31845D01*
X31087Y31842D01*
X31093Y31834D01*
X31104Y31823D01*
X31118Y31803D01*
X31137Y31781D01*
X31154Y31753D01*
X31176Y31720D01*
X31195Y31684D01*
X31215Y31643D01*
X31237Y31598D01*
X31253Y31548D01*
X31270Y31496D01*
X31287Y31438D01*
X31298Y31377D01*
X31303Y31313D01*
X31306Y31244D01*
Y31211D01*
X31303Y31186D01*
X31301Y31155D01*
X31295Y31122D01*
X31289Y31083D01*
X31284Y31041D01*
X31262Y30947D01*
X31248Y30900D01*
X31229Y30850D01*
X31209Y30803D01*
X31184Y30753D01*
X31157Y30706D01*
X31123Y30662D01*
X31120Y30659D01*
X31112Y30651D01*
X31101Y30637D01*
X31084Y30621D01*
X31062Y30598D01*
X31035Y30576D01*
X31004Y30551D01*
X30968Y30526D01*
X30926Y30501D01*
X30882Y30476D01*
X30835Y30454D01*
X30782Y30432D01*
X30724Y30415D01*
X30663Y30402D01*
X30600Y30393D01*
X30530Y30391D01*
X30528D01*
X30522D01*
X30511D01*
X30494Y30393D01*
X30478D01*
X30456Y30396D01*
X30406Y30404D01*
X30348Y30415D01*
X30284Y30435D01*
X30217Y30460D01*
X30151Y30493D01*
X30148D01*
X30143Y30499D01*
X30134Y30504D01*
X30123Y30512D01*
X30090Y30537D01*
X30051Y30571D01*
X30010Y30618D01*
X29963Y30673D01*
X29921Y30737D01*
X29882Y30814D01*
Y30812D01*
X29880Y30806D01*
X29874Y30798D01*
X29868Y30784D01*
X29849Y30751D01*
X29824Y30709D01*
X29794Y30665D01*
X29755Y30621D01*
X29713Y30576D01*
X29663Y30540D01*
X29661D01*
X29658Y30537D01*
X29650Y30532D01*
X29638Y30526D01*
X29611Y30512D01*
X29572Y30499D01*
X29525Y30482D01*
X29472Y30468D01*
X29414Y30457D01*
X29353Y30454D01*
X29350D01*
X29339D01*
X29326Y30457D01*
X29306D01*
X29281Y30460D01*
X29254Y30465D01*
X29220Y30471D01*
X29187Y30479D01*
X29151Y30490D01*
X29112Y30504D01*
X29073Y30518D01*
X29035Y30537D01*
X28996Y30562D01*
X28957Y30587D01*
X28918Y30618D01*
X28882Y30654D01*
X28879Y30656D01*
X28874Y30662D01*
X28866Y30676D01*
X28852Y30690D01*
X28838Y30712D01*
X28821Y30737D01*
X28805Y30764D01*
X28788Y30801D01*
X28771Y30836D01*
X28752Y30881D01*
X28738Y30928D01*
X28724Y30978D01*
X28711Y31033D01*
X28702Y31091D01*
X28697Y31155D01*
X28694Y31222D01*
Y31258D01*
X28697Y31282D01*
X28699Y31313D01*
X28705Y31346D01*
X28711Y31385D01*
X28716Y31429D01*
X28741Y31518D01*
X28755Y31565D01*
X28774Y31612D01*
X28794Y31659D01*
X28821Y31704D01*
X28849Y31748D01*
X28882Y31787D01*
X28885Y31789D01*
X28891Y31795D01*
X28902Y31806D01*
X28916Y31817D01*
X28935Y31834D01*
X28957Y31850D01*
X28982Y31870D01*
X29010Y31889D01*
X29043Y31906D01*
X29079Y31925D01*
X29118Y31942D01*
X29159Y31958D01*
X29204Y31969D01*
X29251Y31981D01*
X29301Y31986D01*
X29353Y31989D01*
X29356D01*
X29362D01*
X29370D01*
X29384D01*
X29397Y31986D01*
X29417Y31983D01*
X29458Y31978D01*
X29508Y31967D01*
X29561Y31950D01*
X29616Y31925D01*
X29669Y31895D01*
X29672D01*
X29675Y31889D01*
X29691Y31878D01*
X29716Y31856D01*
X29746Y31828D01*
X29783Y31792D01*
X29818Y31748D01*
X29852Y31695D01*
X29882Y31637D01*
Y31640D01*
X29885Y31645D01*
X29891Y31657D01*
X29899Y31673D01*
X29907Y31690D01*
X29918Y31712D01*
X29946Y31759D01*
X29982Y31809D01*
X30024Y31864D01*
X30073Y31917D01*
X30132Y31961D01*
X30134D01*
X30140Y31967D01*
X30148Y31972D01*
X30159Y31978D01*
X30176Y31986D01*
X30195Y31997D01*
X30215Y32006D01*
X30240Y32017D01*
X30295Y32036D01*
X30362Y32055D01*
X30433Y32066D01*
X30511Y32072D01*
X30514D01*
X30528D01*
X30544Y32069D01*
D02*
G37*
G36*
X31259Y29609D02*
X30702Y29236D01*
X30699Y29233D01*
X30688Y29227D01*
X30674Y29216D01*
X30655Y29202D01*
X30630Y29188D01*
X30605Y29169D01*
X30544Y29127D01*
X30481Y29080D01*
X30420Y29036D01*
X30392Y29014D01*
X30367Y28995D01*
X30345Y28978D01*
X30328Y28961D01*
X30325Y28958D01*
X30314Y28950D01*
X30303Y28934D01*
X30287Y28914D01*
X30267Y28892D01*
X30251Y28864D01*
X30234Y28837D01*
X30223Y28806D01*
X30220Y28803D01*
X30217Y28789D01*
X30212Y28770D01*
X30206Y28742D01*
X30201Y28706D01*
X30198Y28662D01*
X30193Y28609D01*
Y28443D01*
X31259D01*
Y27928D01*
X28702D01*
Y29080D01*
X28705Y29114D01*
Y29152D01*
X28708Y29197D01*
X28711Y29241D01*
X28719Y29341D01*
X28733Y29438D01*
X28738Y29485D01*
X28749Y29532D01*
X28760Y29573D01*
X28771Y29609D01*
Y29612D01*
X28774Y29618D01*
X28780Y29626D01*
X28785Y29640D01*
X28794Y29656D01*
X28802Y29673D01*
X28827Y29717D01*
X28863Y29765D01*
X28905Y29812D01*
X28957Y29862D01*
X29018Y29906D01*
X29021D01*
X29026Y29911D01*
X29035Y29917D01*
X29048Y29922D01*
X29065Y29934D01*
X29085Y29942D01*
X29109Y29953D01*
X29134Y29964D01*
X29193Y29983D01*
X29262Y30003D01*
X29337Y30014D01*
X29420Y30019D01*
X29422D01*
X29434D01*
X29447D01*
X29467Y30017D01*
X29492Y30014D01*
X29519Y30011D01*
X29553Y30005D01*
X29586Y29997D01*
X29663Y29978D01*
X29702Y29964D01*
X29741Y29947D01*
X29783Y29928D01*
X29821Y29906D01*
X29860Y29881D01*
X29896Y29850D01*
X29899Y29848D01*
X29904Y29842D01*
X29913Y29834D01*
X29927Y29820D01*
X29940Y29801D01*
X29957Y29778D01*
X29976Y29754D01*
X29996Y29723D01*
X30018Y29690D01*
X30037Y29654D01*
X30057Y29612D01*
X30076Y29565D01*
X30093Y29515D01*
X30109Y29463D01*
X30123Y29405D01*
X30134Y29344D01*
Y29346D01*
X30140Y29352D01*
X30143Y29360D01*
X30151Y29371D01*
X30170Y29402D01*
X30198Y29441D01*
X30228Y29485D01*
X30264Y29532D01*
X30306Y29579D01*
X30348Y29621D01*
X30353Y29626D01*
X30362Y29632D01*
X30370Y29640D01*
X30384Y29651D01*
X30400Y29665D01*
X30420Y29682D01*
X30442Y29698D01*
X30470Y29717D01*
X30500Y29740D01*
X30533Y29765D01*
X30572Y29790D01*
X30613Y29817D01*
X30661Y29848D01*
X30708Y29881D01*
X30763Y29914D01*
X31259Y30227D01*
Y29609D01*
D02*
G37*
G36*
X39112Y18823D02*
X39118Y18817D01*
X39132Y18806D01*
X39148Y18789D01*
X39168Y18770D01*
X39195Y18748D01*
X39226Y18723D01*
X39259Y18695D01*
X39298Y18665D01*
X39342Y18631D01*
X39392Y18595D01*
X39445Y18559D01*
X39500Y18521D01*
X39561Y18482D01*
X39627Y18443D01*
X39697Y18402D01*
X39702Y18399D01*
X39713Y18393D01*
X39735Y18382D01*
X39763Y18365D01*
X39799Y18349D01*
X39841Y18329D01*
X39888Y18305D01*
X39940Y18280D01*
X40001Y18255D01*
X40062Y18227D01*
X40132Y18202D01*
X40201Y18174D01*
X40276Y18147D01*
X40353Y18122D01*
X40511Y18075D01*
X40517D01*
X40530Y18069D01*
X40553Y18064D01*
X40583Y18058D01*
X40622Y18050D01*
X40663Y18039D01*
X40713Y18030D01*
X40769Y18019D01*
X40827Y18008D01*
X40888Y18000D01*
X41015Y17983D01*
X41148Y17969D01*
X41278Y17967D01*
Y17493D01*
X41276D01*
X41273D01*
X41265D01*
X41253D01*
X41226Y17496D01*
X41187Y17499D01*
X41140Y17501D01*
X41082Y17507D01*
X41018Y17515D01*
X40946Y17523D01*
X40866Y17537D01*
X40782Y17551D01*
X40694Y17568D01*
X40600Y17590D01*
X40503Y17612D01*
X40403Y17640D01*
X40301Y17673D01*
X40198Y17709D01*
X40195D01*
X40192Y17712D01*
X40184Y17715D01*
X40173Y17717D01*
X40143Y17731D01*
X40104Y17748D01*
X40057Y17767D01*
X39999Y17792D01*
X39935Y17823D01*
X39866Y17856D01*
X39791Y17895D01*
X39713Y17936D01*
X39630Y17980D01*
X39547Y18030D01*
X39461Y18083D01*
X39375Y18141D01*
X39292Y18199D01*
X39209Y18263D01*
Y17150D01*
X38755D01*
Y18825D01*
X39109D01*
X39112Y18823D01*
D02*
G37*
G36*
X41278Y16360D02*
X40722Y15986D01*
X40719Y15983D01*
X40708Y15978D01*
X40694Y15967D01*
X40674Y15953D01*
X40650Y15939D01*
X40625Y15920D01*
X40564Y15878D01*
X40500Y15831D01*
X40439Y15787D01*
X40411Y15765D01*
X40386Y15745D01*
X40364Y15729D01*
X40348Y15712D01*
X40345Y15709D01*
X40334Y15701D01*
X40323Y15684D01*
X40306Y15665D01*
X40287Y15643D01*
X40270Y15615D01*
X40253Y15587D01*
X40242Y15557D01*
X40240Y15554D01*
X40237Y15540D01*
X40231Y15521D01*
X40226Y15493D01*
X40220Y15457D01*
X40217Y15413D01*
X40212Y15360D01*
Y15194D01*
X41278D01*
Y14679D01*
X38722D01*
Y15831D01*
X38724Y15864D01*
Y15903D01*
X38727Y15947D01*
X38730Y15992D01*
X38738Y16091D01*
X38752Y16188D01*
X38758Y16235D01*
X38769Y16283D01*
X38780Y16324D01*
X38791Y16360D01*
Y16363D01*
X38794Y16368D01*
X38799Y16377D01*
X38805Y16390D01*
X38813Y16407D01*
X38821Y16424D01*
X38846Y16468D01*
X38882Y16515D01*
X38924Y16562D01*
X38976Y16612D01*
X39037Y16656D01*
X39040D01*
X39046Y16662D01*
X39054Y16668D01*
X39068Y16673D01*
X39085Y16684D01*
X39104Y16692D01*
X39129Y16703D01*
X39154Y16715D01*
X39212Y16734D01*
X39281Y16753D01*
X39356Y16764D01*
X39439Y16770D01*
X39442D01*
X39453D01*
X39467D01*
X39486Y16767D01*
X39511Y16764D01*
X39539Y16762D01*
X39572Y16756D01*
X39605Y16748D01*
X39683Y16728D01*
X39722Y16715D01*
X39760Y16698D01*
X39802Y16679D01*
X39841Y16656D01*
X39880Y16632D01*
X39915Y16601D01*
X39918Y16598D01*
X39924Y16593D01*
X39932Y16584D01*
X39946Y16570D01*
X39960Y16551D01*
X39976Y16529D01*
X39996Y16504D01*
X40015Y16474D01*
X40037Y16440D01*
X40057Y16404D01*
X40076Y16363D01*
X40096Y16316D01*
X40112Y16266D01*
X40129Y16213D01*
X40143Y16155D01*
X40154Y16094D01*
Y16097D01*
X40159Y16102D01*
X40162Y16111D01*
X40170Y16122D01*
X40190Y16152D01*
X40217Y16191D01*
X40248Y16235D01*
X40284Y16283D01*
X40325Y16330D01*
X40367Y16371D01*
X40373Y16377D01*
X40381Y16382D01*
X40389Y16390D01*
X40403Y16402D01*
X40420Y16415D01*
X40439Y16432D01*
X40461Y16449D01*
X40489Y16468D01*
X40519Y16490D01*
X40553Y16515D01*
X40591Y16540D01*
X40633Y16568D01*
X40680Y16598D01*
X40727Y16632D01*
X40782Y16665D01*
X41278Y16978D01*
Y16360D01*
D02*
G37*
G36*
X30481Y22579D02*
X30505D01*
X30539Y22573D01*
X30577Y22571D01*
X30622Y22562D01*
X30669Y22554D01*
X30716Y22540D01*
X30769Y22526D01*
X30821Y22507D01*
X30874Y22485D01*
X30924Y22457D01*
X30976Y22426D01*
X31023Y22390D01*
X31071Y22349D01*
X31073Y22346D01*
X31082Y22338D01*
X31093Y22327D01*
X31107Y22307D01*
X31126Y22285D01*
X31145Y22257D01*
X31168Y22224D01*
X31187Y22188D01*
X31209Y22150D01*
X31231Y22105D01*
X31251Y22055D01*
X31270Y22003D01*
X31284Y21947D01*
X31295Y21889D01*
X31303Y21825D01*
X31306Y21759D01*
Y21742D01*
X31303Y21723D01*
X31301Y21695D01*
X31298Y21662D01*
X31289Y21623D01*
X31281Y21582D01*
X31267Y21535D01*
X31253Y21485D01*
X31234Y21432D01*
X31209Y21379D01*
X31179Y21327D01*
X31145Y21274D01*
X31107Y21222D01*
X31060Y21169D01*
X31007Y21122D01*
X31004Y21119D01*
X30993Y21111D01*
X30974Y21100D01*
X30949Y21083D01*
X30915Y21064D01*
X30874Y21044D01*
X30827Y21022D01*
X30771Y21000D01*
X30705Y20975D01*
X30633Y20953D01*
X30553Y20933D01*
X30464Y20914D01*
X30367Y20898D01*
X30259Y20886D01*
X30145Y20878D01*
X30021Y20875D01*
X30018D01*
X30013D01*
X30004D01*
X29990D01*
X29974D01*
X29954Y20878D01*
X29932D01*
X29907D01*
X29849Y20884D01*
X29783Y20889D01*
X29708Y20898D01*
X29630Y20909D01*
X29547Y20922D01*
X29464Y20939D01*
X29378Y20958D01*
X29295Y20983D01*
X29215Y21014D01*
X29140Y21047D01*
X29071Y21089D01*
X29007Y21133D01*
X29004Y21136D01*
X28993Y21144D01*
X28979Y21161D01*
X28957Y21180D01*
X28935Y21205D01*
X28907Y21238D01*
X28879Y21274D01*
X28849Y21316D01*
X28821Y21360D01*
X28794Y21413D01*
X28766Y21468D01*
X28744Y21529D01*
X28722Y21593D01*
X28708Y21659D01*
X28697Y21734D01*
X28694Y21809D01*
Y21836D01*
X28697Y21859D01*
X28699Y21881D01*
X28702Y21911D01*
X28708Y21945D01*
X28713Y21978D01*
X28736Y22055D01*
X28747Y22094D01*
X28763Y22136D01*
X28783Y22174D01*
X28805Y22216D01*
X28830Y22255D01*
X28860Y22291D01*
X28863Y22294D01*
X28868Y22299D01*
X28877Y22310D01*
X28891Y22321D01*
X28907Y22338D01*
X28929Y22354D01*
X28951Y22374D01*
X28982Y22393D01*
X29013Y22413D01*
X29048Y22435D01*
X29087Y22454D01*
X29129Y22474D01*
X29176Y22493D01*
X29226Y22510D01*
X29278Y22524D01*
X29337Y22535D01*
X29386Y22061D01*
X29384D01*
X29381D01*
X29362Y22058D01*
X29337Y22050D01*
X29306Y22041D01*
X29270Y22030D01*
X29237Y22014D01*
X29201Y21992D01*
X29173Y21967D01*
X29170Y21964D01*
X29162Y21953D01*
X29151Y21939D01*
X29137Y21917D01*
X29123Y21889D01*
X29112Y21856D01*
X29104Y21820D01*
X29101Y21778D01*
Y21765D01*
X29104Y21753D01*
X29109Y21723D01*
X29118Y21687D01*
X29134Y21645D01*
X29159Y21601D01*
X29176Y21579D01*
X29195Y21557D01*
X29217Y21537D01*
X29242Y21515D01*
X29245D01*
X29248Y21510D01*
X29259Y21504D01*
X29270Y21499D01*
X29287Y21490D01*
X29309Y21479D01*
X29337Y21471D01*
X29367Y21460D01*
X29403Y21449D01*
X29445Y21435D01*
X29492Y21424D01*
X29547Y21413D01*
X29605Y21404D01*
X29672Y21393D01*
X29744Y21385D01*
X29824Y21379D01*
X29821Y21382D01*
X29816Y21388D01*
X29805Y21399D01*
X29791Y21413D01*
X29774Y21432D01*
X29755Y21452D01*
X29735Y21476D01*
X29713Y21507D01*
X29694Y21537D01*
X29675Y21573D01*
X29655Y21609D01*
X29638Y21651D01*
X29625Y21692D01*
X29614Y21739D01*
X29608Y21787D01*
X29605Y21836D01*
Y21850D01*
X29608Y21867D01*
Y21889D01*
X29614Y21914D01*
X29616Y21945D01*
X29625Y21981D01*
X29636Y22017D01*
X29647Y22058D01*
X29663Y22100D01*
X29683Y22144D01*
X29705Y22188D01*
X29733Y22233D01*
X29763Y22277D01*
X29799Y22321D01*
X29841Y22363D01*
X29844Y22366D01*
X29852Y22371D01*
X29866Y22382D01*
X29882Y22396D01*
X29907Y22413D01*
X29935Y22432D01*
X29965Y22451D01*
X30004Y22474D01*
X30043Y22493D01*
X30090Y22512D01*
X30140Y22532D01*
X30193Y22548D01*
X30251Y22562D01*
X30309Y22573D01*
X30375Y22579D01*
X30442Y22582D01*
X30447D01*
X30458D01*
X30481Y22579D01*
D02*
G37*
G36*
X31259Y19651D02*
X29417D01*
X29420Y19648D01*
X29428Y19640D01*
X29442Y19623D01*
X29458Y19604D01*
X29478Y19579D01*
X29503Y19546D01*
X29531Y19512D01*
X29558Y19471D01*
X29589Y19427D01*
X29619Y19379D01*
X29650Y19327D01*
X29680Y19272D01*
X29711Y19213D01*
X29738Y19150D01*
X29763Y19086D01*
X29788Y19019D01*
X29342D01*
Y19022D01*
X29339Y19028D01*
X29337Y19039D01*
X29331Y19053D01*
X29323Y19072D01*
X29314Y19091D01*
X29303Y19116D01*
X29289Y19144D01*
X29259Y19205D01*
X29217Y19274D01*
X29168Y19352D01*
X29107Y19435D01*
X29104Y19438D01*
X29098Y19446D01*
X29090Y19457D01*
X29076Y19471D01*
X29060Y19490D01*
X29037Y19510D01*
X29015Y19532D01*
X28988Y19557D01*
X28927Y19609D01*
X28857Y19659D01*
X28780Y19706D01*
X28738Y19726D01*
X28694Y19742D01*
Y20141D01*
X31259D01*
Y19651D01*
D02*
G37*
G36*
Y18100D02*
X30702Y17726D01*
X30699Y17723D01*
X30688Y17718D01*
X30674Y17706D01*
X30655Y17693D01*
X30630Y17679D01*
X30605Y17659D01*
X30544Y17618D01*
X30481Y17571D01*
X30420Y17526D01*
X30392Y17504D01*
X30367Y17485D01*
X30345Y17468D01*
X30328Y17452D01*
X30325Y17449D01*
X30314Y17440D01*
X30303Y17424D01*
X30287Y17404D01*
X30267Y17382D01*
X30251Y17355D01*
X30234Y17327D01*
X30223Y17297D01*
X30220Y17294D01*
X30217Y17280D01*
X30212Y17260D01*
X30206Y17233D01*
X30201Y17197D01*
X30198Y17152D01*
X30193Y17100D01*
Y16934D01*
X31259D01*
Y16418D01*
X28702D01*
Y17571D01*
X28705Y17604D01*
Y17643D01*
X28708Y17687D01*
X28711Y17731D01*
X28719Y17831D01*
X28733Y17928D01*
X28738Y17975D01*
X28749Y18022D01*
X28760Y18064D01*
X28771Y18100D01*
Y18102D01*
X28774Y18108D01*
X28780Y18116D01*
X28785Y18130D01*
X28794Y18147D01*
X28802Y18164D01*
X28827Y18208D01*
X28863Y18255D01*
X28905Y18302D01*
X28957Y18352D01*
X29018Y18396D01*
X29021D01*
X29026Y18402D01*
X29035Y18407D01*
X29048Y18413D01*
X29065Y18424D01*
X29085Y18432D01*
X29109Y18443D01*
X29134Y18454D01*
X29193Y18474D01*
X29262Y18493D01*
X29337Y18504D01*
X29420Y18510D01*
X29422D01*
X29434D01*
X29447D01*
X29467Y18507D01*
X29492Y18504D01*
X29519Y18501D01*
X29553Y18496D01*
X29586Y18488D01*
X29663Y18468D01*
X29702Y18454D01*
X29741Y18438D01*
X29783Y18418D01*
X29821Y18396D01*
X29860Y18371D01*
X29896Y18341D01*
X29899Y18338D01*
X29904Y18332D01*
X29913Y18324D01*
X29927Y18310D01*
X29940Y18291D01*
X29957Y18269D01*
X29976Y18244D01*
X29996Y18213D01*
X30018Y18180D01*
X30037Y18144D01*
X30057Y18102D01*
X30076Y18055D01*
X30093Y18006D01*
X30109Y17953D01*
X30123Y17895D01*
X30134Y17834D01*
Y17837D01*
X30140Y17842D01*
X30143Y17851D01*
X30151Y17862D01*
X30170Y17892D01*
X30198Y17931D01*
X30228Y17975D01*
X30264Y18022D01*
X30306Y18069D01*
X30348Y18111D01*
X30353Y18116D01*
X30362Y18122D01*
X30370Y18130D01*
X30384Y18141D01*
X30400Y18155D01*
X30420Y18172D01*
X30442Y18188D01*
X30470Y18208D01*
X30500Y18230D01*
X30533Y18255D01*
X30572Y18280D01*
X30613Y18307D01*
X30661Y18338D01*
X30708Y18371D01*
X30763Y18405D01*
X31259Y18718D01*
Y18100D01*
D02*
G37*
G36*
X20666Y21086D02*
X20664Y21084D01*
X20658Y21078D01*
X20647Y21064D01*
X20630Y21048D01*
X20611Y21028D01*
X20589Y21001D01*
X20564Y20970D01*
X20536Y20937D01*
X20506Y20898D01*
X20472Y20854D01*
X20437Y20804D01*
X20401Y20751D01*
X20362Y20696D01*
X20323Y20635D01*
X20284Y20568D01*
X20243Y20499D01*
X20240Y20494D01*
X20234Y20482D01*
X20223Y20460D01*
X20207Y20433D01*
X20190Y20397D01*
X20171Y20355D01*
X20146Y20308D01*
X20121Y20255D01*
X20096Y20195D01*
X20068Y20133D01*
X20043Y20064D01*
X20015Y19995D01*
X19988Y19920D01*
X19963Y19843D01*
X19916Y19685D01*
Y19679D01*
X19910Y19665D01*
X19905Y19643D01*
X19899Y19613D01*
X19891Y19574D01*
X19880Y19532D01*
X19871Y19483D01*
X19860Y19427D01*
X19849Y19369D01*
X19841Y19308D01*
X19824Y19181D01*
X19811Y19048D01*
X19808Y18917D01*
X19334D01*
Y18920D01*
Y18923D01*
Y18931D01*
Y18942D01*
X19337Y18970D01*
X19340Y19009D01*
X19342Y19056D01*
X19348Y19114D01*
X19356Y19178D01*
X19365Y19250D01*
X19378Y19330D01*
X19392Y19413D01*
X19409Y19502D01*
X19431Y19596D01*
X19453Y19693D01*
X19481Y19793D01*
X19514Y19895D01*
X19550Y19998D01*
Y20001D01*
X19553Y20003D01*
X19556Y20012D01*
X19558Y20023D01*
X19572Y20053D01*
X19589Y20092D01*
X19608Y20139D01*
X19633Y20197D01*
X19664Y20261D01*
X19697Y20330D01*
X19736Y20405D01*
X19777Y20482D01*
X19821Y20566D01*
X19871Y20649D01*
X19924Y20735D01*
X19982Y20820D01*
X20040Y20904D01*
X20104Y20987D01*
X18991D01*
Y21441D01*
X20666D01*
Y21086D01*
D02*
G37*
G36*
X18257Y18917D02*
X17766D01*
Y20760D01*
X17763Y20757D01*
X17755Y20749D01*
X17739Y20735D01*
X17719Y20718D01*
X17694Y20699D01*
X17661Y20674D01*
X17628Y20646D01*
X17586Y20618D01*
X17542Y20588D01*
X17495Y20557D01*
X17442Y20527D01*
X17387Y20496D01*
X17328Y20466D01*
X17265Y20438D01*
X17201Y20413D01*
X17135Y20388D01*
Y20834D01*
X17137D01*
X17143Y20837D01*
X17154Y20840D01*
X17168Y20845D01*
X17187Y20854D01*
X17207Y20862D01*
X17232Y20873D01*
X17259Y20887D01*
X17320Y20917D01*
X17390Y20959D01*
X17467Y21009D01*
X17550Y21070D01*
X17553Y21073D01*
X17561Y21078D01*
X17572Y21086D01*
X17586Y21100D01*
X17605Y21117D01*
X17625Y21139D01*
X17647Y21161D01*
X17672Y21189D01*
X17725Y21250D01*
X17774Y21319D01*
X17822Y21397D01*
X17841Y21438D01*
X17858Y21483D01*
X18257D01*
Y18917D01*
D02*
G37*
G36*
X15719Y21471D02*
X15758D01*
X15802Y21469D01*
X15847Y21466D01*
X15946Y21458D01*
X16043Y21444D01*
X16090Y21438D01*
X16137Y21427D01*
X16179Y21416D01*
X16215Y21405D01*
X16218D01*
X16223Y21402D01*
X16232Y21397D01*
X16246Y21391D01*
X16262Y21383D01*
X16279Y21374D01*
X16323Y21350D01*
X16370Y21314D01*
X16417Y21272D01*
X16467Y21219D01*
X16511Y21158D01*
Y21156D01*
X16517Y21150D01*
X16522Y21142D01*
X16528Y21128D01*
X16539Y21111D01*
X16547Y21092D01*
X16558Y21067D01*
X16570Y21042D01*
X16589Y20984D01*
X16608Y20915D01*
X16619Y20840D01*
X16625Y20757D01*
Y20754D01*
Y20743D01*
Y20729D01*
X16622Y20710D01*
X16619Y20685D01*
X16617Y20657D01*
X16611Y20624D01*
X16603Y20591D01*
X16583Y20513D01*
X16570Y20474D01*
X16553Y20436D01*
X16533Y20394D01*
X16511Y20355D01*
X16487Y20316D01*
X16456Y20280D01*
X16453Y20278D01*
X16448Y20272D01*
X16439Y20264D01*
X16425Y20250D01*
X16406Y20236D01*
X16384Y20219D01*
X16359Y20200D01*
X16329Y20181D01*
X16295Y20158D01*
X16259Y20139D01*
X16218Y20120D01*
X16171Y20100D01*
X16121Y20084D01*
X16068Y20067D01*
X16010Y20053D01*
X15949Y20042D01*
X15952D01*
X15957Y20037D01*
X15966Y20034D01*
X15977Y20026D01*
X16007Y20006D01*
X16046Y19978D01*
X16090Y19948D01*
X16137Y19912D01*
X16184Y19870D01*
X16226Y19829D01*
X16232Y19823D01*
X16237Y19815D01*
X16246Y19807D01*
X16256Y19793D01*
X16270Y19776D01*
X16287Y19757D01*
X16304Y19735D01*
X16323Y19707D01*
X16345Y19677D01*
X16370Y19643D01*
X16395Y19604D01*
X16423Y19563D01*
X16453Y19516D01*
X16487Y19469D01*
X16520Y19413D01*
X16833Y18917D01*
X16215D01*
X15841Y19474D01*
X15838Y19477D01*
X15833Y19488D01*
X15822Y19502D01*
X15808Y19521D01*
X15794Y19546D01*
X15775Y19571D01*
X15733Y19632D01*
X15686Y19696D01*
X15642Y19757D01*
X15619Y19784D01*
X15600Y19809D01*
X15583Y19832D01*
X15567Y19848D01*
X15564Y19851D01*
X15556Y19862D01*
X15539Y19873D01*
X15520Y19890D01*
X15498Y19909D01*
X15470Y19926D01*
X15442Y19942D01*
X15412Y19953D01*
X15409Y19956D01*
X15395Y19959D01*
X15376Y19964D01*
X15348Y19970D01*
X15312Y19976D01*
X15268Y19978D01*
X15215Y19984D01*
X15049D01*
Y18917D01*
X14534D01*
Y21474D01*
X15686D01*
X15719Y21471D01*
D02*
G37*
G36*
X32366Y45303D02*
X32388Y45300D01*
X32418Y45298D01*
X32452Y45292D01*
X32485Y45287D01*
X32562Y45265D01*
X32601Y45253D01*
X32643Y45237D01*
X32681Y45217D01*
X32723Y45195D01*
X32762Y45170D01*
X32798Y45140D01*
X32800Y45137D01*
X32806Y45131D01*
X32817Y45123D01*
X32828Y45109D01*
X32845Y45093D01*
X32861Y45071D01*
X32881Y45048D01*
X32900Y45018D01*
X32920Y44987D01*
X32942Y44952D01*
X32961Y44913D01*
X32980Y44871D01*
X33000Y44824D01*
X33017Y44774D01*
X33030Y44722D01*
X33042Y44663D01*
X32568Y44614D01*
Y44616D01*
Y44619D01*
X32565Y44638D01*
X32557Y44663D01*
X32548Y44694D01*
X32537Y44730D01*
X32521Y44763D01*
X32499Y44799D01*
X32474Y44827D01*
X32471Y44830D01*
X32460Y44838D01*
X32446Y44849D01*
X32424Y44863D01*
X32396Y44877D01*
X32363Y44888D01*
X32327Y44896D01*
X32285Y44899D01*
X32271D01*
X32260Y44896D01*
X32230Y44891D01*
X32194Y44882D01*
X32152Y44866D01*
X32108Y44841D01*
X32086Y44824D01*
X32064Y44805D01*
X32044Y44783D01*
X32022Y44758D01*
Y44755D01*
X32017Y44752D01*
X32011Y44741D01*
X32006Y44730D01*
X31997Y44713D01*
X31986Y44691D01*
X31978Y44663D01*
X31967Y44633D01*
X31956Y44597D01*
X31942Y44555D01*
X31931Y44508D01*
X31920Y44453D01*
X31911Y44395D01*
X31900Y44328D01*
X31892Y44256D01*
X31886Y44176D01*
X31889Y44179D01*
X31895Y44184D01*
X31906Y44195D01*
X31920Y44209D01*
X31939Y44226D01*
X31958Y44245D01*
X31983Y44265D01*
X32014Y44287D01*
X32044Y44306D01*
X32080Y44326D01*
X32116Y44345D01*
X32158Y44361D01*
X32199Y44375D01*
X32247Y44386D01*
X32294Y44392D01*
X32344Y44395D01*
X32357D01*
X32374Y44392D01*
X32396D01*
X32421Y44386D01*
X32452Y44384D01*
X32487Y44375D01*
X32524Y44364D01*
X32565Y44353D01*
X32607Y44337D01*
X32651Y44317D01*
X32695Y44295D01*
X32740Y44267D01*
X32784Y44237D01*
X32828Y44201D01*
X32870Y44159D01*
X32873Y44157D01*
X32878Y44148D01*
X32889Y44134D01*
X32903Y44118D01*
X32920Y44093D01*
X32939Y44065D01*
X32958Y44035D01*
X32980Y43996D01*
X33000Y43957D01*
X33019Y43910D01*
X33039Y43860D01*
X33055Y43808D01*
X33069Y43749D01*
X33080Y43691D01*
X33086Y43625D01*
X33089Y43558D01*
Y43553D01*
Y43542D01*
X33086Y43519D01*
Y43494D01*
X33080Y43461D01*
X33077Y43422D01*
X33069Y43378D01*
X33061Y43331D01*
X33047Y43284D01*
X33033Y43231D01*
X33014Y43179D01*
X32992Y43126D01*
X32964Y43076D01*
X32934Y43024D01*
X32897Y42976D01*
X32856Y42929D01*
X32853Y42927D01*
X32845Y42918D01*
X32834Y42907D01*
X32814Y42893D01*
X32792Y42874D01*
X32765Y42855D01*
X32731Y42832D01*
X32695Y42813D01*
X32656Y42791D01*
X32612Y42769D01*
X32562Y42749D01*
X32510Y42730D01*
X32454Y42716D01*
X32396Y42705D01*
X32332Y42697D01*
X32266Y42694D01*
X32249D01*
X32230Y42697D01*
X32202Y42700D01*
X32169Y42702D01*
X32130Y42711D01*
X32089Y42719D01*
X32041Y42733D01*
X31992Y42747D01*
X31939Y42766D01*
X31886Y42791D01*
X31834Y42821D01*
X31781Y42855D01*
X31729Y42893D01*
X31676Y42941D01*
X31629Y42993D01*
X31626Y42996D01*
X31618Y43007D01*
X31607Y43026D01*
X31590Y43051D01*
X31571Y43084D01*
X31551Y43126D01*
X31529Y43173D01*
X31507Y43229D01*
X31482Y43295D01*
X31460Y43367D01*
X31440Y43447D01*
X31421Y43536D01*
X31404Y43633D01*
X31393Y43741D01*
X31385Y43855D01*
X31382Y43979D01*
Y43982D01*
Y43988D01*
Y43996D01*
Y44010D01*
Y44026D01*
X31385Y44046D01*
Y44068D01*
Y44093D01*
X31391Y44151D01*
X31396Y44218D01*
X31404Y44292D01*
X31416Y44370D01*
X31429Y44453D01*
X31446Y44536D01*
X31465Y44622D01*
X31490Y44705D01*
X31521Y44785D01*
X31554Y44860D01*
X31596Y44929D01*
X31640Y44993D01*
X31643Y44996D01*
X31651Y45007D01*
X31668Y45021D01*
X31687Y45043D01*
X31712Y45065D01*
X31745Y45093D01*
X31781Y45120D01*
X31823Y45151D01*
X31867Y45179D01*
X31920Y45206D01*
X31975Y45234D01*
X32036Y45256D01*
X32100Y45278D01*
X32166Y45292D01*
X32241Y45303D01*
X32316Y45306D01*
X32344D01*
X32366Y45303D01*
D02*
G37*
G36*
X30097Y45295D02*
X30136D01*
X30180Y45292D01*
X30224Y45289D01*
X30324Y45281D01*
X30421Y45267D01*
X30468Y45262D01*
X30515Y45251D01*
X30557Y45240D01*
X30593Y45228D01*
X30596D01*
X30601Y45226D01*
X30609Y45220D01*
X30623Y45215D01*
X30640Y45206D01*
X30656Y45198D01*
X30701Y45173D01*
X30748Y45137D01*
X30795Y45096D01*
X30845Y45043D01*
X30889Y44982D01*
Y44979D01*
X30895Y44974D01*
X30900Y44965D01*
X30906Y44952D01*
X30917Y44935D01*
X30925Y44916D01*
X30936Y44891D01*
X30947Y44866D01*
X30967Y44807D01*
X30986Y44738D01*
X30997Y44663D01*
X31003Y44580D01*
Y44578D01*
Y44567D01*
Y44553D01*
X31000Y44533D01*
X30997Y44508D01*
X30994Y44481D01*
X30989Y44447D01*
X30981Y44414D01*
X30961Y44337D01*
X30947Y44298D01*
X30931Y44259D01*
X30911Y44218D01*
X30889Y44179D01*
X30864Y44140D01*
X30834Y44104D01*
X30831Y44101D01*
X30825Y44096D01*
X30817Y44087D01*
X30803Y44073D01*
X30784Y44060D01*
X30762Y44043D01*
X30737Y44024D01*
X30706Y44004D01*
X30673Y43982D01*
X30637Y43963D01*
X30596Y43943D01*
X30549Y43924D01*
X30499Y43907D01*
X30446Y43891D01*
X30388Y43877D01*
X30327Y43866D01*
X30330D01*
X30335Y43860D01*
X30343Y43857D01*
X30355Y43849D01*
X30385Y43830D01*
X30424Y43802D01*
X30468Y43771D01*
X30515Y43736D01*
X30562Y43694D01*
X30604Y43652D01*
X30609Y43647D01*
X30615Y43639D01*
X30623Y43630D01*
X30634Y43616D01*
X30648Y43600D01*
X30665Y43580D01*
X30681Y43558D01*
X30701Y43530D01*
X30723Y43500D01*
X30748Y43467D01*
X30773Y43428D01*
X30801Y43387D01*
X30831Y43339D01*
X30864Y43292D01*
X30898Y43237D01*
X31211Y42741D01*
X30593D01*
X30219Y43298D01*
X30216Y43301D01*
X30211Y43312D01*
X30200Y43325D01*
X30186Y43345D01*
X30172Y43370D01*
X30152Y43395D01*
X30111Y43456D01*
X30064Y43519D01*
X30019Y43580D01*
X29997Y43608D01*
X29978Y43633D01*
X29961Y43655D01*
X29945Y43672D01*
X29942Y43674D01*
X29934Y43686D01*
X29917Y43697D01*
X29897Y43713D01*
X29875Y43733D01*
X29848Y43749D01*
X29820Y43766D01*
X29790Y43777D01*
X29787Y43780D01*
X29773Y43783D01*
X29754Y43788D01*
X29726Y43794D01*
X29690Y43799D01*
X29645Y43802D01*
X29593Y43808D01*
X29427D01*
Y42741D01*
X28911D01*
Y45298D01*
X30064D01*
X30097Y45295D01*
D02*
G37*
G36*
X33978Y7305D02*
X33050D01*
X32972Y6870D01*
X32975D01*
X32980Y6873D01*
X32989Y6878D01*
X33000Y6884D01*
X33017Y6889D01*
X33033Y6898D01*
X33075Y6911D01*
X33127Y6928D01*
X33183Y6939D01*
X33244Y6950D01*
X33307Y6953D01*
X33321D01*
X33338Y6950D01*
X33363D01*
X33391Y6945D01*
X33424Y6939D01*
X33460Y6933D01*
X33498Y6922D01*
X33543Y6911D01*
X33587Y6895D01*
X33632Y6875D01*
X33679Y6853D01*
X33726Y6825D01*
X33773Y6792D01*
X33817Y6756D01*
X33861Y6715D01*
X33864Y6712D01*
X33873Y6704D01*
X33884Y6690D01*
X33897Y6670D01*
X33914Y6648D01*
X33933Y6621D01*
X33956Y6587D01*
X33978Y6549D01*
X33997Y6507D01*
X34019Y6460D01*
X34039Y6407D01*
X34055Y6355D01*
X34069Y6294D01*
X34080Y6233D01*
X34089Y6166D01*
X34091Y6097D01*
Y6094D01*
Y6083D01*
Y6067D01*
X34089Y6044D01*
X34086Y6017D01*
X34080Y5983D01*
X34075Y5947D01*
X34069Y5909D01*
X34058Y5864D01*
X34047Y5820D01*
X34030Y5773D01*
X34014Y5726D01*
X33992Y5676D01*
X33967Y5629D01*
X33939Y5579D01*
X33906Y5532D01*
X33903Y5529D01*
X33895Y5518D01*
X33881Y5501D01*
X33859Y5479D01*
X33834Y5454D01*
X33803Y5424D01*
X33767Y5393D01*
X33726Y5363D01*
X33679Y5333D01*
X33626Y5302D01*
X33571Y5271D01*
X33510Y5247D01*
X33443Y5224D01*
X33371Y5208D01*
X33294Y5197D01*
X33213Y5194D01*
X33180D01*
X33155Y5197D01*
X33125Y5200D01*
X33089Y5205D01*
X33050Y5211D01*
X33008Y5219D01*
X32917Y5241D01*
X32867Y5255D01*
X32820Y5274D01*
X32770Y5296D01*
X32723Y5321D01*
X32679Y5349D01*
X32634Y5382D01*
X32631Y5385D01*
X32626Y5391D01*
X32615Y5402D01*
X32598Y5418D01*
X32582Y5438D01*
X32562Y5460D01*
X32540Y5488D01*
X32518Y5518D01*
X32496Y5554D01*
X32474Y5593D01*
X32452Y5634D01*
X32429Y5679D01*
X32410Y5729D01*
X32393Y5781D01*
X32382Y5837D01*
X32371Y5895D01*
X32859Y5947D01*
Y5945D01*
Y5939D01*
X32861Y5931D01*
X32864Y5920D01*
X32870Y5889D01*
X32881Y5853D01*
X32897Y5809D01*
X32920Y5767D01*
X32947Y5723D01*
X32980Y5684D01*
X32986Y5681D01*
X33000Y5670D01*
X33019Y5654D01*
X33050Y5637D01*
X33083Y5618D01*
X33125Y5604D01*
X33169Y5593D01*
X33219Y5587D01*
X33233D01*
X33244Y5590D01*
X33274Y5593D01*
X33310Y5604D01*
X33352Y5618D01*
X33393Y5640D01*
X33438Y5670D01*
X33460Y5690D01*
X33479Y5712D01*
Y5715D01*
X33485Y5717D01*
X33490Y5726D01*
X33496Y5734D01*
X33504Y5748D01*
X33512Y5765D01*
X33523Y5784D01*
X33535Y5806D01*
X33543Y5831D01*
X33554Y5859D01*
X33562Y5889D01*
X33571Y5923D01*
X33576Y5961D01*
X33582Y6000D01*
X33587Y6044D01*
Y6089D01*
Y6091D01*
Y6100D01*
Y6111D01*
X33584Y6127D01*
Y6147D01*
X33582Y6169D01*
X33573Y6222D01*
X33562Y6280D01*
X33543Y6338D01*
X33515Y6393D01*
X33479Y6443D01*
Y6446D01*
X33474Y6449D01*
X33460Y6463D01*
X33438Y6482D01*
X33404Y6504D01*
X33366Y6524D01*
X33318Y6543D01*
X33266Y6557D01*
X33235Y6562D01*
X33185D01*
X33169Y6560D01*
X33149Y6557D01*
X33130Y6551D01*
X33077Y6540D01*
X33019Y6518D01*
X32986Y6501D01*
X32956Y6485D01*
X32922Y6463D01*
X32889Y6438D01*
X32856Y6410D01*
X32825Y6377D01*
X32429Y6432D01*
X32681Y7764D01*
X33978D01*
Y7305D01*
D02*
G37*
G36*
X31632Y5241D02*
X31141D01*
Y7083D01*
X31139Y7080D01*
X31130Y7072D01*
X31114Y7058D01*
X31094Y7041D01*
X31069Y7022D01*
X31036Y6997D01*
X31003Y6970D01*
X30961Y6942D01*
X30917Y6911D01*
X30870Y6881D01*
X30817Y6850D01*
X30762Y6820D01*
X30704Y6790D01*
X30640Y6762D01*
X30576Y6737D01*
X30510Y6712D01*
Y7158D01*
X30512D01*
X30518Y7161D01*
X30529Y7163D01*
X30543Y7169D01*
X30562Y7177D01*
X30582Y7186D01*
X30607Y7197D01*
X30634Y7210D01*
X30695Y7241D01*
X30765Y7282D01*
X30842Y7332D01*
X30925Y7393D01*
X30928Y7396D01*
X30936Y7402D01*
X30947Y7410D01*
X30961Y7424D01*
X30981Y7440D01*
X31000Y7463D01*
X31022Y7485D01*
X31047Y7512D01*
X31100Y7573D01*
X31150Y7643D01*
X31197Y7720D01*
X31216Y7762D01*
X31233Y7806D01*
X31632D01*
Y5241D01*
D02*
G37*
G36*
X29094Y7795D02*
X29133D01*
X29177Y7792D01*
X29222Y7789D01*
X29321Y7781D01*
X29418Y7767D01*
X29465Y7762D01*
X29513Y7751D01*
X29554Y7740D01*
X29590Y7728D01*
X29593D01*
X29598Y7726D01*
X29607Y7720D01*
X29621Y7715D01*
X29637Y7706D01*
X29654Y7698D01*
X29698Y7673D01*
X29745Y7637D01*
X29792Y7596D01*
X29842Y7543D01*
X29886Y7482D01*
Y7479D01*
X29892Y7474D01*
X29897Y7465D01*
X29903Y7451D01*
X29914Y7435D01*
X29923Y7416D01*
X29934Y7391D01*
X29945Y7366D01*
X29964Y7307D01*
X29983Y7238D01*
X29994Y7163D01*
X30000Y7080D01*
Y7078D01*
Y7067D01*
Y7053D01*
X29997Y7033D01*
X29994Y7008D01*
X29992Y6981D01*
X29986Y6947D01*
X29978Y6914D01*
X29959Y6837D01*
X29945Y6798D01*
X29928Y6759D01*
X29909Y6717D01*
X29886Y6679D01*
X29862Y6640D01*
X29831Y6604D01*
X29828Y6601D01*
X29823Y6596D01*
X29814Y6587D01*
X29801Y6573D01*
X29781Y6560D01*
X29759Y6543D01*
X29734Y6524D01*
X29704Y6504D01*
X29670Y6482D01*
X29634Y6463D01*
X29593Y6443D01*
X29546Y6424D01*
X29496Y6407D01*
X29443Y6391D01*
X29385Y6377D01*
X29324Y6366D01*
X29327D01*
X29333Y6360D01*
X29341Y6357D01*
X29352Y6349D01*
X29382Y6330D01*
X29421Y6302D01*
X29465Y6272D01*
X29513Y6236D01*
X29560Y6194D01*
X29601Y6152D01*
X29607Y6147D01*
X29612Y6138D01*
X29621Y6130D01*
X29632Y6116D01*
X29645Y6100D01*
X29662Y6080D01*
X29679Y6058D01*
X29698Y6030D01*
X29720Y6000D01*
X29745Y5967D01*
X29770Y5928D01*
X29798Y5886D01*
X29828Y5839D01*
X29862Y5792D01*
X29895Y5737D01*
X30208Y5241D01*
X29590D01*
X29216Y5798D01*
X29213Y5801D01*
X29208Y5812D01*
X29197Y5825D01*
X29183Y5845D01*
X29169Y5870D01*
X29150Y5895D01*
X29108Y5956D01*
X29061Y6019D01*
X29017Y6080D01*
X28995Y6108D01*
X28975Y6133D01*
X28958Y6155D01*
X28942Y6172D01*
X28939Y6174D01*
X28931Y6186D01*
X28914Y6197D01*
X28895Y6213D01*
X28873Y6233D01*
X28845Y6249D01*
X28817Y6266D01*
X28787Y6277D01*
X28784Y6280D01*
X28770Y6283D01*
X28751Y6288D01*
X28723Y6294D01*
X28687Y6299D01*
X28643Y6302D01*
X28590Y6307D01*
X28424D01*
Y5241D01*
X27909D01*
Y7798D01*
X29061D01*
X29094Y7795D01*
D02*
G37*
G36*
X18978Y8055D02*
X19003D01*
X19033Y8050D01*
X19069Y8047D01*
X19108Y8039D01*
X19150Y8030D01*
X19197Y8016D01*
X19244Y8003D01*
X19291Y7983D01*
X19338Y7961D01*
X19388Y7933D01*
X19435Y7903D01*
X19479Y7867D01*
X19521Y7825D01*
X19524Y7823D01*
X19529Y7817D01*
X19537Y7806D01*
X19548Y7792D01*
X19562Y7775D01*
X19579Y7753D01*
X19596Y7728D01*
X19612Y7701D01*
X19645Y7640D01*
X19676Y7568D01*
X19687Y7529D01*
X19695Y7487D01*
X19701Y7446D01*
X19704Y7401D01*
Y7399D01*
Y7388D01*
X19701Y7368D01*
X19698Y7346D01*
X19692Y7318D01*
X19684Y7285D01*
X19673Y7246D01*
X19657Y7208D01*
X19637Y7166D01*
X19615Y7122D01*
X19584Y7078D01*
X19548Y7033D01*
X19507Y6989D01*
X19457Y6944D01*
X19399Y6903D01*
X19335Y6864D01*
X19338D01*
X19346Y6861D01*
X19357Y6859D01*
X19371Y6853D01*
X19391Y6848D01*
X19413Y6839D01*
X19460Y6820D01*
X19518Y6792D01*
X19576Y6753D01*
X19632Y6709D01*
X19659Y6681D01*
X19684Y6651D01*
X19687Y6648D01*
X19690Y6643D01*
X19695Y6634D01*
X19706Y6623D01*
X19715Y6607D01*
X19726Y6587D01*
X19740Y6565D01*
X19751Y6540D01*
X19776Y6482D01*
X19798Y6415D01*
X19812Y6338D01*
X19814Y6296D01*
X19817Y6255D01*
Y6252D01*
Y6241D01*
X19814Y6222D01*
Y6199D01*
X19809Y6169D01*
X19803Y6136D01*
X19798Y6100D01*
X19787Y6058D01*
X19773Y6014D01*
X19756Y5967D01*
X19737Y5920D01*
X19712Y5872D01*
X19684Y5823D01*
X19651Y5776D01*
X19615Y5728D01*
X19571Y5681D01*
X19568Y5679D01*
X19560Y5670D01*
X19546Y5659D01*
X19526Y5645D01*
X19501Y5626D01*
X19474Y5607D01*
X19441Y5584D01*
X19402Y5565D01*
X19360Y5543D01*
X19313Y5521D01*
X19260Y5501D01*
X19208Y5482D01*
X19150Y5468D01*
X19089Y5457D01*
X19022Y5449D01*
X18956Y5446D01*
X18939D01*
X18923Y5449D01*
X18898D01*
X18870Y5452D01*
X18834Y5457D01*
X18795Y5463D01*
X18754Y5471D01*
X18709Y5482D01*
X18662Y5496D01*
X18615Y5510D01*
X18568Y5529D01*
X18518Y5554D01*
X18471Y5579D01*
X18424Y5609D01*
X18380Y5645D01*
X18377Y5648D01*
X18369Y5654D01*
X18357Y5665D01*
X18343Y5681D01*
X18327Y5701D01*
X18305Y5726D01*
X18285Y5753D01*
X18260Y5787D01*
X18238Y5823D01*
X18216Y5861D01*
X18194Y5903D01*
X18172Y5950D01*
X18155Y6000D01*
X18139Y6053D01*
X18125Y6111D01*
X18116Y6169D01*
X18590Y6227D01*
Y6224D01*
Y6219D01*
X18593Y6210D01*
X18596Y6197D01*
X18601Y6163D01*
X18615Y6125D01*
X18629Y6078D01*
X18651Y6033D01*
X18679Y5986D01*
X18712Y5947D01*
X18718Y5945D01*
X18729Y5933D01*
X18751Y5917D01*
X18778Y5900D01*
X18814Y5884D01*
X18856Y5867D01*
X18903Y5856D01*
X18953Y5853D01*
X18967D01*
X18978Y5856D01*
X19006Y5859D01*
X19042Y5867D01*
X19083Y5881D01*
X19125Y5900D01*
X19169Y5928D01*
X19211Y5967D01*
X19216Y5972D01*
X19227Y5989D01*
X19244Y6014D01*
X19263Y6050D01*
X19283Y6094D01*
X19299Y6147D01*
X19310Y6208D01*
X19316Y6277D01*
Y6280D01*
Y6285D01*
Y6294D01*
X19313Y6307D01*
Y6324D01*
X19310Y6341D01*
X19305Y6382D01*
X19291Y6429D01*
X19274Y6479D01*
X19249Y6526D01*
X19216Y6571D01*
X19211Y6576D01*
X19199Y6587D01*
X19177Y6607D01*
X19150Y6626D01*
X19114Y6645D01*
X19072Y6665D01*
X19025Y6676D01*
X18972Y6681D01*
X18956D01*
X18936Y6679D01*
X18909Y6676D01*
X18875Y6673D01*
X18839Y6665D01*
X18795Y6656D01*
X18748Y6643D01*
X18801Y7041D01*
X18834D01*
X18850Y7044D01*
X18870D01*
X18914Y7050D01*
X18964Y7058D01*
X19014Y7075D01*
X19061Y7097D01*
X19105Y7124D01*
X19111Y7130D01*
X19122Y7141D01*
X19139Y7161D01*
X19161Y7188D01*
X19180Y7224D01*
X19197Y7266D01*
X19208Y7313D01*
X19213Y7368D01*
Y7371D01*
Y7374D01*
Y7390D01*
X19211Y7413D01*
X19205Y7443D01*
X19194Y7474D01*
X19180Y7510D01*
X19161Y7543D01*
X19136Y7573D01*
X19133Y7576D01*
X19122Y7584D01*
X19105Y7598D01*
X19080Y7612D01*
X19050Y7626D01*
X19017Y7640D01*
X18975Y7648D01*
X18928Y7651D01*
X18906D01*
X18884Y7645D01*
X18853Y7640D01*
X18820Y7629D01*
X18784Y7615D01*
X18748Y7593D01*
X18712Y7562D01*
X18709Y7559D01*
X18698Y7546D01*
X18684Y7526D01*
X18665Y7498D01*
X18645Y7463D01*
X18629Y7421D01*
X18615Y7368D01*
X18604Y7310D01*
X18152Y7385D01*
Y7388D01*
X18155Y7396D01*
X18158Y7407D01*
X18161Y7424D01*
X18166Y7443D01*
X18172Y7465D01*
X18188Y7518D01*
X18208Y7579D01*
X18233Y7640D01*
X18260Y7701D01*
X18294Y7756D01*
Y7759D01*
X18299Y7762D01*
X18310Y7778D01*
X18332Y7806D01*
X18363Y7836D01*
X18399Y7872D01*
X18443Y7908D01*
X18496Y7944D01*
X18557Y7978D01*
X18560D01*
X18565Y7981D01*
X18574Y7986D01*
X18587Y7992D01*
X18604Y7997D01*
X18623Y8003D01*
X18645Y8011D01*
X18670Y8019D01*
X18726Y8033D01*
X18792Y8047D01*
X18864Y8055D01*
X18942Y8058D01*
X18959D01*
X18978Y8055D01*
D02*
G37*
G36*
X17402Y5493D02*
X16912D01*
Y7335D01*
X16909Y7332D01*
X16900Y7324D01*
X16884Y7310D01*
X16864Y7294D01*
X16839Y7274D01*
X16806Y7249D01*
X16773Y7221D01*
X16731Y7194D01*
X16687Y7163D01*
X16640Y7133D01*
X16587Y7102D01*
X16532Y7072D01*
X16474Y7041D01*
X16410Y7014D01*
X16346Y6989D01*
X16280Y6964D01*
Y7410D01*
X16283D01*
X16288Y7413D01*
X16299Y7415D01*
X16313Y7421D01*
X16332Y7429D01*
X16352Y7438D01*
X16377Y7449D01*
X16405Y7463D01*
X16465Y7493D01*
X16535Y7535D01*
X16612Y7584D01*
X16695Y7645D01*
X16698Y7648D01*
X16706Y7654D01*
X16718Y7662D01*
X16731Y7676D01*
X16751Y7692D01*
X16770Y7715D01*
X16792Y7737D01*
X16817Y7764D01*
X16870Y7825D01*
X16920Y7895D01*
X16967Y7972D01*
X16986Y8014D01*
X17003Y8058D01*
X17402D01*
Y5493D01*
D02*
G37*
G36*
X14864Y8047D02*
X14903D01*
X14947Y8044D01*
X14992Y8041D01*
X15092Y8033D01*
X15189Y8019D01*
X15236Y8014D01*
X15283Y8003D01*
X15324Y7992D01*
X15360Y7981D01*
X15363D01*
X15369Y7978D01*
X15377Y7972D01*
X15391Y7967D01*
X15407Y7958D01*
X15424Y7950D01*
X15468Y7925D01*
X15515Y7889D01*
X15563Y7847D01*
X15612Y7795D01*
X15657Y7734D01*
Y7731D01*
X15662Y7726D01*
X15668Y7717D01*
X15673Y7704D01*
X15684Y7687D01*
X15693Y7667D01*
X15704Y7643D01*
X15715Y7618D01*
X15734Y7559D01*
X15754Y7490D01*
X15765Y7415D01*
X15770Y7332D01*
Y7329D01*
Y7318D01*
Y7305D01*
X15767Y7285D01*
X15765Y7260D01*
X15762Y7233D01*
X15756Y7199D01*
X15748Y7166D01*
X15729Y7089D01*
X15715Y7050D01*
X15698Y7011D01*
X15679Y6969D01*
X15657Y6931D01*
X15632Y6892D01*
X15601Y6856D01*
X15598Y6853D01*
X15593Y6848D01*
X15585Y6839D01*
X15571Y6825D01*
X15551Y6812D01*
X15529Y6795D01*
X15504Y6775D01*
X15474Y6756D01*
X15441Y6734D01*
X15405Y6715D01*
X15363Y6695D01*
X15316Y6676D01*
X15266Y6659D01*
X15213Y6643D01*
X15155Y6629D01*
X15094Y6618D01*
X15097D01*
X15103Y6612D01*
X15111Y6609D01*
X15122Y6601D01*
X15153Y6582D01*
X15191Y6554D01*
X15236Y6523D01*
X15283Y6487D01*
X15330Y6446D01*
X15371Y6404D01*
X15377Y6399D01*
X15382Y6391D01*
X15391Y6382D01*
X15402Y6368D01*
X15416Y6352D01*
X15432Y6332D01*
X15449Y6310D01*
X15468Y6283D01*
X15491Y6252D01*
X15515Y6219D01*
X15540Y6180D01*
X15568Y6138D01*
X15598Y6091D01*
X15632Y6044D01*
X15665Y5989D01*
X15978Y5493D01*
X15360D01*
X14986Y6050D01*
X14984Y6053D01*
X14978Y6064D01*
X14967Y6078D01*
X14953Y6097D01*
X14939Y6122D01*
X14920Y6147D01*
X14878Y6208D01*
X14831Y6271D01*
X14787Y6332D01*
X14765Y6360D01*
X14745Y6385D01*
X14729Y6407D01*
X14712Y6424D01*
X14709Y6426D01*
X14701Y6438D01*
X14684Y6449D01*
X14665Y6465D01*
X14643Y6485D01*
X14615Y6501D01*
X14587Y6518D01*
X14557Y6529D01*
X14554Y6532D01*
X14540Y6534D01*
X14521Y6540D01*
X14493Y6546D01*
X14457Y6551D01*
X14413Y6554D01*
X14360Y6560D01*
X14194D01*
Y5493D01*
X13679D01*
Y8050D01*
X14831D01*
X14864Y8047D01*
D02*
G37*
G36*
X18285Y11162D02*
X18604D01*
Y10733D01*
X18285D01*
Y10217D01*
X17812D01*
Y10733D01*
X16767D01*
Y11159D01*
X17873Y12783D01*
X18285D01*
Y11162D01*
D02*
G37*
G36*
X16119Y10217D02*
X15629D01*
Y12060D01*
X15626Y12057D01*
X15618Y12049D01*
X15601Y12035D01*
X15582Y12018D01*
X15557Y11999D01*
X15524Y11974D01*
X15490Y11946D01*
X15449Y11918D01*
X15404Y11888D01*
X15357Y11857D01*
X15305Y11827D01*
X15249Y11796D01*
X15191Y11766D01*
X15127Y11738D01*
X15064Y11713D01*
X14997Y11688D01*
Y12134D01*
X15000D01*
X15006Y12137D01*
X15017Y12140D01*
X15031Y12145D01*
X15050Y12154D01*
X15069Y12162D01*
X15094Y12173D01*
X15122Y12187D01*
X15183Y12217D01*
X15252Y12259D01*
X15330Y12309D01*
X15413Y12370D01*
X15416Y12372D01*
X15424Y12378D01*
X15435Y12386D01*
X15449Y12400D01*
X15468Y12417D01*
X15487Y12439D01*
X15510Y12461D01*
X15535Y12489D01*
X15587Y12550D01*
X15637Y12619D01*
X15684Y12697D01*
X15704Y12738D01*
X15720Y12783D01*
X16119D01*
Y10217D01*
D02*
G37*
G36*
X13582Y12771D02*
X13621D01*
X13665Y12769D01*
X13709Y12766D01*
X13809Y12758D01*
X13906Y12744D01*
X13953Y12738D01*
X14000Y12727D01*
X14042Y12716D01*
X14078Y12705D01*
X14080D01*
X14086Y12702D01*
X14094Y12697D01*
X14108Y12691D01*
X14125Y12683D01*
X14141Y12675D01*
X14186Y12650D01*
X14233Y12614D01*
X14280Y12572D01*
X14330Y12519D01*
X14374Y12458D01*
Y12456D01*
X14379Y12450D01*
X14385Y12442D01*
X14391Y12428D01*
X14402Y12411D01*
X14410Y12392D01*
X14421Y12367D01*
X14432Y12342D01*
X14452Y12284D01*
X14471Y12215D01*
X14482Y12140D01*
X14488Y12057D01*
Y12054D01*
Y12043D01*
Y12029D01*
X14485Y12010D01*
X14482Y11985D01*
X14479Y11957D01*
X14474Y11924D01*
X14465Y11891D01*
X14446Y11813D01*
X14432Y11774D01*
X14415Y11735D01*
X14396Y11694D01*
X14374Y11655D01*
X14349Y11616D01*
X14319Y11580D01*
X14316Y11578D01*
X14310Y11572D01*
X14302Y11564D01*
X14288Y11550D01*
X14269Y11536D01*
X14247Y11519D01*
X14222Y11500D01*
X14191Y11481D01*
X14158Y11458D01*
X14122Y11439D01*
X14080Y11420D01*
X14033Y11400D01*
X13983Y11384D01*
X13931Y11367D01*
X13873Y11353D01*
X13812Y11342D01*
X13814D01*
X13820Y11337D01*
X13828Y11334D01*
X13839Y11326D01*
X13870Y11306D01*
X13909Y11278D01*
X13953Y11248D01*
X14000Y11212D01*
X14047Y11170D01*
X14089Y11129D01*
X14094Y11123D01*
X14100Y11115D01*
X14108Y11107D01*
X14119Y11093D01*
X14133Y11076D01*
X14150Y11057D01*
X14166Y11035D01*
X14186Y11007D01*
X14208Y10977D01*
X14233Y10943D01*
X14258Y10904D01*
X14285Y10863D01*
X14316Y10816D01*
X14349Y10769D01*
X14382Y10713D01*
X14695Y10217D01*
X14078D01*
X13704Y10774D01*
X13701Y10777D01*
X13695Y10788D01*
X13684Y10802D01*
X13670Y10821D01*
X13657Y10846D01*
X13637Y10871D01*
X13596Y10932D01*
X13548Y10996D01*
X13504Y11057D01*
X13482Y11084D01*
X13463Y11109D01*
X13446Y11132D01*
X13429Y11148D01*
X13427Y11151D01*
X13418Y11162D01*
X13402Y11173D01*
X13382Y11190D01*
X13360Y11209D01*
X13332Y11226D01*
X13305Y11242D01*
X13274Y11253D01*
X13272Y11256D01*
X13258Y11259D01*
X13238Y11265D01*
X13211Y11270D01*
X13175Y11276D01*
X13130Y11278D01*
X13078Y11284D01*
X12911D01*
Y10217D01*
X12396D01*
Y12774D01*
X13548D01*
X13582Y12771D01*
D02*
G37*
G36*
X64771Y22754D02*
X64793D01*
X64820D01*
X64879Y22748D01*
X64948Y22743D01*
X65023Y22735D01*
X65103Y22726D01*
X65189Y22712D01*
X65275Y22696D01*
X65363Y22674D01*
X65449Y22651D01*
X65530Y22621D01*
X65610Y22588D01*
X65682Y22549D01*
X65746Y22505D01*
X65748Y22502D01*
X65757Y22496D01*
X65771Y22482D01*
X65787Y22466D01*
X65807Y22446D01*
X65829Y22419D01*
X65851Y22388D01*
X65876Y22355D01*
X65901Y22316D01*
X65923Y22272D01*
X65945Y22225D01*
X65965Y22172D01*
X65981Y22117D01*
X65995Y22056D01*
X66003Y21992D01*
X66006Y21926D01*
Y21909D01*
X66003Y21890D01*
X66000Y21865D01*
X65998Y21832D01*
X65992Y21795D01*
X65981Y21754D01*
X65970Y21710D01*
X65956Y21663D01*
X65937Y21615D01*
X65912Y21566D01*
X65887Y21516D01*
X65854Y21466D01*
X65815Y21416D01*
X65771Y21369D01*
X65721Y21325D01*
X65718Y21322D01*
X65707Y21316D01*
X65690Y21302D01*
X65665Y21289D01*
X65632Y21272D01*
X65591Y21253D01*
X65541Y21233D01*
X65485Y21211D01*
X65419Y21189D01*
X65344Y21170D01*
X65261Y21150D01*
X65167Y21134D01*
X65064Y21120D01*
X64951Y21109D01*
X64829Y21100D01*
X64696Y21098D01*
X64693D01*
X64688D01*
X64676D01*
X64665D01*
X64646D01*
X64627Y21100D01*
X64604D01*
X64579D01*
X64519Y21106D01*
X64452Y21111D01*
X64377Y21120D01*
X64297Y21128D01*
X64211Y21142D01*
X64125Y21158D01*
X64039Y21178D01*
X63954Y21203D01*
X63870Y21230D01*
X63793Y21264D01*
X63721Y21302D01*
X63657Y21347D01*
X63654Y21350D01*
X63646Y21358D01*
X63632Y21369D01*
X63616Y21386D01*
X63596Y21408D01*
X63574Y21433D01*
X63549Y21463D01*
X63524Y21496D01*
X63502Y21535D01*
X63477Y21579D01*
X63455Y21626D01*
X63436Y21679D01*
X63419Y21735D01*
X63405Y21795D01*
X63397Y21859D01*
X63394Y21926D01*
Y21942D01*
X63397Y21962D01*
Y21987D01*
X63402Y22017D01*
X63408Y22053D01*
X63416Y22095D01*
X63427Y22139D01*
X63441Y22183D01*
X63458Y22230D01*
X63480Y22280D01*
X63505Y22327D01*
X63535Y22374D01*
X63571Y22422D01*
X63613Y22466D01*
X63660Y22507D01*
X63663Y22510D01*
X63674Y22519D01*
X63693Y22530D01*
X63721Y22546D01*
X63754Y22566D01*
X63798Y22588D01*
X63848Y22610D01*
X63909Y22632D01*
X63976Y22654D01*
X64053Y22679D01*
X64139Y22698D01*
X64233Y22718D01*
X64336Y22735D01*
X64449Y22746D01*
X64571Y22754D01*
X64701Y22757D01*
X64704D01*
X64710D01*
X64721D01*
X64732D01*
X64751D01*
X64771Y22754D01*
D02*
G37*
G36*
X65959Y19876D02*
X64117D01*
X64120Y19873D01*
X64128Y19865D01*
X64142Y19848D01*
X64158Y19829D01*
X64178Y19804D01*
X64203Y19771D01*
X64231Y19737D01*
X64258Y19696D01*
X64289Y19651D01*
X64319Y19604D01*
X64350Y19552D01*
X64380Y19496D01*
X64411Y19438D01*
X64438Y19375D01*
X64463Y19311D01*
X64488Y19244D01*
X64042D01*
Y19247D01*
X64039Y19253D01*
X64037Y19264D01*
X64031Y19278D01*
X64023Y19297D01*
X64014Y19316D01*
X64003Y19341D01*
X63990Y19369D01*
X63959Y19430D01*
X63917Y19499D01*
X63868Y19577D01*
X63807Y19660D01*
X63804Y19663D01*
X63798Y19671D01*
X63790Y19682D01*
X63776Y19696D01*
X63760Y19715D01*
X63737Y19735D01*
X63715Y19757D01*
X63688Y19782D01*
X63627Y19834D01*
X63557Y19884D01*
X63480Y19931D01*
X63438Y19951D01*
X63394Y19967D01*
Y20366D01*
X65959D01*
Y19876D01*
D02*
G37*
G36*
Y18325D02*
X65402Y17951D01*
X65399Y17948D01*
X65388Y17942D01*
X65374Y17931D01*
X65355Y17918D01*
X65330Y17904D01*
X65305Y17884D01*
X65244Y17843D01*
X65181Y17796D01*
X65120Y17751D01*
X65092Y17729D01*
X65067Y17710D01*
X65045Y17693D01*
X65028Y17676D01*
X65026Y17674D01*
X65014Y17665D01*
X65003Y17649D01*
X64987Y17629D01*
X64967Y17607D01*
X64951Y17580D01*
X64934Y17552D01*
X64923Y17521D01*
X64920Y17519D01*
X64917Y17505D01*
X64912Y17485D01*
X64906Y17458D01*
X64901Y17422D01*
X64898Y17377D01*
X64893Y17325D01*
Y17158D01*
X65959D01*
Y16643D01*
X63402D01*
Y17796D01*
X63405Y17829D01*
Y17868D01*
X63408Y17912D01*
X63411Y17956D01*
X63419Y18056D01*
X63433Y18153D01*
X63438Y18200D01*
X63449Y18247D01*
X63460Y18289D01*
X63472Y18325D01*
Y18327D01*
X63474Y18333D01*
X63480Y18341D01*
X63485Y18355D01*
X63494Y18372D01*
X63502Y18388D01*
X63527Y18433D01*
X63563Y18480D01*
X63604Y18527D01*
X63657Y18577D01*
X63718Y18621D01*
X63721D01*
X63726Y18627D01*
X63735Y18632D01*
X63749Y18638D01*
X63765Y18649D01*
X63784Y18657D01*
X63809Y18668D01*
X63834Y18679D01*
X63893Y18699D01*
X63962Y18718D01*
X64037Y18729D01*
X64120Y18735D01*
X64122D01*
X64134D01*
X64147D01*
X64167Y18732D01*
X64192Y18729D01*
X64219Y18726D01*
X64253Y18721D01*
X64286Y18712D01*
X64363Y18693D01*
X64402Y18679D01*
X64441Y18663D01*
X64483Y18643D01*
X64521Y18621D01*
X64560Y18596D01*
X64596Y18566D01*
X64599Y18563D01*
X64604Y18557D01*
X64613Y18549D01*
X64627Y18535D01*
X64640Y18516D01*
X64657Y18494D01*
X64676Y18469D01*
X64696Y18438D01*
X64718Y18405D01*
X64737Y18369D01*
X64757Y18327D01*
X64776Y18280D01*
X64793Y18230D01*
X64809Y18178D01*
X64823Y18120D01*
X64834Y18059D01*
Y18061D01*
X64840Y18067D01*
X64843Y18075D01*
X64851Y18087D01*
X64870Y18117D01*
X64898Y18156D01*
X64929Y18200D01*
X64964Y18247D01*
X65006Y18294D01*
X65048Y18336D01*
X65053Y18341D01*
X65061Y18347D01*
X65070Y18355D01*
X65084Y18366D01*
X65100Y18380D01*
X65120Y18397D01*
X65142Y18413D01*
X65170Y18433D01*
X65200Y18455D01*
X65233Y18480D01*
X65272Y18505D01*
X65314Y18532D01*
X65361Y18563D01*
X65408Y18596D01*
X65463Y18629D01*
X65959Y18942D01*
Y18325D01*
D02*
G37*
G36*
X16985Y39609D02*
X16057D01*
X15979Y39174D01*
X15982D01*
X15988Y39177D01*
X15996Y39182D01*
X16007Y39188D01*
X16024Y39193D01*
X16040Y39202D01*
X16082Y39215D01*
X16134Y39232D01*
X16190Y39243D01*
X16251Y39254D01*
X16314Y39257D01*
X16328D01*
X16345Y39254D01*
X16370D01*
X16398Y39249D01*
X16431Y39243D01*
X16467Y39238D01*
X16506Y39227D01*
X16550Y39215D01*
X16594Y39199D01*
X16638Y39180D01*
X16686Y39157D01*
X16733Y39130D01*
X16780Y39096D01*
X16824Y39060D01*
X16868Y39019D01*
X16871Y39016D01*
X16879Y39008D01*
X16891Y38994D01*
X16904Y38974D01*
X16921Y38952D01*
X16940Y38925D01*
X16962Y38891D01*
X16985Y38853D01*
X17004Y38811D01*
X17026Y38764D01*
X17046Y38711D01*
X17062Y38659D01*
X17076Y38598D01*
X17087Y38537D01*
X17096Y38470D01*
X17098Y38401D01*
Y38398D01*
Y38387D01*
Y38371D01*
X17096Y38348D01*
X17093Y38321D01*
X17087Y38287D01*
X17082Y38252D01*
X17076Y38213D01*
X17065Y38168D01*
X17054Y38124D01*
X17037Y38077D01*
X17021Y38030D01*
X16999Y37980D01*
X16974Y37933D01*
X16946Y37883D01*
X16913Y37836D01*
X16910Y37833D01*
X16902Y37822D01*
X16888Y37806D01*
X16866Y37783D01*
X16841Y37758D01*
X16810Y37728D01*
X16774Y37697D01*
X16733Y37667D01*
X16686Y37637D01*
X16633Y37606D01*
X16578Y37576D01*
X16517Y37551D01*
X16450Y37529D01*
X16378Y37512D01*
X16300Y37501D01*
X16220Y37498D01*
X16187D01*
X16162Y37501D01*
X16131Y37504D01*
X16095Y37509D01*
X16057Y37515D01*
X16015Y37523D01*
X15924Y37545D01*
X15874Y37559D01*
X15827Y37578D01*
X15777Y37601D01*
X15730Y37626D01*
X15686Y37653D01*
X15641Y37686D01*
X15639Y37689D01*
X15633Y37695D01*
X15622Y37706D01*
X15605Y37723D01*
X15589Y37742D01*
X15569Y37764D01*
X15547Y37792D01*
X15525Y37822D01*
X15503Y37858D01*
X15481Y37897D01*
X15458Y37938D01*
X15436Y37983D01*
X15417Y38033D01*
X15400Y38085D01*
X15389Y38141D01*
X15378Y38199D01*
X15866Y38252D01*
Y38249D01*
Y38243D01*
X15868Y38235D01*
X15871Y38224D01*
X15877Y38193D01*
X15888Y38157D01*
X15904Y38113D01*
X15927Y38072D01*
X15954Y38027D01*
X15988Y37988D01*
X15993Y37986D01*
X16007Y37975D01*
X16026Y37958D01*
X16057Y37941D01*
X16090Y37922D01*
X16131Y37908D01*
X16176Y37897D01*
X16226Y37891D01*
X16240D01*
X16251Y37894D01*
X16281Y37897D01*
X16317Y37908D01*
X16359Y37922D01*
X16400Y37944D01*
X16445Y37975D01*
X16467Y37994D01*
X16486Y38016D01*
Y38019D01*
X16492Y38022D01*
X16497Y38030D01*
X16503Y38038D01*
X16511Y38052D01*
X16519Y38069D01*
X16530Y38088D01*
X16542Y38110D01*
X16550Y38135D01*
X16561Y38163D01*
X16569Y38193D01*
X16578Y38227D01*
X16583Y38265D01*
X16589Y38304D01*
X16594Y38348D01*
Y38393D01*
Y38396D01*
Y38404D01*
Y38415D01*
X16591Y38432D01*
Y38451D01*
X16589Y38473D01*
X16580Y38526D01*
X16569Y38584D01*
X16550Y38642D01*
X16522Y38697D01*
X16486Y38747D01*
Y38750D01*
X16481Y38753D01*
X16467Y38767D01*
X16445Y38786D01*
X16411Y38808D01*
X16373Y38828D01*
X16326Y38847D01*
X16273Y38861D01*
X16242Y38866D01*
X16193D01*
X16176Y38864D01*
X16157Y38861D01*
X16137Y38855D01*
X16084Y38844D01*
X16026Y38822D01*
X15993Y38805D01*
X15963Y38789D01*
X15929Y38767D01*
X15896Y38742D01*
X15863Y38714D01*
X15832Y38681D01*
X15436Y38736D01*
X15688Y40069D01*
X16985D01*
Y39609D01*
D02*
G37*
G36*
X14087Y40099D02*
X14126D01*
X14170Y40096D01*
X14215Y40094D01*
X14314Y40085D01*
X14411Y40071D01*
X14458Y40066D01*
X14506Y40055D01*
X14547Y40044D01*
X14583Y40033D01*
X14586D01*
X14591Y40030D01*
X14600Y40024D01*
X14614Y40019D01*
X14630Y40010D01*
X14647Y40002D01*
X14691Y39977D01*
X14738Y39941D01*
X14785Y39900D01*
X14835Y39847D01*
X14879Y39786D01*
Y39783D01*
X14885Y39778D01*
X14891Y39770D01*
X14896Y39756D01*
X14907Y39739D01*
X14916Y39720D01*
X14927Y39695D01*
X14938Y39670D01*
X14957Y39612D01*
X14976Y39542D01*
X14988Y39468D01*
X14993Y39384D01*
Y39382D01*
Y39371D01*
Y39357D01*
X14990Y39337D01*
X14988Y39312D01*
X14985Y39285D01*
X14979Y39252D01*
X14971Y39218D01*
X14952Y39141D01*
X14938Y39102D01*
X14921Y39063D01*
X14902Y39022D01*
X14879Y38983D01*
X14855Y38944D01*
X14824Y38908D01*
X14821Y38905D01*
X14816Y38900D01*
X14807Y38891D01*
X14794Y38878D01*
X14774Y38864D01*
X14752Y38847D01*
X14727Y38828D01*
X14697Y38808D01*
X14663Y38786D01*
X14627Y38767D01*
X14586Y38747D01*
X14539Y38728D01*
X14489Y38711D01*
X14436Y38695D01*
X14378Y38681D01*
X14317Y38670D01*
X14320D01*
X14325Y38664D01*
X14334Y38662D01*
X14345Y38653D01*
X14375Y38634D01*
X14414Y38606D01*
X14458Y38576D01*
X14506Y38540D01*
X14553Y38498D01*
X14594Y38456D01*
X14600Y38451D01*
X14605Y38443D01*
X14614Y38434D01*
X14625Y38421D01*
X14638Y38404D01*
X14655Y38385D01*
X14672Y38362D01*
X14691Y38335D01*
X14713Y38304D01*
X14738Y38271D01*
X14763Y38232D01*
X14791Y38191D01*
X14821Y38144D01*
X14855Y38096D01*
X14888Y38041D01*
X15201Y37545D01*
X14583D01*
X14209Y38102D01*
X14206Y38105D01*
X14201Y38116D01*
X14190Y38130D01*
X14176Y38149D01*
X14162Y38174D01*
X14143Y38199D01*
X14101Y38260D01*
X14054Y38324D01*
X14010Y38385D01*
X13988Y38412D01*
X13968Y38437D01*
X13952Y38459D01*
X13935Y38476D01*
X13932Y38479D01*
X13924Y38490D01*
X13907Y38501D01*
X13888Y38517D01*
X13866Y38537D01*
X13838Y38554D01*
X13810Y38570D01*
X13780Y38581D01*
X13777Y38584D01*
X13763Y38587D01*
X13744Y38592D01*
X13716Y38598D01*
X13680Y38603D01*
X13636Y38606D01*
X13583Y38612D01*
X13417D01*
Y37545D01*
X12902D01*
Y40102D01*
X14054D01*
X14087Y40099D01*
D02*
G37*
G36*
X20292Y43062D02*
X20611D01*
Y42633D01*
X20292D01*
Y42118D01*
X19818D01*
Y42633D01*
X18774D01*
Y43059D01*
X19880Y44682D01*
X20292D01*
Y43062D01*
D02*
G37*
G36*
X17575Y44671D02*
X17614D01*
X17658Y44669D01*
X17702Y44666D01*
X17802Y44658D01*
X17899Y44644D01*
X17946Y44638D01*
X17993Y44627D01*
X18035Y44616D01*
X18071Y44605D01*
X18073D01*
X18079Y44602D01*
X18087Y44597D01*
X18101Y44591D01*
X18118Y44583D01*
X18134Y44574D01*
X18179Y44550D01*
X18226Y44513D01*
X18273Y44472D01*
X18323Y44419D01*
X18367Y44358D01*
Y44356D01*
X18373Y44350D01*
X18378Y44342D01*
X18384Y44328D01*
X18395Y44311D01*
X18403Y44292D01*
X18414Y44267D01*
X18425Y44242D01*
X18445Y44184D01*
X18464Y44115D01*
X18475Y44040D01*
X18481Y43957D01*
Y43954D01*
Y43943D01*
Y43929D01*
X18478Y43910D01*
X18475Y43885D01*
X18472Y43857D01*
X18467Y43824D01*
X18458Y43791D01*
X18439Y43713D01*
X18425Y43674D01*
X18409Y43635D01*
X18389Y43594D01*
X18367Y43555D01*
X18342Y43516D01*
X18312Y43480D01*
X18309Y43478D01*
X18303Y43472D01*
X18295Y43464D01*
X18281Y43450D01*
X18262Y43436D01*
X18240Y43419D01*
X18215Y43400D01*
X18184Y43381D01*
X18151Y43358D01*
X18115Y43339D01*
X18073Y43320D01*
X18026Y43300D01*
X17977Y43284D01*
X17924Y43267D01*
X17866Y43253D01*
X17805Y43242D01*
X17808D01*
X17813Y43237D01*
X17821Y43234D01*
X17832Y43225D01*
X17863Y43206D01*
X17902Y43178D01*
X17946Y43148D01*
X17993Y43112D01*
X18040Y43070D01*
X18082Y43029D01*
X18087Y43023D01*
X18093Y43015D01*
X18101Y43007D01*
X18112Y42993D01*
X18126Y42976D01*
X18143Y42957D01*
X18159Y42935D01*
X18179Y42907D01*
X18201Y42876D01*
X18226Y42843D01*
X18251Y42805D01*
X18278Y42763D01*
X18309Y42716D01*
X18342Y42669D01*
X18375Y42613D01*
X18688Y42118D01*
X18071D01*
X17697Y42674D01*
X17694Y42677D01*
X17688Y42688D01*
X17677Y42702D01*
X17663Y42721D01*
X17650Y42746D01*
X17630Y42771D01*
X17589Y42832D01*
X17542Y42896D01*
X17497Y42957D01*
X17475Y42985D01*
X17456Y43009D01*
X17439Y43032D01*
X17423Y43048D01*
X17420Y43051D01*
X17411Y43062D01*
X17395Y43073D01*
X17375Y43090D01*
X17353Y43109D01*
X17325Y43126D01*
X17298Y43142D01*
X17267Y43154D01*
X17265Y43156D01*
X17251Y43159D01*
X17231Y43165D01*
X17204Y43170D01*
X17168Y43176D01*
X17123Y43178D01*
X17071Y43184D01*
X16905D01*
Y42118D01*
X16389D01*
Y44674D01*
X17542D01*
X17575Y44671D01*
D02*
G37*
G36*
X19719Y31503D02*
X19744Y31501D01*
X19777Y31498D01*
X19816Y31489D01*
X19860Y31481D01*
X19907Y31467D01*
X19957Y31453D01*
X20007Y31431D01*
X20062Y31409D01*
X20115Y31379D01*
X20167Y31345D01*
X20220Y31304D01*
X20273Y31257D01*
X20320Y31204D01*
X20323Y31201D01*
X20331Y31190D01*
X20342Y31171D01*
X20359Y31146D01*
X20378Y31113D01*
X20400Y31071D01*
X20422Y31024D01*
X20445Y30969D01*
X20467Y30902D01*
X20492Y30830D01*
X20511Y30750D01*
X20530Y30658D01*
X20547Y30562D01*
X20558Y30456D01*
X20566Y30340D01*
X20569Y30215D01*
Y30213D01*
Y30207D01*
Y30199D01*
Y30185D01*
Y30168D01*
X20566Y30149D01*
Y30127D01*
Y30102D01*
X20561Y30044D01*
X20555Y29977D01*
X20547Y29905D01*
X20536Y29827D01*
X20522Y29744D01*
X20505Y29661D01*
X20483Y29575D01*
X20458Y29492D01*
X20431Y29412D01*
X20395Y29337D01*
X20356Y29268D01*
X20309Y29204D01*
X20306Y29201D01*
X20298Y29190D01*
X20281Y29177D01*
X20262Y29157D01*
X20237Y29132D01*
X20204Y29107D01*
X20167Y29077D01*
X20126Y29049D01*
X20082Y29021D01*
X20029Y28991D01*
X19974Y28966D01*
X19913Y28944D01*
X19849Y28922D01*
X19782Y28908D01*
X19708Y28897D01*
X19633Y28894D01*
X19605D01*
X19583Y28897D01*
X19558Y28899D01*
X19528Y28902D01*
X19494Y28908D01*
X19461Y28913D01*
X19384Y28933D01*
X19342Y28947D01*
X19303Y28960D01*
X19262Y28980D01*
X19223Y28999D01*
X19184Y29024D01*
X19148Y29052D01*
X19145Y29055D01*
X19140Y29060D01*
X19132Y29068D01*
X19118Y29082D01*
X19104Y29099D01*
X19087Y29121D01*
X19071Y29143D01*
X19051Y29174D01*
X19032Y29204D01*
X19013Y29240D01*
X18990Y29279D01*
X18974Y29323D01*
X18954Y29370D01*
X18940Y29420D01*
X18927Y29476D01*
X18915Y29534D01*
X19389Y29586D01*
Y29584D01*
Y29581D01*
X19392Y29573D01*
Y29561D01*
X19398Y29537D01*
X19406Y29503D01*
X19417Y29470D01*
X19433Y29434D01*
X19453Y29401D01*
X19478Y29370D01*
X19481Y29368D01*
X19492Y29359D01*
X19508Y29348D01*
X19530Y29337D01*
X19558Y29323D01*
X19591Y29312D01*
X19627Y29304D01*
X19672Y29301D01*
X19686D01*
X19697Y29304D01*
X19724Y29309D01*
X19760Y29318D01*
X19799Y29334D01*
X19843Y29359D01*
X19863Y29376D01*
X19885Y29395D01*
X19907Y29415D01*
X19927Y29440D01*
Y29442D01*
X19932Y29445D01*
X19938Y29456D01*
X19943Y29467D01*
X19951Y29484D01*
X19963Y29506D01*
X19974Y29534D01*
X19985Y29564D01*
X19996Y29600D01*
X20007Y29642D01*
X20018Y29689D01*
X20029Y29742D01*
X20040Y29803D01*
X20048Y29866D01*
X20057Y29938D01*
X20062Y30019D01*
X20060Y30016D01*
X20054Y30010D01*
X20043Y29999D01*
X20029Y29985D01*
X20012Y29969D01*
X19990Y29952D01*
X19965Y29933D01*
X19935Y29913D01*
X19904Y29891D01*
X19868Y29872D01*
X19832Y29855D01*
X19791Y29838D01*
X19747Y29825D01*
X19699Y29814D01*
X19652Y29808D01*
X19600Y29805D01*
X19586D01*
X19572Y29808D01*
X19550D01*
X19525Y29814D01*
X19494Y29816D01*
X19458Y29825D01*
X19422Y29833D01*
X19384Y29847D01*
X19342Y29861D01*
X19298Y29880D01*
X19256Y29902D01*
X19212Y29930D01*
X19168Y29960D01*
X19123Y29994D01*
X19082Y30035D01*
X19079Y30038D01*
X19073Y30046D01*
X19062Y30060D01*
X19049Y30077D01*
X19032Y30102D01*
X19013Y30129D01*
X18993Y30163D01*
X18974Y30199D01*
X18951Y30240D01*
X18932Y30285D01*
X18913Y30334D01*
X18896Y30390D01*
X18882Y30448D01*
X18871Y30509D01*
X18866Y30573D01*
X18863Y30642D01*
Y30647D01*
Y30658D01*
X18866Y30681D01*
Y30705D01*
X18871Y30739D01*
X18874Y30778D01*
X18882Y30819D01*
X18891Y30866D01*
X18904Y30913D01*
X18918Y30966D01*
X18938Y31018D01*
X18960Y31068D01*
X18988Y31121D01*
X19018Y31174D01*
X19051Y31221D01*
X19093Y31268D01*
X19096Y31271D01*
X19104Y31279D01*
X19118Y31290D01*
X19134Y31304D01*
X19157Y31323D01*
X19184Y31343D01*
X19217Y31365D01*
X19253Y31387D01*
X19292Y31409D01*
X19336Y31431D01*
X19386Y31451D01*
X19436Y31470D01*
X19494Y31484D01*
X19553Y31495D01*
X19613Y31503D01*
X19680Y31506D01*
X19697D01*
X19719Y31503D01*
D02*
G37*
G36*
X17616Y31495D02*
X17655D01*
X17699Y31492D01*
X17744Y31489D01*
X17843Y31481D01*
X17941Y31467D01*
X17988Y31462D01*
X18035Y31451D01*
X18076Y31440D01*
X18112Y31429D01*
X18115D01*
X18121Y31426D01*
X18129Y31420D01*
X18143Y31415D01*
X18159Y31406D01*
X18176Y31398D01*
X18220Y31373D01*
X18267Y31337D01*
X18314Y31295D01*
X18364Y31243D01*
X18409Y31182D01*
Y31179D01*
X18414Y31174D01*
X18420Y31165D01*
X18425Y31152D01*
X18436Y31135D01*
X18445Y31115D01*
X18456Y31091D01*
X18467Y31066D01*
X18486Y31008D01*
X18506Y30938D01*
X18517Y30863D01*
X18522Y30780D01*
Y30778D01*
Y30766D01*
Y30753D01*
X18519Y30733D01*
X18517Y30708D01*
X18514Y30681D01*
X18508Y30647D01*
X18500Y30614D01*
X18481Y30537D01*
X18467Y30498D01*
X18450Y30459D01*
X18431Y30417D01*
X18409Y30379D01*
X18384Y30340D01*
X18353Y30304D01*
X18350Y30301D01*
X18345Y30296D01*
X18337Y30287D01*
X18323Y30273D01*
X18303Y30260D01*
X18281Y30243D01*
X18256Y30224D01*
X18226Y30204D01*
X18192Y30182D01*
X18157Y30163D01*
X18115Y30143D01*
X18068Y30124D01*
X18018Y30107D01*
X17965Y30091D01*
X17907Y30077D01*
X17846Y30066D01*
X17849D01*
X17855Y30060D01*
X17863Y30057D01*
X17874Y30049D01*
X17904Y30030D01*
X17943Y30002D01*
X17988Y29972D01*
X18035Y29936D01*
X18082Y29894D01*
X18123Y29852D01*
X18129Y29847D01*
X18134Y29838D01*
X18143Y29830D01*
X18154Y29816D01*
X18168Y29800D01*
X18184Y29780D01*
X18201Y29758D01*
X18220Y29730D01*
X18242Y29700D01*
X18267Y29667D01*
X18292Y29628D01*
X18320Y29586D01*
X18350Y29539D01*
X18384Y29492D01*
X18417Y29437D01*
X18730Y28941D01*
X18112D01*
X17738Y29498D01*
X17736Y29501D01*
X17730Y29512D01*
X17719Y29526D01*
X17705Y29545D01*
X17691Y29570D01*
X17672Y29595D01*
X17630Y29656D01*
X17583Y29719D01*
X17539Y29780D01*
X17517Y29808D01*
X17497Y29833D01*
X17481Y29855D01*
X17464Y29872D01*
X17461Y29875D01*
X17453Y29886D01*
X17436Y29897D01*
X17417Y29913D01*
X17395Y29933D01*
X17367Y29949D01*
X17339Y29966D01*
X17309Y29977D01*
X17306Y29980D01*
X17292Y29983D01*
X17273Y29988D01*
X17245Y29994D01*
X17209Y29999D01*
X17165Y30002D01*
X17112Y30007D01*
X16946D01*
Y28941D01*
X16431D01*
Y31498D01*
X17583D01*
X17616Y31495D01*
D02*
G37*
%LPC*%
G36*
X6683Y30179D02*
Y29185D01*
X5677D01*
Y30179D01*
X6683D01*
X5007D01*
Y29185D01*
X4000D01*
Y28494D01*
X5007D01*
Y27500D01*
X4000D01*
X5677D01*
Y28494D01*
X6683D01*
Y30179D01*
D02*
G37*
G36*
X71575Y13030D02*
X67985D01*
X69790D01*
X69695Y13022D01*
X69603Y13013D01*
X69516Y13001D01*
X69433Y12984D01*
X69358Y12968D01*
X69287Y12951D01*
X69225Y12934D01*
X69166Y12918D01*
X69116Y12901D01*
X69075Y12884D01*
X69037Y12868D01*
X69008Y12855D01*
X68988Y12847D01*
X68975Y12843D01*
X68971Y12839D01*
X68884Y12789D01*
X68800Y12735D01*
X68721Y12681D01*
X68651Y12622D01*
X68584Y12560D01*
X68526Y12502D01*
X68467Y12444D01*
X68422Y12385D01*
X68376Y12331D01*
X68339Y12281D01*
X68309Y12235D01*
X68280Y12198D01*
X68260Y12165D01*
X68247Y12140D01*
X68239Y12123D01*
X68234Y12119D01*
X68189Y12032D01*
X68151Y11940D01*
X68118Y11849D01*
X68089Y11757D01*
X68068Y11666D01*
X68047Y11578D01*
X68031Y11491D01*
X68018Y11412D01*
X68006Y11337D01*
X67997Y11270D01*
X67993Y11208D01*
X67989Y11154D01*
X67985Y11112D01*
Y9057D01*
Y11054D01*
X67989Y10950D01*
X67993Y10850D01*
X68006Y10755D01*
X68018Y10659D01*
X68039Y10571D01*
X68056Y10488D01*
X68076Y10409D01*
X68097Y10334D01*
X68118Y10268D01*
X68139Y10210D01*
X68160Y10155D01*
X68176Y10114D01*
X68189Y10076D01*
X68201Y10052D01*
X68205Y10035D01*
X68209Y10031D01*
X68255Y9943D01*
X68301Y9864D01*
X68355Y9789D01*
X68409Y9719D01*
X68463Y9656D01*
X68521Y9594D01*
X68576Y9540D01*
X68630Y9494D01*
X68680Y9448D01*
X68725Y9411D01*
X68771Y9382D01*
X68804Y9353D01*
X68838Y9332D01*
X68858Y9319D01*
X68875Y9311D01*
X68879Y9307D01*
X68967Y9261D01*
X69054Y9224D01*
X69141Y9190D01*
X69233Y9161D01*
X69324Y9140D01*
X69412Y9120D01*
X69495Y9103D01*
X69574Y9091D01*
X69649Y9078D01*
X69715Y9070D01*
X69778Y9066D01*
X69832Y9061D01*
X69873Y9057D01*
X69932D01*
X70019Y9061D01*
X70107Y9066D01*
X70277Y9086D01*
X70360Y9099D01*
X70435Y9116D01*
X70510Y9132D01*
X70577Y9149D01*
X70639Y9165D01*
X70697Y9178D01*
X70747Y9194D01*
X70789Y9207D01*
X70822Y9219D01*
X70847Y9228D01*
X70864Y9236D01*
X70868D01*
X70951Y9269D01*
X71030Y9307D01*
X71105Y9340D01*
X71171Y9378D01*
X71238Y9411D01*
X71296Y9444D01*
X71346Y9477D01*
X71396Y9511D01*
X71438Y9540D01*
X71475Y9565D01*
X71504Y9590D01*
X71529Y9611D01*
X71550Y9627D01*
X71562Y9640D01*
X71571Y9644D01*
X71575Y9648D01*
Y11183D01*
X69907D01*
Y10534D01*
X70793D01*
Y10043D01*
X70722Y9993D01*
X70652Y9952D01*
X70581Y9914D01*
X70514Y9881D01*
X70456Y9852D01*
X70410Y9831D01*
X70394Y9823D01*
X70381Y9819D01*
X70373Y9814D01*
X70369D01*
X70277Y9781D01*
X70190Y9760D01*
X70111Y9744D01*
X70036Y9731D01*
X69973Y9723D01*
X69944D01*
X69924Y9719D01*
X69882D01*
X69790Y9723D01*
X69707Y9735D01*
X69628Y9752D01*
X69549Y9773D01*
X69478Y9798D01*
X69416Y9827D01*
X69353Y9856D01*
X69300Y9889D01*
X69254Y9922D01*
X69208Y9952D01*
X69175Y9981D01*
X69141Y10006D01*
X69121Y10026D01*
X69100Y10047D01*
X69091Y10056D01*
X69087Y10060D01*
X69033Y10126D01*
X68988Y10201D01*
X68946Y10280D01*
X68913Y10363D01*
X68884Y10451D01*
X68858Y10534D01*
X68838Y10621D01*
X68821Y10700D01*
X68809Y10780D01*
X68800Y10854D01*
X68792Y10917D01*
X68788Y10975D01*
Y11021D01*
X68784Y11058D01*
Y11079D01*
Y11087D01*
X68788Y11204D01*
X68796Y11312D01*
X68813Y11412D01*
X68829Y11503D01*
X68854Y11591D01*
X68879Y11670D01*
X68904Y11740D01*
X68933Y11803D01*
X68963Y11861D01*
X68988Y11907D01*
X69012Y11948D01*
X69037Y11982D01*
X69054Y12011D01*
X69071Y12027D01*
X69079Y12040D01*
X69083Y12044D01*
X69141Y12102D01*
X69204Y12152D01*
X69270Y12194D01*
X69337Y12231D01*
X69403Y12265D01*
X69470Y12290D01*
X69537Y12310D01*
X69599Y12327D01*
X69657Y12340D01*
X69715Y12352D01*
X69765Y12360D01*
X69807Y12364D01*
X69840Y12369D01*
X69890D01*
X70011Y12360D01*
X70119Y12344D01*
X70215Y12314D01*
X70294Y12285D01*
X70327Y12269D01*
X70360Y12256D01*
X70385Y12240D01*
X70406Y12227D01*
X70427Y12219D01*
X70439Y12211D01*
X70443Y12202D01*
X70448D01*
X70527Y12136D01*
X70589Y12065D01*
X70643Y11990D01*
X70685Y11919D01*
X70718Y11857D01*
X70731Y11828D01*
X70739Y11803D01*
X70747Y11786D01*
X70751Y11770D01*
X70755Y11761D01*
Y11757D01*
X71525Y11903D01*
X71500Y11998D01*
X71471Y12090D01*
X71434Y12177D01*
X71396Y12256D01*
X71355Y12327D01*
X71309Y12398D01*
X71267Y12460D01*
X71221Y12514D01*
X71180Y12564D01*
X71138Y12610D01*
X71101Y12643D01*
X71072Y12676D01*
X71043Y12701D01*
X71022Y12718D01*
X71009Y12726D01*
X71005Y12731D01*
X70926Y12785D01*
X70843Y12830D01*
X70755Y12868D01*
X70664Y12905D01*
X70568Y12934D01*
X70477Y12955D01*
X70385Y12976D01*
X70298Y12993D01*
X70215Y13005D01*
X70140Y13013D01*
X70069Y13022D01*
X70007Y13026D01*
X69961Y13030D01*
X71575D01*
D01*
D02*
G37*
G36*
X71923Y33473D02*
X70055D01*
X69885Y33465D01*
X69727Y33448D01*
X69656Y33435D01*
X69585Y33423D01*
X69523Y33410D01*
X69465Y33398D01*
X69411Y33381D01*
X69365Y33369D01*
X69323Y33356D01*
X69290Y33344D01*
X69265Y33331D01*
X69244Y33327D01*
X69232Y33319D01*
X69227D01*
X69128Y33273D01*
X69036Y33219D01*
X68949Y33161D01*
X68878Y33103D01*
X68816Y33053D01*
X68791Y33032D01*
X68770Y33011D01*
X68753Y32994D01*
X68741Y32982D01*
X68733Y32978D01*
X68728Y32974D01*
X68649Y32882D01*
X68579Y32795D01*
X68516Y32703D01*
X68466Y32624D01*
X68429Y32549D01*
X68412Y32520D01*
X68400Y32495D01*
X68387Y32474D01*
X68379Y32458D01*
X68375Y32449D01*
Y32445D01*
X68346Y32370D01*
X68317Y32287D01*
X68275Y32125D01*
X68242Y31959D01*
X68233Y31879D01*
X68221Y31805D01*
X68217Y31730D01*
X68208Y31667D01*
X68204Y31609D01*
Y31559D01*
X68200Y31518D01*
Y31459D01*
X68204Y31293D01*
X68221Y31135D01*
X68246Y30985D01*
X68279Y30848D01*
X68317Y30719D01*
X68358Y30602D01*
X68404Y30494D01*
X68454Y30399D01*
X68499Y30311D01*
X68545Y30236D01*
X68587Y30170D01*
X68624Y30116D01*
X68658Y30074D01*
X68683Y30045D01*
X68699Y30028D01*
X68703Y30020D01*
X68803Y29928D01*
X68907Y29849D01*
X69015Y29779D01*
X69128Y29721D01*
X69240Y29671D01*
X69357Y29629D01*
X69465Y29592D01*
X69573Y29567D01*
X69673Y29542D01*
X69764Y29529D01*
X69851Y29517D01*
X69922Y29508D01*
X69981Y29504D01*
X70026Y29500D01*
X71923D01*
Y29858D01*
Y29500D01*
X70064D01*
X70218Y29504D01*
X70367Y29521D01*
X70505Y29550D01*
X70634Y29583D01*
X70754Y29621D01*
X70867Y29666D01*
X70966Y29712D01*
X71058Y29762D01*
X71141Y29812D01*
X71212Y29858D01*
X71274Y29904D01*
X71324Y29941D01*
X71366Y29974D01*
X71391Y30003D01*
X71412Y30020D01*
X71416Y30024D01*
X71507Y30128D01*
X71582Y30236D01*
X71653Y30353D01*
X71711Y30473D01*
X71757Y30594D01*
X71798Y30715D01*
X71832Y30835D01*
X71861Y30948D01*
X71882Y31056D01*
X71898Y31160D01*
X71907Y31247D01*
X71915Y31326D01*
X71919Y31393D01*
X71923Y31418D01*
Y29858D01*
Y31418D01*
Y31480D01*
X71919Y31651D01*
X71902Y31813D01*
X71877Y31963D01*
X71844Y32104D01*
X71807Y32233D01*
X71761Y32354D01*
X71715Y32466D01*
X71669Y32562D01*
X71619Y32653D01*
X71574Y32728D01*
X71532Y32795D01*
X71491Y32849D01*
X71457Y32890D01*
X71432Y32919D01*
X71416Y32940D01*
X71412Y32945D01*
X71312Y33036D01*
X71208Y33119D01*
X71100Y33190D01*
X70987Y33248D01*
X70871Y33302D01*
X70758Y33344D01*
X70650Y33377D01*
X70542Y33406D01*
X70442Y33427D01*
X70351Y33444D01*
X70267Y33456D01*
X70197Y33465D01*
X70139Y33469D01*
X70093Y33473D01*
X71923D01*
D02*
G37*
%LPD*%
G36*
X70151Y32807D02*
X70234Y32799D01*
X70313Y32782D01*
X70384Y32761D01*
X70455Y32737D01*
X70517Y32707D01*
X70575Y32678D01*
X70629Y32649D01*
X70675Y32616D01*
X70717Y32587D01*
X70750Y32558D01*
X70779Y32533D01*
X70804Y32512D01*
X70821Y32495D01*
X70829Y32487D01*
X70833Y32483D01*
X70883Y32420D01*
X70929Y32345D01*
X70966Y32271D01*
X71004Y32192D01*
X71029Y32113D01*
X71054Y32029D01*
X71075Y31946D01*
X71087Y31867D01*
X71100Y31792D01*
X71108Y31721D01*
X71116Y31659D01*
X71120Y31605D01*
X71125Y31559D01*
Y31526D01*
Y31505D01*
Y31497D01*
X71120Y31376D01*
X71112Y31260D01*
X71095Y31156D01*
X71079Y31056D01*
X71054Y30968D01*
X71029Y30885D01*
X71004Y30810D01*
X70975Y30744D01*
X70946Y30686D01*
X70921Y30636D01*
X70896Y30590D01*
X70871Y30557D01*
X70854Y30527D01*
X70837Y30511D01*
X70829Y30498D01*
X70825Y30494D01*
X70767Y30436D01*
X70704Y30386D01*
X70642Y30340D01*
X70579Y30303D01*
X70517Y30270D01*
X70451Y30245D01*
X70392Y30220D01*
X70334Y30203D01*
X70276Y30191D01*
X70226Y30178D01*
X70180Y30170D01*
X70143Y30166D01*
X70109D01*
X70085Y30161D01*
X70064D01*
X69981Y30166D01*
X69897Y30178D01*
X69818Y30195D01*
X69748Y30215D01*
X69681Y30240D01*
X69619Y30270D01*
X69560Y30299D01*
X69506Y30332D01*
X69460Y30361D01*
X69419Y30390D01*
X69381Y30419D01*
X69352Y30444D01*
X69327Y30469D01*
X69311Y30486D01*
X69302Y30494D01*
X69298Y30498D01*
X69244Y30565D01*
X69198Y30640D01*
X69161Y30715D01*
X69124Y30794D01*
X69094Y30877D01*
X69074Y30960D01*
X69053Y31039D01*
X69036Y31118D01*
X69024Y31193D01*
X69015Y31264D01*
X69007Y31326D01*
X69003Y31380D01*
Y31426D01*
X68999Y31459D01*
Y31480D01*
Y31488D01*
X69003Y31609D01*
X69011Y31721D01*
X69024Y31825D01*
X69045Y31921D01*
X69065Y32013D01*
X69090Y32092D01*
X69119Y32167D01*
X69144Y32233D01*
X69173Y32291D01*
X69198Y32341D01*
X69223Y32383D01*
X69244Y32416D01*
X69265Y32445D01*
X69277Y32462D01*
X69286Y32474D01*
X69290Y32479D01*
X69348Y32537D01*
X69406Y32587D01*
X69473Y32632D01*
X69535Y32670D01*
X69602Y32703D01*
X69664Y32732D01*
X69727Y32753D01*
X69789Y32770D01*
X69843Y32782D01*
X69897Y32795D01*
X69943Y32803D01*
X69985Y32807D01*
X70018Y32811D01*
X70064D01*
X70151Y32807D01*
D02*
G37*
%LPC*%
G36*
X69283Y40332D02*
Y39338D01*
X68277D01*
Y40332D01*
X67607D01*
Y39338D01*
X66600D01*
Y38647D01*
X67607D01*
Y37653D01*
X66600D01*
D01*
X69283D01*
Y40332D01*
D02*
G37*
G36*
X73081Y40940D02*
X72258D01*
X71317Y38098D01*
X70344Y40940D01*
X69508D01*
X70876Y37100D01*
X69508D01*
D01*
X73081D01*
D01*
X71709D01*
X73081Y40940D01*
D02*
G37*
%LPD*%
G36*
X69283Y37653D02*
X68277D01*
Y38647D01*
X69283D01*
Y37653D01*
D02*
G37*
%LPC*%
G36*
X56776Y8204D02*
X56774D01*
X56771D01*
X56754D01*
X56732Y8201D01*
X56702Y8196D01*
X56668Y8188D01*
X56635Y8174D01*
X56602Y8157D01*
X56569Y8135D01*
X56566Y8132D01*
X56555Y8121D01*
X56541Y8107D01*
X56527Y8085D01*
X56508Y8057D01*
X56494Y8024D01*
X56480Y7983D01*
X56469Y7938D01*
Y7936D01*
X56466Y7924D01*
Y7902D01*
X56463Y7888D01*
Y7847D01*
X56461Y7819D01*
Y7753D01*
X56458Y7714D01*
Y7160D01*
X57109D01*
Y7631D01*
X57106Y7664D01*
Y7739D01*
X57101Y7819D01*
X57095Y7894D01*
X57092Y7927D01*
X57090Y7958D01*
X57084Y7985D01*
X57078Y8005D01*
X57076Y8010D01*
X57073Y8021D01*
X57064Y8038D01*
X57054Y8057D01*
X57040Y8082D01*
X57020Y8107D01*
X56998Y8129D01*
X56970Y8152D01*
X56968Y8154D01*
X56956Y8160D01*
X56940Y8168D01*
X56918Y8179D01*
X56890Y8188D01*
X56857Y8196D01*
X56818Y8201D01*
X56776Y8204D01*
D02*
G37*
G36*
X56677Y39298D02*
X56674D01*
X56671D01*
X56654D01*
X56632Y39295D01*
X56602Y39290D01*
X56568Y39281D01*
X56535Y39268D01*
X56502Y39251D01*
X56469Y39229D01*
X56466Y39226D01*
X56455Y39215D01*
X56441Y39201D01*
X56427Y39179D01*
X56408Y39151D01*
X56394Y39118D01*
X56380Y39077D01*
X56369Y39032D01*
Y39029D01*
X56366Y39018D01*
Y38996D01*
X56363Y38982D01*
Y38941D01*
X56361Y38913D01*
Y38847D01*
X56358Y38808D01*
Y38254D01*
X57009D01*
Y38725D01*
X57006Y38758D01*
Y38833D01*
X57000Y38913D01*
X56995Y38988D01*
X56992Y39021D01*
X56990Y39051D01*
X56984Y39079D01*
X56978Y39099D01*
X56976Y39104D01*
X56973Y39115D01*
X56964Y39132D01*
X56954Y39151D01*
X56940Y39176D01*
X56920Y39201D01*
X56898Y39223D01*
X56870Y39245D01*
X56868Y39248D01*
X56857Y39254D01*
X56840Y39262D01*
X56818Y39273D01*
X56790Y39281D01*
X56757Y39290D01*
X56718Y39295D01*
X56677Y39298D01*
D02*
G37*
G36*
X64053Y29383D02*
X64050D01*
X64047D01*
X64031D01*
X64009Y29381D01*
X63978Y29375D01*
X63945Y29367D01*
X63912Y29353D01*
X63878Y29336D01*
X63845Y29314D01*
X63842Y29311D01*
X63831Y29300D01*
X63818Y29287D01*
X63804Y29264D01*
X63784Y29237D01*
X63770Y29203D01*
X63757Y29162D01*
X63745Y29118D01*
Y29115D01*
X63743Y29104D01*
Y29081D01*
X63740Y29068D01*
Y29026D01*
X63737Y28998D01*
Y28932D01*
X63734Y28893D01*
Y28339D01*
X64385D01*
Y28810D01*
X64383Y28843D01*
Y28918D01*
X64377Y28998D01*
X64372Y29073D01*
X64369Y29106D01*
X64366Y29137D01*
X64360Y29165D01*
X64355Y29184D01*
X64352Y29190D01*
X64349Y29201D01*
X64341Y29217D01*
X64330Y29237D01*
X64316Y29261D01*
X64297Y29287D01*
X64275Y29309D01*
X64247Y29331D01*
X64244Y29333D01*
X64233Y29339D01*
X64216Y29347D01*
X64194Y29359D01*
X64166Y29367D01*
X64133Y29375D01*
X64095Y29381D01*
X64053Y29383D01*
D02*
G37*
G36*
X47615Y9942D02*
X47061D01*
Y9291D01*
X47532D01*
X47565Y9294D01*
X47640D01*
X47720Y9299D01*
X47795Y9305D01*
X47828Y9308D01*
X47859Y9311D01*
X47886Y9316D01*
X47906Y9322D01*
X47911Y9324D01*
X47922Y9327D01*
X47939Y9336D01*
X47958Y9347D01*
X47983Y9360D01*
X48008Y9380D01*
X48030Y9402D01*
X48052Y9430D01*
X48055Y9432D01*
X48061Y9443D01*
X48069Y9460D01*
X48080Y9482D01*
X48088Y9510D01*
X48097Y9543D01*
X48102Y9582D01*
X48105Y9623D01*
Y9626D01*
Y9629D01*
Y9646D01*
X48102Y9668D01*
X48097Y9698D01*
X48088Y9732D01*
X48075Y9765D01*
X48058Y9798D01*
X48036Y9831D01*
X48033Y9834D01*
X48022Y9845D01*
X48008Y9859D01*
X47986Y9873D01*
X47958Y9892D01*
X47925Y9906D01*
X47883Y9920D01*
X47839Y9931D01*
X47836D01*
X47825Y9934D01*
X47803D01*
X47789Y9937D01*
X47748D01*
X47720Y9939D01*
X47653D01*
X47615Y9942D01*
D02*
G37*
G36*
X48507Y41951D02*
X47953D01*
Y41300D01*
X48424D01*
X48457Y41303D01*
X48532D01*
X48612Y41309D01*
X48687Y41314D01*
X48720Y41317D01*
X48751Y41320D01*
X48778Y41325D01*
X48798Y41331D01*
X48803Y41334D01*
X48814Y41337D01*
X48831Y41345D01*
X48850Y41356D01*
X48875Y41370D01*
X48900Y41389D01*
X48923Y41411D01*
X48945Y41439D01*
X48947Y41442D01*
X48953Y41453D01*
X48961Y41469D01*
X48972Y41492D01*
X48981Y41519D01*
X48989Y41553D01*
X48994Y41591D01*
X48997Y41633D01*
Y41636D01*
Y41638D01*
Y41655D01*
X48994Y41677D01*
X48989Y41708D01*
X48981Y41741D01*
X48967Y41774D01*
X48950Y41807D01*
X48928Y41841D01*
X48925Y41843D01*
X48914Y41855D01*
X48900Y41868D01*
X48878Y41882D01*
X48850Y41902D01*
X48817Y41915D01*
X48776Y41929D01*
X48731Y41940D01*
X48729D01*
X48717Y41943D01*
X48695D01*
X48682Y41946D01*
X48640D01*
X48612Y41949D01*
X48546D01*
X48507Y41951D01*
D02*
G37*
G36*
X29386Y31529D02*
X29384D01*
X29381D01*
X29364D01*
X29339Y31523D01*
X29309Y31518D01*
X29273Y31510D01*
X29237Y31493D01*
X29201Y31474D01*
X29168Y31446D01*
X29165Y31443D01*
X29154Y31432D01*
X29140Y31413D01*
X29123Y31388D01*
X29109Y31354D01*
X29096Y31319D01*
X29085Y31274D01*
X29082Y31224D01*
Y31202D01*
X29087Y31174D01*
X29093Y31144D01*
X29104Y31108D01*
X29118Y31069D01*
X29140Y31033D01*
X29168Y31000D01*
X29170Y30997D01*
X29182Y30986D01*
X29201Y30975D01*
X29226Y30958D01*
X29259Y30945D01*
X29295Y30931D01*
X29339Y30920D01*
X29389Y30917D01*
X29392D01*
X29395D01*
X29403D01*
X29414D01*
X29439Y30922D01*
X29472Y30928D01*
X29511Y30936D01*
X29547Y30950D01*
X29586Y30970D01*
X29619Y30997D01*
X29622Y31000D01*
X29630Y31014D01*
X29644Y31030D01*
X29658Y31055D01*
X29675Y31089D01*
X29686Y31125D01*
X29697Y31169D01*
X29699Y31219D01*
Y31224D01*
X29697Y31241D01*
X29694Y31269D01*
X29688Y31299D01*
X29680Y31335D01*
X29663Y31374D01*
X29644Y31410D01*
X29616Y31443D01*
X29614Y31446D01*
X29600Y31457D01*
X29583Y31471D01*
X29555Y31488D01*
X29525Y31501D01*
X29483Y31515D01*
X29439Y31526D01*
X29386Y31529D01*
D02*
G37*
G36*
X30489Y31587D02*
X30486D01*
X30481D01*
X30472D01*
X30458Y31584D01*
X30425Y31582D01*
X30384Y31573D01*
X30339Y31562D01*
X30289Y31543D01*
X30242Y31518D01*
X30198Y31485D01*
X30193Y31479D01*
X30181Y31465D01*
X30162Y31443D01*
X30143Y31416D01*
X30123Y31377D01*
X30104Y31332D01*
X30093Y31282D01*
X30087Y31227D01*
Y31211D01*
X30090Y31197D01*
X30093Y31166D01*
X30104Y31127D01*
X30118Y31083D01*
X30140Y31039D01*
X30170Y30994D01*
X30190Y30975D01*
X30212Y30958D01*
X30217Y30956D01*
X30234Y30945D01*
X30259Y30931D01*
X30292Y30917D01*
X30334Y30900D01*
X30378Y30886D01*
X30431Y30875D01*
X30483Y30873D01*
X30486D01*
X30492D01*
X30503D01*
X30517Y30875D01*
X30533D01*
X30553Y30878D01*
X30600Y30886D01*
X30650Y30898D01*
X30702Y30917D01*
X30752Y30942D01*
X30799Y30975D01*
X30805Y30981D01*
X30816Y30994D01*
X30835Y31017D01*
X30854Y31047D01*
X30877Y31086D01*
X30896Y31130D01*
X30907Y31180D01*
X30913Y31235D01*
Y31249D01*
X30910Y31260D01*
X30907Y31288D01*
X30899Y31324D01*
X30885Y31363D01*
X30868Y31407D01*
X30841Y31449D01*
X30805Y31488D01*
X30799Y31493D01*
X30785Y31504D01*
X30758Y31518D01*
X30724Y31537D01*
X30680Y31557D01*
X30625Y31571D01*
X30561Y31582D01*
X30489Y31587D01*
D02*
G37*
G36*
X29453Y29488D02*
X29450D01*
X29447D01*
X29431D01*
X29409Y29485D01*
X29378Y29479D01*
X29345Y29471D01*
X29312Y29457D01*
X29278Y29441D01*
X29245Y29418D01*
X29242Y29416D01*
X29231Y29405D01*
X29217Y29391D01*
X29204Y29368D01*
X29184Y29341D01*
X29170Y29307D01*
X29157Y29266D01*
X29145Y29222D01*
Y29219D01*
X29143Y29208D01*
Y29186D01*
X29140Y29172D01*
Y29130D01*
X29137Y29103D01*
Y29036D01*
X29134Y28997D01*
Y28443D01*
X29785D01*
Y28914D01*
X29783Y28947D01*
Y29022D01*
X29777Y29103D01*
X29772Y29177D01*
X29769Y29211D01*
X29766Y29241D01*
X29760Y29269D01*
X29755Y29288D01*
X29752Y29294D01*
X29749Y29305D01*
X29741Y29321D01*
X29730Y29341D01*
X29716Y29366D01*
X29697Y29391D01*
X29675Y29413D01*
X29647Y29435D01*
X29644Y29438D01*
X29633Y29443D01*
X29616Y29452D01*
X29594Y29463D01*
X29566Y29471D01*
X29533Y29479D01*
X29495Y29485D01*
X29453Y29488D01*
D02*
G37*
G36*
X39472Y16238D02*
X39470D01*
X39467D01*
X39450D01*
X39428Y16235D01*
X39397Y16230D01*
X39364Y16221D01*
X39331Y16208D01*
X39298Y16191D01*
X39265Y16169D01*
X39262Y16166D01*
X39251Y16155D01*
X39237Y16141D01*
X39223Y16119D01*
X39204Y16091D01*
X39190Y16058D01*
X39176Y16016D01*
X39165Y15972D01*
Y15969D01*
X39162Y15958D01*
Y15936D01*
X39159Y15922D01*
Y15881D01*
X39156Y15853D01*
Y15787D01*
X39154Y15748D01*
Y15194D01*
X39805D01*
Y15665D01*
X39802Y15698D01*
Y15773D01*
X39796Y15853D01*
X39791Y15928D01*
X39788Y15961D01*
X39785Y15992D01*
X39780Y16019D01*
X39774Y16039D01*
X39772Y16044D01*
X39769Y16055D01*
X39760Y16072D01*
X39749Y16091D01*
X39735Y16116D01*
X39716Y16141D01*
X39694Y16163D01*
X39666Y16185D01*
X39663Y16188D01*
X39652Y16194D01*
X39636Y16202D01*
X39614Y16213D01*
X39586Y16221D01*
X39553Y16230D01*
X39514Y16235D01*
X39472Y16238D01*
D02*
G37*
G36*
X30492Y22102D02*
X30447D01*
X30445D01*
X30436D01*
X30422D01*
X30406Y22100D01*
X30386D01*
X30362Y22097D01*
X30309Y22091D01*
X30248Y22077D01*
X30187Y22061D01*
X30132Y22036D01*
X30104Y22019D01*
X30082Y22003D01*
X30076Y21997D01*
X30062Y21986D01*
X30046Y21964D01*
X30024Y21936D01*
X30001Y21900D01*
X29985Y21859D01*
X29971Y21812D01*
X29965Y21759D01*
Y21753D01*
X29968Y21737D01*
X29971Y21709D01*
X29979Y21676D01*
X29993Y21640D01*
X30013Y21598D01*
X30040Y21560D01*
X30076Y21521D01*
X30082Y21518D01*
X30096Y21507D01*
X30123Y21490D01*
X30159Y21474D01*
X30204Y21454D01*
X30262Y21440D01*
X30328Y21429D01*
X30403Y21424D01*
X30406D01*
X30414D01*
X30425D01*
X30442Y21427D01*
X30461D01*
X30486Y21429D01*
X30539Y21438D01*
X30597Y21452D01*
X30658Y21468D01*
X30719Y21496D01*
X30771Y21532D01*
X30777Y21537D01*
X30791Y21551D01*
X30813Y21573D01*
X30835Y21604D01*
X30857Y21643D01*
X30880Y21684D01*
X30893Y21731D01*
X30896Y21759D01*
X30899Y21784D01*
Y21789D01*
X30896Y21806D01*
X30893Y21831D01*
X30885Y21864D01*
X30874Y21900D01*
X30854Y21936D01*
X30830Y21975D01*
X30794Y22011D01*
X30788Y22014D01*
X30774Y22025D01*
X30746Y22039D01*
X30730Y22047D01*
X30711Y22058D01*
X30688Y22066D01*
X30663Y22075D01*
X30636Y22080D01*
X30602Y22089D01*
X30569Y22094D01*
X30531Y22100D01*
X30492Y22102D01*
D02*
G37*
G36*
X29453Y17978D02*
X29450D01*
X29447D01*
X29431D01*
X29409Y17975D01*
X29378Y17970D01*
X29345Y17961D01*
X29312Y17947D01*
X29278Y17931D01*
X29245Y17909D01*
X29242Y17906D01*
X29231Y17895D01*
X29217Y17881D01*
X29204Y17859D01*
X29184Y17831D01*
X29170Y17798D01*
X29157Y17756D01*
X29145Y17712D01*
Y17709D01*
X29143Y17698D01*
Y17676D01*
X29140Y17662D01*
Y17621D01*
X29137Y17593D01*
Y17526D01*
X29134Y17488D01*
Y16934D01*
X29785D01*
Y17404D01*
X29783Y17438D01*
Y17513D01*
X29777Y17593D01*
X29772Y17668D01*
X29769Y17701D01*
X29766Y17731D01*
X29760Y17759D01*
X29755Y17778D01*
X29752Y17784D01*
X29749Y17795D01*
X29741Y17812D01*
X29730Y17831D01*
X29716Y17856D01*
X29697Y17881D01*
X29675Y17903D01*
X29647Y17925D01*
X29644Y17928D01*
X29633Y17934D01*
X29616Y17942D01*
X29594Y17953D01*
X29566Y17961D01*
X29533Y17970D01*
X29495Y17975D01*
X29453Y17978D01*
D02*
G37*
G36*
X15603Y21042D02*
X15049D01*
Y20391D01*
X15520D01*
X15553Y20394D01*
X15628D01*
X15708Y20399D01*
X15783Y20405D01*
X15816Y20408D01*
X15847Y20411D01*
X15874Y20416D01*
X15894Y20422D01*
X15899Y20424D01*
X15910Y20427D01*
X15927Y20436D01*
X15946Y20447D01*
X15971Y20460D01*
X15996Y20480D01*
X16018Y20502D01*
X16040Y20530D01*
X16043Y20532D01*
X16049Y20543D01*
X16057Y20560D01*
X16068Y20582D01*
X16077Y20610D01*
X16085Y20643D01*
X16090Y20682D01*
X16093Y20723D01*
Y20726D01*
Y20729D01*
Y20746D01*
X16090Y20768D01*
X16085Y20798D01*
X16077Y20832D01*
X16063Y20865D01*
X16046Y20898D01*
X16024Y20931D01*
X16021Y20934D01*
X16010Y20945D01*
X15996Y20959D01*
X15974Y20973D01*
X15946Y20992D01*
X15913Y21006D01*
X15871Y21020D01*
X15827Y21031D01*
X15824D01*
X15813Y21034D01*
X15791D01*
X15777Y21036D01*
X15736D01*
X15708Y21039D01*
X15642D01*
X15603Y21042D01*
D02*
G37*
G36*
X32266Y44035D02*
X32260D01*
X32244Y44032D01*
X32216Y44029D01*
X32183Y44021D01*
X32147Y44007D01*
X32105Y43988D01*
X32066Y43960D01*
X32028Y43924D01*
X32025Y43918D01*
X32014Y43904D01*
X31997Y43877D01*
X31981Y43841D01*
X31961Y43796D01*
X31947Y43738D01*
X31936Y43672D01*
X31931Y43597D01*
Y43594D01*
Y43586D01*
Y43575D01*
X31934Y43558D01*
Y43539D01*
X31936Y43514D01*
X31945Y43461D01*
X31958Y43403D01*
X31975Y43342D01*
X32003Y43281D01*
X32039Y43229D01*
X32044Y43223D01*
X32058Y43209D01*
X32080Y43187D01*
X32111Y43165D01*
X32149Y43143D01*
X32191Y43121D01*
X32238Y43107D01*
X32266Y43104D01*
X32291Y43101D01*
X32296D01*
X32313Y43104D01*
X32338Y43107D01*
X32371Y43115D01*
X32407Y43126D01*
X32443Y43145D01*
X32482Y43170D01*
X32518Y43206D01*
X32521Y43212D01*
X32532Y43226D01*
X32546Y43253D01*
X32554Y43270D01*
X32565Y43290D01*
X32573Y43312D01*
X32582Y43337D01*
X32587Y43364D01*
X32596Y43398D01*
X32601Y43431D01*
X32607Y43470D01*
X32609Y43508D01*
Y43553D01*
Y43555D01*
Y43564D01*
Y43578D01*
X32607Y43594D01*
Y43614D01*
X32604Y43639D01*
X32598Y43691D01*
X32584Y43752D01*
X32568Y43813D01*
X32543Y43868D01*
X32526Y43896D01*
X32510Y43918D01*
X32504Y43924D01*
X32493Y43938D01*
X32471Y43954D01*
X32443Y43977D01*
X32407Y43999D01*
X32366Y44015D01*
X32318Y44029D01*
X32266Y44035D01*
D02*
G37*
G36*
X29981Y44866D02*
X29427D01*
Y44215D01*
X29897D01*
X29931Y44218D01*
X30006D01*
X30086Y44223D01*
X30161Y44229D01*
X30194Y44231D01*
X30224Y44234D01*
X30252Y44240D01*
X30272Y44245D01*
X30277Y44248D01*
X30288Y44251D01*
X30305Y44259D01*
X30324Y44270D01*
X30349Y44284D01*
X30374Y44303D01*
X30396Y44326D01*
X30418Y44353D01*
X30421Y44356D01*
X30427Y44367D01*
X30435Y44384D01*
X30446Y44406D01*
X30454Y44434D01*
X30463Y44467D01*
X30468Y44506D01*
X30471Y44547D01*
Y44550D01*
Y44553D01*
Y44569D01*
X30468Y44591D01*
X30463Y44622D01*
X30454Y44655D01*
X30441Y44688D01*
X30424Y44722D01*
X30402Y44755D01*
X30399Y44758D01*
X30388Y44769D01*
X30374Y44783D01*
X30352Y44796D01*
X30324Y44816D01*
X30291Y44830D01*
X30249Y44844D01*
X30205Y44855D01*
X30202D01*
X30191Y44857D01*
X30169D01*
X30155Y44860D01*
X30114D01*
X30086Y44863D01*
X30019D01*
X29981Y44866D01*
D02*
G37*
G36*
X28978Y7366D02*
X28424D01*
Y6715D01*
X28895D01*
X28928Y6717D01*
X29003D01*
X29083Y6723D01*
X29158Y6729D01*
X29191Y6731D01*
X29222Y6734D01*
X29249Y6740D01*
X29269Y6745D01*
X29274Y6748D01*
X29285Y6751D01*
X29302Y6759D01*
X29321Y6770D01*
X29346Y6784D01*
X29371Y6803D01*
X29393Y6825D01*
X29416Y6853D01*
X29418Y6856D01*
X29424Y6867D01*
X29432Y6884D01*
X29443Y6906D01*
X29452Y6933D01*
X29460Y6967D01*
X29465Y7006D01*
X29468Y7047D01*
Y7050D01*
Y7053D01*
Y7069D01*
X29465Y7091D01*
X29460Y7122D01*
X29452Y7155D01*
X29438Y7188D01*
X29421Y7222D01*
X29399Y7255D01*
X29396Y7258D01*
X29385Y7269D01*
X29371Y7282D01*
X29349Y7296D01*
X29321Y7316D01*
X29288Y7330D01*
X29247Y7344D01*
X29202Y7355D01*
X29199D01*
X29188Y7357D01*
X29166D01*
X29152Y7360D01*
X29111D01*
X29083Y7363D01*
X29017D01*
X28978Y7366D01*
D02*
G37*
G36*
X14748Y7618D02*
X14194D01*
Y6967D01*
X14665D01*
X14698Y6969D01*
X14773D01*
X14853Y6975D01*
X14928Y6981D01*
X14961Y6983D01*
X14992Y6986D01*
X15020Y6992D01*
X15039Y6997D01*
X15044Y7000D01*
X15056Y7003D01*
X15072Y7011D01*
X15092Y7022D01*
X15116Y7036D01*
X15141Y7055D01*
X15164Y7078D01*
X15186Y7105D01*
X15189Y7108D01*
X15194Y7119D01*
X15202Y7136D01*
X15213Y7158D01*
X15222Y7186D01*
X15230Y7219D01*
X15236Y7258D01*
X15238Y7299D01*
Y7302D01*
Y7305D01*
Y7321D01*
X15236Y7343D01*
X15230Y7374D01*
X15222Y7407D01*
X15208Y7440D01*
X15191Y7474D01*
X15169Y7507D01*
X15166Y7510D01*
X15155Y7521D01*
X15141Y7535D01*
X15119Y7548D01*
X15092Y7568D01*
X15058Y7582D01*
X15017Y7595D01*
X14973Y7606D01*
X14970D01*
X14959Y7609D01*
X14936D01*
X14923Y7612D01*
X14881D01*
X14853Y7615D01*
X14787D01*
X14748Y7618D01*
D02*
G37*
G36*
X17812Y12032D02*
X17227Y11162D01*
X17812D01*
Y12032D01*
D02*
G37*
G36*
X13465Y12342D02*
X12911D01*
Y11691D01*
X13382D01*
X13416Y11694D01*
X13490D01*
X13571Y11699D01*
X13645Y11705D01*
X13679Y11708D01*
X13709Y11710D01*
X13737Y11716D01*
X13756Y11722D01*
X13762Y11724D01*
X13773Y11727D01*
X13790Y11735D01*
X13809Y11746D01*
X13834Y11760D01*
X13859Y11780D01*
X13881Y11802D01*
X13903Y11830D01*
X13906Y11832D01*
X13911Y11844D01*
X13920Y11860D01*
X13931Y11882D01*
X13939Y11910D01*
X13947Y11943D01*
X13953Y11982D01*
X13956Y12024D01*
Y12026D01*
Y12029D01*
Y12046D01*
X13953Y12068D01*
X13947Y12098D01*
X13939Y12132D01*
X13925Y12165D01*
X13909Y12198D01*
X13886Y12231D01*
X13884Y12234D01*
X13873Y12245D01*
X13859Y12259D01*
X13837Y12273D01*
X13809Y12292D01*
X13776Y12306D01*
X13734Y12320D01*
X13690Y12331D01*
X13687D01*
X13676Y12334D01*
X13654D01*
X13640Y12336D01*
X13598D01*
X13571Y12339D01*
X13504D01*
X13465Y12342D01*
D02*
G37*
G36*
X64782Y22244D02*
X64701D01*
X64696D01*
X64682D01*
X64660D01*
X64629D01*
X64593D01*
X64549Y22242D01*
X64505D01*
X64455Y22239D01*
X64352Y22233D01*
X64253Y22225D01*
X64203Y22219D01*
X64158Y22214D01*
X64120Y22206D01*
X64084Y22197D01*
X64081D01*
X64075Y22194D01*
X64067Y22192D01*
X64056Y22189D01*
X64028Y22181D01*
X63992Y22167D01*
X63954Y22150D01*
X63917Y22131D01*
X63884Y22108D01*
X63859Y22084D01*
X63857Y22081D01*
X63851Y22072D01*
X63840Y22056D01*
X63829Y22039D01*
X63820Y22014D01*
X63809Y21987D01*
X63804Y21959D01*
X63801Y21926D01*
Y21912D01*
X63804Y21895D01*
X63809Y21873D01*
X63815Y21848D01*
X63826Y21820D01*
X63840Y21795D01*
X63859Y21768D01*
X63862Y21765D01*
X63870Y21757D01*
X63884Y21743D01*
X63906Y21729D01*
X63934Y21712D01*
X63967Y21693D01*
X64012Y21676D01*
X64061Y21660D01*
X64064D01*
X64070Y21657D01*
X64081Y21654D01*
X64097Y21652D01*
X64120Y21649D01*
X64145Y21643D01*
X64178Y21640D01*
X64214Y21635D01*
X64255Y21629D01*
X64302Y21626D01*
X64355Y21621D01*
X64413Y21618D01*
X64474Y21615D01*
X64546Y21613D01*
X64621Y21610D01*
X64701D01*
X64707D01*
X64721D01*
X64743D01*
X64773D01*
X64812Y21613D01*
X64854D01*
X64898D01*
X64948Y21615D01*
X65050Y21621D01*
X65153Y21629D01*
X65203Y21635D01*
X65247Y21640D01*
X65286Y21646D01*
X65322Y21654D01*
X65325D01*
X65330Y21657D01*
X65338Y21660D01*
X65350Y21663D01*
X65377Y21671D01*
X65411Y21685D01*
X65449Y21701D01*
X65485Y21721D01*
X65518Y21743D01*
X65544Y21768D01*
X65546Y21771D01*
X65552Y21779D01*
X65560Y21795D01*
X65571Y21815D01*
X65582Y21837D01*
X65591Y21865D01*
X65596Y21892D01*
X65599Y21926D01*
Y21939D01*
X65596Y21956D01*
X65591Y21978D01*
X65585Y22003D01*
X65577Y22031D01*
X65563Y22056D01*
X65544Y22084D01*
X65541Y22086D01*
X65532Y22095D01*
X65518Y22108D01*
X65496Y22122D01*
X65469Y22142D01*
X65435Y22158D01*
X65391Y22175D01*
X65341Y22192D01*
X65338D01*
X65333Y22194D01*
X65322Y22197D01*
X65305Y22200D01*
X65283Y22203D01*
X65258Y22208D01*
X65228Y22214D01*
X65192Y22219D01*
X65150Y22222D01*
X65103Y22228D01*
X65050Y22233D01*
X64992Y22236D01*
X64929Y22239D01*
X64859Y22242D01*
X64782Y22244D01*
D02*
G37*
G36*
X64153Y18203D02*
X64150D01*
X64147D01*
X64131D01*
X64109Y18200D01*
X64078Y18194D01*
X64045Y18186D01*
X64012Y18172D01*
X63978Y18156D01*
X63945Y18134D01*
X63942Y18131D01*
X63931Y18120D01*
X63917Y18106D01*
X63904Y18084D01*
X63884Y18056D01*
X63870Y18023D01*
X63857Y17981D01*
X63845Y17937D01*
Y17934D01*
X63843Y17923D01*
Y17901D01*
X63840Y17887D01*
Y17845D01*
X63837Y17818D01*
Y17751D01*
X63834Y17713D01*
Y17158D01*
X64485D01*
Y17629D01*
X64483Y17663D01*
Y17738D01*
X64477Y17818D01*
X64472Y17893D01*
X64469Y17926D01*
X64466Y17956D01*
X64460Y17984D01*
X64455Y18003D01*
X64452Y18009D01*
X64449Y18020D01*
X64441Y18037D01*
X64430Y18056D01*
X64416Y18081D01*
X64397Y18106D01*
X64375Y18128D01*
X64347Y18150D01*
X64344Y18153D01*
X64333Y18158D01*
X64316Y18167D01*
X64294Y18178D01*
X64267Y18186D01*
X64233Y18194D01*
X64195Y18200D01*
X64153Y18203D01*
D02*
G37*
G36*
X13971Y39670D02*
X13417D01*
Y39019D01*
X13888D01*
X13921Y39022D01*
X13996D01*
X14076Y39027D01*
X14151Y39033D01*
X14184Y39035D01*
X14215Y39038D01*
X14242Y39044D01*
X14262Y39049D01*
X14267Y39052D01*
X14278Y39055D01*
X14295Y39063D01*
X14314Y39074D01*
X14339Y39088D01*
X14364Y39107D01*
X14386Y39130D01*
X14409Y39157D01*
X14411Y39160D01*
X14417Y39171D01*
X14425Y39188D01*
X14436Y39210D01*
X14445Y39238D01*
X14453Y39271D01*
X14458Y39310D01*
X14461Y39351D01*
Y39354D01*
Y39357D01*
Y39373D01*
X14458Y39395D01*
X14453Y39426D01*
X14445Y39459D01*
X14431Y39492D01*
X14414Y39526D01*
X14392Y39559D01*
X14389Y39562D01*
X14378Y39573D01*
X14364Y39587D01*
X14342Y39601D01*
X14314Y39620D01*
X14281Y39634D01*
X14240Y39648D01*
X14195Y39659D01*
X14193D01*
X14182Y39661D01*
X14159D01*
X14145Y39664D01*
X14104D01*
X14076Y39667D01*
X14010D01*
X13971Y39670D01*
D02*
G37*
G36*
X19818Y43932D02*
X19234Y43062D01*
X19818D01*
Y43932D01*
D02*
G37*
G36*
X17458Y44242D02*
X16905D01*
Y43591D01*
X17375D01*
X17409Y43594D01*
X17483D01*
X17564Y43599D01*
X17639Y43605D01*
X17672Y43608D01*
X17702Y43611D01*
X17730Y43616D01*
X17749Y43622D01*
X17755Y43624D01*
X17766Y43627D01*
X17783Y43635D01*
X17802Y43646D01*
X17827Y43660D01*
X17852Y43680D01*
X17874Y43702D01*
X17896Y43730D01*
X17899Y43732D01*
X17904Y43744D01*
X17913Y43760D01*
X17924Y43782D01*
X17932Y43810D01*
X17941Y43843D01*
X17946Y43882D01*
X17949Y43924D01*
Y43926D01*
Y43929D01*
Y43946D01*
X17946Y43968D01*
X17941Y43998D01*
X17932Y44032D01*
X17918Y44065D01*
X17902Y44098D01*
X17879Y44131D01*
X17877Y44134D01*
X17866Y44145D01*
X17852Y44159D01*
X17830Y44173D01*
X17802Y44192D01*
X17769Y44206D01*
X17727Y44220D01*
X17683Y44231D01*
X17680D01*
X17669Y44234D01*
X17647D01*
X17633Y44236D01*
X17591D01*
X17564Y44239D01*
X17497D01*
X17458Y44242D01*
D02*
G37*
G36*
X19686Y31099D02*
X19652D01*
X19636Y31096D01*
X19611Y31093D01*
X19580Y31085D01*
X19544Y31074D01*
X19505Y31055D01*
X19469Y31027D01*
X19433Y30991D01*
X19431Y30985D01*
X19420Y30971D01*
X19406Y30944D01*
X19398Y30927D01*
X19389Y30908D01*
X19381Y30883D01*
X19373Y30858D01*
X19364Y30830D01*
X19359Y30797D01*
X19353Y30764D01*
X19348Y30725D01*
X19345Y30686D01*
Y30642D01*
Y30639D01*
Y30631D01*
Y30620D01*
X19348Y30600D01*
Y30581D01*
X19350Y30559D01*
X19356Y30503D01*
X19370Y30445D01*
X19386Y30384D01*
X19409Y30329D01*
X19425Y30301D01*
X19442Y30279D01*
X19447Y30273D01*
X19458Y30262D01*
X19481Y30243D01*
X19508Y30224D01*
X19544Y30201D01*
X19586Y30182D01*
X19633Y30171D01*
X19686Y30165D01*
X19691D01*
X19711Y30168D01*
X19735Y30171D01*
X19769Y30179D01*
X19805Y30193D01*
X19846Y30213D01*
X19885Y30240D01*
X19924Y30276D01*
X19929Y30282D01*
X19940Y30296D01*
X19954Y30323D01*
X19974Y30359D01*
X19990Y30404D01*
X20007Y30459D01*
X20018Y30525D01*
X20021Y30600D01*
Y30603D01*
Y30611D01*
Y30622D01*
X20018Y30639D01*
Y30658D01*
X20015Y30683D01*
X20007Y30736D01*
X19993Y30794D01*
X19974Y30855D01*
X19946Y30916D01*
X19910Y30969D01*
Y30971D01*
X19904Y30974D01*
X19891Y30988D01*
X19868Y31010D01*
X19838Y31035D01*
X19802Y31057D01*
X19758Y31080D01*
X19711Y31093D01*
X19686Y31099D01*
D02*
G37*
G36*
X17500Y31066D02*
X16946D01*
Y30415D01*
X17417D01*
X17450Y30417D01*
X17525D01*
X17605Y30423D01*
X17680Y30428D01*
X17713Y30431D01*
X17744Y30434D01*
X17772Y30440D01*
X17791Y30445D01*
X17796Y30448D01*
X17808Y30451D01*
X17824Y30459D01*
X17843Y30470D01*
X17868Y30484D01*
X17893Y30503D01*
X17916Y30525D01*
X17938Y30553D01*
X17941Y30556D01*
X17946Y30567D01*
X17954Y30584D01*
X17965Y30606D01*
X17974Y30634D01*
X17982Y30667D01*
X17988Y30705D01*
X17990Y30747D01*
Y30750D01*
Y30753D01*
Y30769D01*
X17988Y30791D01*
X17982Y30822D01*
X17974Y30855D01*
X17960Y30888D01*
X17943Y30922D01*
X17921Y30955D01*
X17918Y30958D01*
X17907Y30969D01*
X17893Y30983D01*
X17871Y30996D01*
X17843Y31016D01*
X17810Y31030D01*
X17769Y31043D01*
X17724Y31055D01*
X17722D01*
X17711Y31057D01*
X17688D01*
X17674Y31060D01*
X17633D01*
X17605Y31063D01*
X17539D01*
X17500Y31066D01*
D02*
G37*
%LPD*%
D10*
X56579Y29035D02*
G03*
X56579Y29035I-492J0D01*
G01*
D11*
X59720Y9606D02*
Y10394D01*
X62279Y9606D02*
Y10394D01*
X59720Y39606D02*
Y40394D01*
X62279Y39606D02*
Y40394D01*
X59720Y29606D02*
Y30394D01*
X62279Y29606D02*
Y30394D01*
X48606Y11721D02*
X49394D01*
X48606Y14279D02*
X49394D01*
X43095Y23031D02*
X55299D01*
X43095Y26969D02*
X55299D01*
X43095Y23031D02*
Y26969D01*
X55299Y23031D02*
Y26969D01*
X48606Y35721D02*
X49394D01*
X48606Y38280D02*
X49394D01*
X32721Y29606D02*
Y30394D01*
X35280Y29606D02*
Y30394D01*
X38721Y24606D02*
Y25394D01*
X41280Y24606D02*
Y25394D01*
X35280Y19606D02*
Y20394D01*
X32721Y19606D02*
Y20394D01*
X24280Y19606D02*
Y20394D01*
X21721Y19606D02*
Y20394D01*
X30606Y38721D02*
X31394D01*
X30606Y41280D02*
X31394D01*
X30606Y8721D02*
X31394D01*
X30606Y11280D02*
X31394D01*
X24280Y9606D02*
Y10394D01*
X21721Y9606D02*
Y10394D01*
X14606Y13721D02*
X15394D01*
X14606Y16280D02*
X15394D01*
X59720Y19606D02*
Y20394D01*
X62279Y19606D02*
Y20394D01*
X14606Y33720D02*
X15394D01*
X14606Y36279D02*
X15394D01*
X21721Y39606D02*
Y40394D01*
X24280Y39606D02*
Y40394D01*
X21721Y29606D02*
Y30394D01*
X24280Y29606D02*
Y30394D01*
M02*
