G04*
G04 #@! TF.GenerationSoftware,Altium Limited,Altium Designer,24.6.1 (21)*
G04*
G04 Layer_Physical_Order=2*
G04 Layer_Color=11436288*
%FSLAX25Y25*%
%MOIN*%
G70*
G04*
G04 #@! TF.SameCoordinates,EBD96B39-EC1D-4DCD-B27F-6C9CB96DE784*
G04*
G04*
G04 #@! TF.FilePolarity,Positive*
G04*
G01*
G75*
%ADD20C,0.01000*%
%ADD23O,0.07500X0.05000*%
%ADD24C,0.02800*%
%ADD25C,0.02600*%
%ADD26R,0.04921X0.05512*%
%ADD27R,0.03740X0.03543*%
G36*
X70000Y49133D02*
Y49133D01*
X70475Y49073D01*
X71070Y48994D01*
X71559Y48792D01*
X71428Y48305D01*
X71250Y48329D01*
X68750D01*
X67888Y48215D01*
X67086Y47883D01*
X66396Y47354D01*
X65867Y46664D01*
X65727Y46325D01*
X59500D01*
X58993Y46225D01*
X58563Y45937D01*
X51114Y38488D01*
X50827Y38058D01*
X50726Y37551D01*
Y35035D01*
X50226Y34836D01*
X49501Y35136D01*
Y32853D01*
Y30571D01*
X50226Y30871D01*
X50726Y30672D01*
Y27572D01*
X49381D01*
Y22909D01*
X49319Y22847D01*
X48819Y23054D01*
Y24500D01*
X45949D01*
Y25000D01*
D01*
Y24500D01*
X43079D01*
Y22756D01*
X41594D01*
Y19500D01*
X45055D01*
Y19000D01*
X45555D01*
Y15244D01*
X48516D01*
Y15244D01*
X48684Y15444D01*
X55206D01*
Y18148D01*
X55582Y18400D01*
X56418D01*
X57190Y18720D01*
X57780Y19310D01*
X58100Y20082D01*
Y20918D01*
X57780Y21689D01*
X57190Y22280D01*
X56418Y22600D01*
X55677D01*
X55582Y22600D01*
X55455Y22585D01*
X55206Y22556D01*
D01*
X54721Y22594D01*
Y27572D01*
X53377D01*
Y37002D01*
X60049Y43674D01*
X65727D01*
X65867Y43336D01*
X66396Y42646D01*
X67086Y42118D01*
X67888Y41785D01*
X68750Y41671D01*
X71250D01*
X72111Y41785D01*
X72914Y42118D01*
X73604Y42646D01*
X73633Y42685D01*
X74133Y42516D01*
Y27485D01*
X73633Y27315D01*
X73604Y27354D01*
X72914Y27883D01*
X72111Y28215D01*
X71250Y28328D01*
X68750D01*
X67888Y28215D01*
X67086Y27883D01*
X66396Y27354D01*
X65867Y26664D01*
X65535Y25861D01*
X65421Y25000D01*
X65535Y24138D01*
X65867Y23336D01*
X66396Y22646D01*
X67086Y22117D01*
X67888Y21785D01*
X68750Y21671D01*
X71250D01*
X72111Y21785D01*
X72914Y22117D01*
X73604Y22646D01*
X73633Y22685D01*
X74133Y22515D01*
Y7750D01*
X73633Y7583D01*
X73015Y8057D01*
X72164Y8410D01*
X71250Y8530D01*
X70500D01*
Y5000D01*
Y1470D01*
X70766D01*
X70799Y970D01*
X70006Y865D01*
X70000Y867D01*
X5000D01*
X5000Y867D01*
X5000Y867D01*
X4507Y929D01*
X4201Y970D01*
X4234Y1470D01*
X4500D01*
Y5000D01*
Y8530D01*
X3750D01*
X2836Y8410D01*
X1985Y8057D01*
X1367Y7583D01*
X867Y7750D01*
Y12516D01*
X1367Y12685D01*
X1396Y12646D01*
X2086Y12117D01*
X2888Y11785D01*
X3750Y11671D01*
X6250D01*
X7112Y11785D01*
X7914Y12117D01*
X8604Y12646D01*
X9133Y13336D01*
X9465Y14139D01*
X9578Y15000D01*
X9465Y15861D01*
X9133Y16664D01*
X8604Y17354D01*
X7914Y17883D01*
X7112Y18215D01*
X6250Y18328D01*
X3750D01*
X2888Y18215D01*
X2086Y17883D01*
X1396Y17354D01*
X1367Y17315D01*
X867Y17484D01*
Y32515D01*
X1367Y32685D01*
X1396Y32646D01*
X2086Y32118D01*
X2888Y31785D01*
X3750Y31672D01*
X6250D01*
X7112Y31785D01*
X7914Y32118D01*
X8604Y32646D01*
X9133Y33336D01*
X9465Y34139D01*
X9578Y35000D01*
X9465Y35862D01*
X9133Y36664D01*
X8604Y37354D01*
X7914Y37883D01*
X7112Y38215D01*
X6250Y38328D01*
X3750D01*
X2888Y38215D01*
X2086Y37883D01*
X1396Y37354D01*
X1367Y37315D01*
X867Y37484D01*
Y42516D01*
X1367Y42685D01*
X1396Y42646D01*
X2086Y42118D01*
X2888Y41785D01*
X3750Y41671D01*
X6250D01*
X7112Y41785D01*
X7914Y42118D01*
X8604Y42646D01*
X9133Y43336D01*
X9465Y44139D01*
X9578Y45000D01*
X9465Y45862D01*
X9133Y46664D01*
X8604Y47354D01*
X7914Y47883D01*
X7112Y48215D01*
X6250Y48329D01*
X3750D01*
X3572Y48305D01*
X3441Y48792D01*
X3930Y48994D01*
X4522Y49072D01*
X5000Y49133D01*
X5000Y49133D01*
X5492Y49133D01*
X69510D01*
X70000Y49133D01*
D02*
G37*
%LPC*%
G36*
X49500Y45891D02*
Y44000D01*
X51391D01*
X51035Y44859D01*
X50359Y45535D01*
X49500Y45891D01*
D02*
G37*
G36*
X48500D02*
X47640Y45535D01*
X46965Y44859D01*
X46609Y44000D01*
X48500D01*
Y45891D01*
D02*
G37*
G36*
X51391Y43000D02*
X49500D01*
Y41109D01*
X50359Y41465D01*
X51035Y42140D01*
X51391Y43000D01*
D02*
G37*
G36*
X48500D02*
X46609D01*
X46965Y42140D01*
X47640Y41465D01*
X48500Y41109D01*
Y43000D01*
D02*
G37*
G36*
X48501Y35136D02*
X47698Y34803D01*
X47051Y34156D01*
X46719Y33353D01*
X48501D01*
Y35136D01*
D02*
G37*
G36*
Y32353D02*
X46719D01*
X47051Y31551D01*
X47698Y30904D01*
X48501Y30571D01*
Y32353D01*
D02*
G37*
G36*
X48819Y27772D02*
X46449D01*
Y25500D01*
X48819D01*
Y27772D01*
D02*
G37*
G36*
X45449D02*
X43079D01*
Y25500D01*
X45449D01*
Y27772D01*
D02*
G37*
G36*
X44555Y18500D02*
X41594D01*
Y15244D01*
X44555D01*
Y18500D01*
D02*
G37*
G36*
X69500Y8530D02*
X68750D01*
X67836Y8410D01*
X66985Y8057D01*
X66254Y7496D01*
X65693Y6765D01*
X65340Y5914D01*
X65286Y5500D01*
X69500D01*
Y8530D01*
D02*
G37*
G36*
X6250D02*
X5500D01*
Y5500D01*
X9714D01*
X9660Y5914D01*
X9307Y6765D01*
X8746Y7496D01*
X8015Y8057D01*
X7164Y8410D01*
X6250Y8530D01*
D02*
G37*
G36*
X69500Y4500D02*
X65286D01*
X65340Y4086D01*
X65693Y3235D01*
X66254Y2504D01*
X66985Y1943D01*
X67836Y1590D01*
X68750Y1470D01*
X69500D01*
Y4500D01*
D02*
G37*
G36*
X9714Y4500D02*
X5500D01*
Y1470D01*
X6250D01*
X7164Y1590D01*
X8015Y1943D01*
X8746Y2504D01*
X9307Y3235D01*
X9660Y4086D01*
X9714Y4500D01*
D02*
G37*
%LPD*%
D20*
X52051Y20500D02*
Y37551D01*
Y20500D02*
X52051Y20500D01*
X56000D01*
X49000Y32854D02*
X49001Y32853D01*
X49000Y32854D02*
Y43499D01*
X49000Y43500D02*
X49000Y43499D01*
X52051Y18678D02*
X53729Y20356D01*
X59500Y45000D02*
X70000D01*
X52051Y37551D02*
X59500Y45000D01*
X45949Y29801D02*
X49001Y32853D01*
X45949Y25000D02*
Y29801D01*
D23*
X5000Y15000D02*
D03*
Y35000D02*
D03*
Y45000D02*
D03*
X70000D02*
D03*
Y25000D02*
D03*
Y5000D02*
D03*
X5000D02*
D03*
D24*
X49000Y43500D02*
D03*
D25*
X56000Y20500D02*
D03*
X49001Y32853D02*
D03*
D26*
X51945Y19000D02*
D03*
X45055D02*
D03*
D27*
X45949Y25000D02*
D03*
X52051D02*
D03*
M02*
