G04*
G04 #@! TF.GenerationSoftware,Altium Limited,Altium Designer,24.6.1 (21)*
G04*
G04 Layer_Physical_Order=1*
G04 Layer_Color=39423*
%FSLAX25Y25*%
%MOIN*%
G70*
G04*
G04 #@! TF.SameCoordinates,EBD96B39-EC1D-4DCD-B27F-6C9CB96DE784*
G04*
G04*
G04 #@! TF.FilePolarity,Positive*
G04*
G01*
G75*
%ADD12R,0.03347X0.02756*%
%ADD13R,0.02756X0.03347*%
%ADD14R,0.02362X0.03347*%
%ADD20C,0.01000*%
%ADD21C,0.02500*%
%ADD22C,0.03000*%
%ADD23O,0.07500X0.05000*%
%ADD24C,0.02800*%
%ADD25C,0.02600*%
D12*
X61000Y6752D02*
D03*
Y13248D02*
D03*
Y36752D02*
D03*
Y43248D02*
D03*
Y26752D02*
D03*
Y33248D02*
D03*
X34000Y26752D02*
D03*
Y33248D02*
D03*
X40000Y21752D02*
D03*
Y28248D02*
D03*
X34000Y23248D02*
D03*
Y16752D02*
D03*
X23000Y23248D02*
D03*
Y16752D02*
D03*
Y13248D02*
D03*
Y6752D02*
D03*
X61000Y16752D02*
D03*
Y23248D02*
D03*
X23000Y36752D02*
D03*
Y43248D02*
D03*
Y26752D02*
D03*
Y33248D02*
D03*
D13*
X52248Y13000D02*
D03*
X45752D02*
D03*
X52248Y37000D02*
D03*
X45752D02*
D03*
X34248Y40000D02*
D03*
X27752D02*
D03*
X34248Y10000D02*
D03*
X27752D02*
D03*
X18248Y15000D02*
D03*
X11752D02*
D03*
X18248Y35000D02*
D03*
X11752D02*
D03*
D14*
X52740Y20571D02*
D03*
X45260D02*
D03*
Y29429D02*
D03*
X49000D02*
D03*
X52740D02*
D03*
D20*
X61000Y3000D02*
Y6752D01*
X23000Y25000D02*
X30500D01*
X34000D01*
X30500Y3000D02*
Y25000D01*
X60874Y43374D02*
X61000Y43248D01*
X49126Y43374D02*
X60874D01*
X49000Y43500D02*
X49126Y43374D01*
X52740Y28937D02*
X56677Y25000D01*
X61000D01*
X52248Y13000D02*
X52496Y13248D01*
X61000D01*
Y16752D01*
Y25500D02*
Y26752D01*
X52740Y20571D02*
X52811Y20500D01*
X56000D01*
X49000Y29429D02*
Y32853D01*
X49001Y32853D01*
X61000Y25000D02*
Y25500D01*
X34000Y25000D02*
Y27752D01*
Y23248D02*
Y25000D01*
X15000Y47000D02*
X15500Y47500D01*
X15000Y8500D02*
Y47000D01*
Y8500D02*
X16748Y6752D01*
X23000D01*
Y43248D02*
Y47500D01*
Y25000D02*
Y26752D01*
Y23248D02*
Y25000D01*
X68750Y5000D02*
X70000D01*
X5000D02*
X6250D01*
X61000Y25000D02*
X70000D01*
X52740Y28937D02*
Y29429D01*
X61000Y23248D02*
Y25000D01*
X52496Y36752D02*
X61000D01*
X52248Y37000D02*
X52496Y36752D01*
X61000Y33248D02*
Y36752D01*
X40000Y14000D02*
Y16752D01*
X41000Y13000D02*
X45752D01*
X40000Y14000D02*
X41000Y13000D01*
X40586Y37000D02*
X45752D01*
X40000Y36414D02*
X40586Y37000D01*
X40000Y34248D02*
Y36414D01*
Y16752D02*
X41933D01*
X34000D02*
X40000D01*
Y21752D01*
Y34248D02*
X40933D01*
X34000D02*
X40000D01*
Y28248D02*
Y34248D01*
X41933Y16752D02*
X45260Y20079D01*
Y20571D01*
X40933Y34248D02*
X45260Y29921D01*
Y29429D02*
Y29921D01*
X34000Y34248D02*
X34248Y34496D01*
Y40000D01*
Y10000D02*
Y16504D01*
X34000Y16752D02*
X34248Y16504D01*
X23000Y13248D02*
X27166D01*
X27752Y10000D02*
Y12662D01*
X27166Y13248D02*
X27752Y12662D01*
X23000Y15000D02*
Y16752D01*
Y13248D02*
Y15000D01*
X18248D02*
X23000D01*
Y35000D02*
Y36752D01*
Y33248D02*
Y35000D01*
X18248D02*
X23000D01*
X27500Y39748D02*
X27752Y40000D01*
X27500Y37500D02*
Y39748D01*
X26752Y36752D02*
X27500Y37500D01*
X23000Y36752D02*
X26752D01*
X5000Y15000D02*
X11752D01*
X5000Y35000D02*
X11752D01*
D21*
X61000Y3000D02*
X66074D01*
X30500D02*
X61000D01*
X66074D02*
X68073Y5000D01*
X68750D01*
X8926Y3000D02*
X30500D01*
X6927Y5000D02*
X8926Y3000D01*
X6250Y5000D02*
X6927D01*
X15500Y47500D02*
X23000D01*
X9291D02*
X15500D01*
X23000D02*
X65709D01*
X68209Y45000D01*
X6791D02*
X9291Y47500D01*
D22*
X5000Y45000D02*
X6791D01*
X68209D02*
X70000D01*
D23*
X5000Y15000D02*
D03*
Y35000D02*
D03*
Y45000D02*
D03*
X70000D02*
D03*
Y25000D02*
D03*
Y5000D02*
D03*
X5000D02*
D03*
D24*
X49000Y43500D02*
D03*
D25*
X56000Y20500D02*
D03*
X49001Y32853D02*
D03*
M02*
